<svg width="24" height="24" viewBox="0 0 24 24" fill="none" xmlns="http://www.w3.org/2000/svg">
<g clip-path="url(#clip0_1544_24599)">
<path d="M9.54844 24.0422L7.77656 25.2938C7.43437 25.5375 6.98438 25.5656 6.60938 25.3734C6.23438 25.1813 6 24.7969 6 24.375V21H4.5C2.01562 21 0 18.9844 0 16.5V6C0 3.51563 2.01562 1.5 4.5 1.5H19.5C21.9844 1.5 24 3.51563 24 6V16.5C24 18.9844 21.9844 21 19.5 21H13.8563L9.54844 24.0422ZM12.5625 19.1625C12.9422 18.8953 13.3969 18.75 13.8609 18.75H19.5C20.7422 18.75 21.75 17.7422 21.75 16.5V6C21.75 4.75781 20.7422 3.75 19.5 3.75H4.5C3.25781 3.75 2.25 4.75781 2.25 6V16.5C2.25 17.7422 3.25781 18.75 4.5 18.75H7.125C7.6125 18.75 8.02969 19.0594 8.18438 19.4953C8.22656 19.6125 8.25 19.7391 8.25 19.875V22.2047C9.78281 21.1219 11.2172 20.1094 12.5578 19.1625H12.5625Z" fill="black"/>
</g>
<defs>
<clipPath id="clip0_1544_24599">
<rect width="24" height="24" fill="white"/>
</clipPath>
</defs>
</svg>
