<svg width="24" height="24" viewBox="0 0 24 24" fill="none" xmlns="http://www.w3.org/2000/svg">
<path d="M8.25 2.25V21.75H6C5.5875 21.75 5.25 21.4125 5.25 21V3C5.25 2.5875 5.5875 2.25 6 2.25H8.25ZM10.5 2.25H19.5C19.9125 2.25 20.25 2.5875 20.25 3V21C20.25 21.4125 19.9125 21.75 19.5 21.75H10.5V2.25ZM6 0C4.34531 0 3 1.34531 3 3V4.875H1.125C0.501562 4.875 0 5.37656 0 6C0 6.62344 0.501562 7.125 1.125 7.125H3V10.875H1.125C0.501562 10.875 0 11.3766 0 12C0 12.6234 0.501562 13.125 1.125 13.125H3V16.875H1.125C0.501562 16.875 0 17.3766 0 18C0 18.6234 0.501562 19.125 1.125 19.125H3V21C3 22.6547 4.34531 24 6 24H19.5C21.1547 24 22.5 22.6547 22.5 21V3C22.5 1.34531 21.1547 0 19.5 0H6Z" fill="black"/>
</svg>
