<svg width="24" height="24" viewBox="0 0 24 24" fill="none" xmlns="http://www.w3.org/2000/svg">
<g clip-path="url(#clip0_1544_24589)">
<path d="M15.2578 17.25C15.4547 17.25 15.6469 17.1703 15.7875 17.0297L21.5297 11.2875C21.6703 11.1469 21.75 10.9547 21.75 10.7578V3C21.75 2.5875 21.4125 2.25 21 2.25H7.5C7.0875 2.25 6.75 2.5875 6.75 3V16.5C6.75 16.9125 7.0875 17.25 7.5 17.25H15.2578ZM7.5 19.5C5.84531 19.5 4.5 18.1547 4.5 16.5V3C4.5 1.34531 5.84531 0 7.5 0H21C22.6547 0 24 1.34531 24 3V10.7578C24 11.5547 23.6859 12.3187 23.1234 12.8812L17.3766 18.6234C16.8141 19.1859 16.05 19.5 15.2531 19.5H7.5ZM1.125 4.5C1.74844 4.5 2.25 5.00156 2.25 5.625V21C2.25 21.4125 2.5875 21.75 3 21.75H15.375C15.9984 21.75 16.5 22.2516 16.5 22.875C16.5 23.4984 15.9984 24 15.375 24H3C1.34531 24 0 22.6547 0 21V5.625C0 5.00156 0.501562 4.5 1.125 4.5ZM12.75 6.375C12.75 5.9625 13.0875 5.625 13.5 5.625H15C15.4125 5.625 15.75 5.9625 15.75 6.375V8.25H17.625C18.0375 8.25 18.375 8.5875 18.375 9V10.5C18.375 10.9125 18.0375 11.25 17.625 11.25H15.75V13.125C15.75 13.5375 15.4125 13.875 15 13.875H13.5C13.0875 13.875 12.75 13.5375 12.75 13.125V11.25H10.875C10.4625 11.25 10.125 10.9125 10.125 10.5V9C10.125 8.5875 10.4625 8.25 10.875 8.25H12.75V6.375Z" fill="black"/>
</g>
<defs>
<clipPath id="clip0_1544_24589">
<rect width="24" height="24" fill="white"/>
</clipPath>
</defs>
</svg>
