<svg width="24" height="24" viewBox="0 0 24 24" fill="none" xmlns="http://www.w3.org/2000/svg">
<g clip-path="url(#clip0_1544_24604)">
<path d="M15.425 0.326562C14.9844 -0.114062 14.2719 -0.114062 13.8359 0.326562C13.4 0.767187 13.3953 1.47969 13.8359 1.91563L14.5391 2.61875L1.42344 15.7344C0.514062 16.6437 0.0078125 17.8719 0.0078125 19.1562C0.0078125 21.8281 2.17344 23.9937 4.84531 23.9937C6.12969 23.9937 7.35781 23.4828 8.26719 22.5781L21.3781 9.4625L22.0812 10.1703C22.5219 10.6109 23.2344 10.6109 23.6703 10.1703C24.1062 9.72969 24.1109 9.01719 23.6703 8.58125L16.925 1.82656L15.425 0.326562ZM8.34687 11.9984L16.1328 4.2125L19.7938 7.87344L15.6688 11.9984H8.35156H8.34687ZM6.09687 14.2484H13.4141L6.67344 20.9891C6.18594 21.4766 5.52969 21.7484 4.84531 21.7484C3.41563 21.7484 2.25781 20.5906 2.25781 19.1609C2.25781 18.4766 2.52969 17.8156 3.01719 17.3328L6.09219 14.2484H6.09687Z" fill="black"/>
</g>
<defs>
<clipPath id="clip0_1544_24604">
<rect width="24" height="24" fill="white"/>
</clipPath>
</defs>
</svg>
