<svg width="14" height="16" viewBox="0 0 14 16" fill="none" xmlns="http://www.w3.org/2000/svg">
<g clip-path="url(#clip0_2176_89059)">
<path d="M3.79618 3.78577C4.26097 3.78577 4.8219 3.88177 5.47896 4.07403C6.1421 4.26616 6.58216 4.36229 6.79916 4.36229C7.07816 4.36229 7.5337 4.25386 8.1659 4.03674C8.79797 3.81988 9.34673 3.71145 9.81152 3.71145C10.5741 3.71145 11.2528 3.91588 11.8479 4.32501C12.1824 4.56038 12.5143 4.87972 12.8427 5.28263C12.3468 5.70418 11.9842 6.07919 11.7549 6.40765C11.3397 7.00269 11.1321 7.65988 11.1321 8.37869C11.1321 9.16586 11.352 9.87555 11.792 10.5079C12.2323 11.1399 12.7342 11.5398 13.2985 11.7072C13.0627 12.4697 12.6722 13.2668 12.1269 14.0972C11.3024 15.3428 10.4842 15.9656 9.67228 15.9656C9.3499 15.9656 8.90362 15.8638 8.33344 15.6588C7.76934 15.4539 7.29212 15.352 6.90164 15.352C6.51102 15.352 6.05536 15.4578 5.53489 15.6681C5.02051 15.8849 4.602 15.9934 4.27962 15.9934C3.3064 15.9934 2.35195 15.1696 1.41602 13.5206C0.479818 11.8902 0.0117188 10.2909 0.0117188 8.72276C0.0117188 7.2661 0.368082 6.07919 1.08094 5.16177C1.79988 4.24434 2.70474 3.78577 3.79565 3.78577M9.65364 0.122559C9.67836 0.20322 9.69397 0.274625 9.70018 0.336377C9.70626 0.398526 9.70944 0.46041 9.70944 0.522426C9.70944 0.919121 9.61648 1.3531 9.43043 1.82424C9.24451 2.29525 8.95016 2.73228 8.54712 3.13519C8.20015 3.47595 7.85608 3.7051 7.51519 3.82305C7.29833 3.89129 6.96974 3.94391 6.52967 3.98107C6.54223 3.03892 6.78699 2.22372 7.26435 1.53585C7.74778 0.847848 8.54435 0.376707 9.65377 0.122691" fill="white"/>
</g>
<defs>
<clipPath id="clip0_2176_89059">
<rect width="13.3554" height="16" fill="white"/>
</clipPath>
</defs>
</svg>
