<svg width="11" height="16" viewBox="0 0 11 16" fill="none" xmlns="http://www.w3.org/2000/svg">
<g clip-path="url(#clip0_369_2592)">
<path d="M5.33707 5.03255C5.04291 5.06673 4.81858 5.30562 4.79773 5.60688C4.78873 5.73669 4.79155 5.7455 5.08579 6.50265C5.75521 8.22529 5.91739 8.63989 5.94466 8.69824C6.01074 8.83955 6.10366 8.97249 6.21976 9.09181C6.30884 9.18338 6.3676 9.23261 6.46697 9.29899C6.64162 9.41563 6.72829 9.44787 7.40789 9.6491C8.06989 9.84511 8.43156 9.97539 8.74322 10.1301C9.14697 10.3305 9.42868 10.5584 9.60686 10.8289C9.73471 11.023 9.84794 11.371 9.8972 11.7213C9.91646 11.8582 9.91659 12.1609 9.89743 12.2847C9.85587 12.5534 9.77285 12.7785 9.64584 12.9669C9.57829 13.0671 9.6018 13.0504 9.7 12.9282C9.97792 12.5827 10.261 11.9921 10.4055 11.4566C10.5803 10.8084 10.6041 10.1124 10.4739 9.4537C10.2204 8.17089 9.4106 7.06382 8.27003 6.44091C8.19837 6.40176 7.92541 6.25869 7.55536 6.06629C7.4992 6.03708 7.42263 5.99711 7.38519 5.97745C7.34776 5.95778 7.27119 5.91781 7.21503 5.88862C7.15888 5.85942 6.99723 5.7752 6.85581 5.70147C6.71439 5.62772 6.55615 5.54521 6.50416 5.51811C6.34567 5.43547 6.23933 5.37996 6.16005 5.33845C5.79336 5.14649 5.63815 5.06889 5.5939 5.05543C5.54749 5.04131 5.42958 5.02318 5.4 5.02561C5.39377 5.02613 5.36545 5.02924 5.33707 5.03255Z" fill="url(#paint0_radial_369_2592)"/>
<path d="M6.1365 11.4644C6.11618 11.4764 6.08766 11.4938 6.0731 11.5031C6.05853 11.5123 6.0262 11.5324 6.00125 11.5478C5.90966 11.604 5.66606 11.7541 5.45673 11.8833C5.31916 11.9682 5.29875 11.9809 5.12399 12.0893C5.06158 12.128 4.99522 12.1688 4.9765 12.18C4.95779 12.1912 4.87782 12.2404 4.79879 12.2894C4.71975 12.3385 4.58193 12.4236 4.4925 12.4785C4.40308 12.5335 4.24312 12.6321 4.13707 12.6978C4.03099 12.7634 3.89146 12.8494 3.827 12.889C3.76252 12.9285 3.70297 12.9667 3.69465 12.9738C3.68229 12.9844 3.10887 13.3396 2.82115 13.5149C2.60263 13.648 2.34984 13.7371 2.09106 13.772C1.97059 13.7883 1.7426 13.7884 1.62247 13.7721C1.29673 13.7282 0.99664 13.6067 0.739639 13.4148C0.638829 13.3395 0.449037 13.1499 0.376481 13.0519C0.205498 12.8211 0.0948863 12.5735 0.0375993 12.2933C0.0244178 12.2288 0.0119472 12.1744 0.00989769 12.1723C0.00454334 12.1669 0.0142154 12.2643 0.0316624 12.3916C0.0498053 12.524 0.0884661 12.7156 0.130106 12.8794C0.452335 14.1472 1.36925 15.1783 2.61053 15.6689C2.96797 15.8101 3.32866 15.8991 3.72111 15.9428C3.86858 15.9593 4.286 15.9658 4.4399 15.9541C5.14571 15.9007 5.76027 15.6929 6.39073 15.2945C6.44688 15.259 6.55238 15.1925 6.62516 15.1466C6.69796 15.1008 6.78984 15.0426 6.82936 15.0172C6.86887 14.9918 6.91651 14.9619 6.93523 14.9506C6.95395 14.9393 6.99139 14.9158 7.01843 14.8983C7.04547 14.8808 7.16117 14.8077 7.27555 14.7357L7.73295 14.4468L7.89 14.3476L7.89566 14.344L7.91296 14.3331L7.92119 14.3279L8.03682 14.2549L8.43642 14.0025C8.94559 13.6825 9.09743 13.5702 9.33398 13.3385C9.4326 13.2419 9.58129 13.077 9.58867 13.0561C9.59017 13.0518 9.6166 13.011 9.6474 12.9655C9.77258 12.7802 9.85606 12.5533 9.89745 12.2857C9.9166 12.1619 9.91648 11.8592 9.89722 11.7223C9.85998 11.4576 9.77539 11.1573 9.68418 10.9661C9.53461 10.6525 9.21598 10.3676 8.75826 10.1382C8.63188 10.0748 8.50137 10.0168 8.48679 10.0176C8.47989 10.018 8.05394 10.2783 7.54025 10.5962C7.02656 10.9141 6.58073 11.19 6.54954 11.2093C6.51834 11.2287 6.46474 11.2614 6.43042 11.2821L6.1365 11.4644Z" fill="url(#paint1_radial_369_2592)"/>
<path d="M0.00219993 9.93869L0.00440077 12.1527L0.0330561 12.2812C0.122658 12.6832 0.277904 12.973 0.547792 13.2422C0.674738 13.3688 0.771813 13.4451 0.909378 13.5265C1.20047 13.6988 1.51376 13.7838 1.85692 13.7836C2.21634 13.7834 2.52725 13.6938 2.84763 13.4979C2.9017 13.4649 3.11355 13.3345 3.3184 13.2081L3.69086 12.9783V10.3515V7.72474L3.69075 5.32171C3.69067 3.78861 3.68787 2.87813 3.68302 2.80671C3.65247 2.35784 3.46475 1.94518 3.14908 1.63306C3.05221 1.53727 2.96943 1.47328 2.72284 1.3036C2.60014 1.21915 2.37552 1.06446 2.22371 0.959835C2.07189 0.855207 1.82176 0.682846 1.66786 0.576802C1.51396 0.470766 1.29445 0.319477 1.18007 0.240613C0.941775 0.0763144 0.923126 0.064887 0.851092 0.0391135C0.757398 0.00559586 0.658109 -0.00671592 0.563712 0.00347852C0.288582 0.0331921 0.0683356 0.23184 0.0110864 0.50191C0.00217761 0.543928 0.000536254 1.10312 0.000422813 4.13814L0.000294493 7.72474H0L0.00219993 9.93869Z" fill="url(#paint2_linear_369_2592)"/>
</g>
<defs>
<radialGradient id="paint0_radial_369_2592" cx="0" cy="0" r="1" gradientTransform="matrix(-539.972 -448.392 866.053 -539.972 118.01 -592.114)" gradientUnits="userSpaceOnUse">
<stop stop-color="#00CACC"/>
<stop offset="1" stop-color="#048FCE"/>
</radialGradient>
<radialGradient id="paint1_radial_369_2592" cx="0" cy="0" r="1" gradientTransform="matrix(819.789 -585.426 210.788 819.791 178.596 345.278)" gradientUnits="userSpaceOnUse">
<stop stop-color="#00BBEC"/>
<stop offset="1" stop-color="#2756A9"/>
</radialGradient>
<linearGradient id="paint2_linear_369_2592" x1="184.544" y1="-4.84581e-07" x2="184.544" y2="1378.36" gradientUnits="userSpaceOnUse">
<stop stop-color="#00BBEC"/>
<stop offset="1" stop-color="#2756A9"/>
</linearGradient>
<clipPath id="clip0_369_2592">
<rect width="10.5567" height="16" fill="white"/>
</clipPath>
</defs>
</svg>
