<svg width="12" height="12" viewBox="0 0 12 12" fill="none" xmlns="http://www.w3.org/2000/svg">
<g clip-path="url(#clip0_369_2636)">
<path d="M4.5 1.3125V2.25H7.5V1.3125C7.5 1.20938 7.41563 1.125 7.3125 1.125H4.6875C4.58437 1.125 4.5 1.20938 4.5 1.3125ZM3.375 2.25V1.3125C3.375 0.588281 3.96328 0 4.6875 0H7.3125C8.03672 0 8.625 0.588281 8.625 1.3125V2.25H10.5C11.3273 2.25 12 2.92266 12 3.75V9.75C12 10.5773 11.3273 11.25 10.5 11.25H1.5C0.672656 11.25 0 10.5773 0 9.75V3.75C0 2.92266 0.672656 2.25 1.5 2.25H3.375ZM1.125 7.125V9.75C1.125 9.95625 1.29375 10.125 1.5 10.125H10.5C10.7063 10.125 10.875 9.95625 10.875 9.75V7.125H7.5V7.5C7.5 7.91484 7.16484 8.25 6.75 8.25H5.25C4.83516 8.25 4.5 7.91484 4.5 7.5V7.125H1.125ZM4.5 6H10.875V3.75C10.875 3.54375 10.7063 3.375 10.5 3.375H1.5C1.29375 3.375 1.125 3.54375 1.125 3.75V6H4.5Z" fill="#71717B"/>
</g>
<defs>
<clipPath id="clip0_369_2636">
<rect width="12" height="12" fill="white"/>
</clipPath>
</defs>
</svg>
