<svg width="24" height="24" viewBox="0 0 24 24" fill="none" xmlns="http://www.w3.org/2000/svg">
<path d="M9 3.75C9 2.50781 10.0078 1.5 11.25 1.5H12.75C13.9922 1.5 15 2.50781 15 3.75V20.25C15 21.4922 13.9922 22.5 12.75 22.5H11.25C10.0078 22.5 9 21.4922 9 20.25V3.75ZM0 12.75C0 11.5078 1.00781 10.5 2.25 10.5H3.75C4.99219 10.5 6 11.5078 6 12.75V20.25C6 21.4922 4.99219 22.5 3.75 22.5H2.25C1.00781 22.5 0 21.4922 0 20.25V12.75ZM20.25 4.5H21.75C22.9922 4.5 24 5.50781 24 6.75V20.25C24 21.4922 22.9922 22.5 21.75 22.5H20.25C19.0078 22.5 18 21.4922 18 20.25V6.75C18 5.50781 19.0078 4.5 20.25 4.5Z" fill="black"/>
</svg>
