<svg width="14" height="16" viewBox="0 0 14 16" fill="none" xmlns="http://www.w3.org/2000/svg">
<path d="M14 8C14 8.19698 13.9612 8.39204 13.8858 8.57403C13.8104 8.75601 13.6999 8.92137 13.5607 9.06066C13.4214 9.19995 13.256 9.31044 13.074 9.38582C12.892 9.4612 12.697 9.5 12.5 9.5C12.303 9.5 12.108 9.4612 11.926 9.38582C11.744 9.31044 11.5786 9.19995 11.4393 9.06066C11.3001 8.92137 11.1896 8.75601 11.1142 8.57403C11.0388 8.39204 11 8.19698 11 8C11 7.80302 11.0388 7.60796 11.1142 7.42597C11.1896 7.24399 11.3001 7.07863 11.4393 6.93934C11.5786 6.80005 11.744 6.68956 11.926 6.61418C12.108 6.5388 12.303 6.5 12.5 6.5C12.697 6.5 12.892 6.5388 13.074 6.61418C13.256 6.68956 13.4214 6.80005 13.5607 6.93934C13.6999 7.07863 13.8104 7.24399 13.8858 7.42597C13.9612 7.60796 14 7.80302 14 8ZM8.5 8C8.5 8.19698 8.4612 8.39204 8.38582 8.57403C8.31044 8.75601 8.19995 8.92137 8.06066 9.06066C7.92137 9.19995 7.75601 9.31044 7.57403 9.38582C7.39204 9.4612 7.19698 9.5 7 9.5C6.80302 9.5 6.60796 9.4612 6.42597 9.38582C6.24399 9.31044 6.07863 9.19995 5.93934 9.06066C5.80005 8.92137 5.68956 8.75601 5.61418 8.57403C5.5388 8.39204 5.5 8.19698 5.5 8C5.5 7.80302 5.5388 7.60796 5.61418 7.42597C5.68956 7.24399 5.80005 7.07863 5.93934 6.93934C6.07863 6.80005 6.24399 6.68956 6.42597 6.61418C6.60796 6.5388 6.80302 6.5 7 6.5C7.19698 6.5 7.39204 6.5388 7.57403 6.61418C7.75601 6.68956 7.92137 6.80005 8.06066 6.93934C8.19995 7.07863 8.31044 7.24399 8.38582 7.42597C8.4612 7.60796 8.5 7.80302 8.5 8ZM1.5 9.5C1.10218 9.5 0.720644 9.34196 0.43934 9.06066C0.158035 8.77936 0 8.39782 0 8C0 7.60218 0.158035 7.22064 0.43934 6.93934C0.720644 6.65804 1.10218 6.5 1.5 6.5C1.89782 6.5 2.27936 6.65804 2.56066 6.93934C2.84196 7.22064 3 7.60218 3 8C3 8.39782 2.84196 8.77936 2.56066 9.06066C2.27936 9.34196 1.89782 9.5 1.5 9.5Z" fill="#71717B"/>
</svg>
