<svg width="12" height="12" viewBox="0 0 12 12" fill="none" xmlns="http://www.w3.org/2000/svg">
<path d="M1.43906 1.5C0.644531 1.5 0 2.14453 0 2.93906C0 2.96016 0 2.97891 0.00234375 3H0V9C0 9.82734 0.672656 10.5 1.5 10.5H10.5C11.3273 10.5 12 9.82734 12 9V3H11.9977C11.9977 2.97891 12 2.96016 12 2.93906C12 2.14453 11.3555 1.5 10.5609 1.5H1.43906ZM10.875 4.50703V9C10.875 9.20625 10.7063 9.375 10.5 9.375H1.5C1.29375 9.375 1.125 9.20625 1.125 9V4.50703L4.75313 7.25859C5.48906 7.81875 6.50859 7.81875 7.24688 7.25859L10.875 4.50703ZM1.125 2.93906C1.125 2.76562 1.26562 2.625 1.43906 2.625H10.5609C10.7344 2.625 10.875 2.76562 10.875 2.93906C10.875 3.0375 10.8281 3.13125 10.7508 3.18984L6.56719 6.36328C6.23203 6.61641 5.76797 6.61641 5.43281 6.36328L1.24922 3.18984C1.17188 3.13125 1.125 3.0375 1.125 2.93906Z" fill="#71717B"/>
</svg>
