<svg width="20" height="20" viewBox="0 0 20 20" fill="none" xmlns="http://www.w3.org/2000/svg">
<g clip-path="url(#clip0_656_1443)">
<mask id="mask0_656_1443" style="mask-type:luminance" maskUnits="userSpaceOnUse" x="0" y="0" width="20" height="20">
<path d="M20 0H0V20H20V0Z" fill="white"/>
</mask>
<g mask="url(#mask0_656_1443)">
<path d="M20.0008 10.2222C20.0008 9.39995 19.9326 8.79995 19.7854 8.17773H10.2048V11.8888H15.8284C15.715 12.811 15.1028 14.2 13.7423 15.1332L13.7231 15.2575L16.7524 17.5572L16.9621 17.5777C18.8896 15.8332 20.0008 13.2666 20.0008 10.2222Z" fill="#4285F4"/>
<path d="M10.2043 19.9989C12.9593 19.9989 15.2723 19.1099 16.9616 17.5767L13.7416 15.1321C12.88 15.721 11.7235 16.1321 10.2043 16.1321C7.50587 16.1321 5.21566 14.3877 4.39926 11.9766L4.27958 11.9865L1.12981 14.3754L1.08862 14.4877C2.76661 17.7543 6.21331 19.9989 10.2043 19.9989Z" fill="#34A853"/>
<path d="M4.40026 11.9782C4.18485 11.356 4.06019 10.6893 4.06019 10.0005C4.06019 9.31153 4.18485 8.64489 4.38894 8.02268L4.38322 7.89015L1.19397 5.46289L1.08963 5.51153C0.39805 6.8671 0.0012207 8.38935 0.0012207 10.0005C0.0012207 11.6116 0.39805 13.1337 1.08963 14.4894L4.40026 11.9782Z" fill="#FBBC05"/>
<path d="M10.2043 3.86664C12.1204 3.86664 13.4129 4.67775 14.1499 5.35558L17.0296 2.6C15.261 0.988892 12.9594 0 10.2043 0C6.21334 0 2.76662 2.24443 1.08862 5.51106L4.38793 8.02221C5.21568 5.6111 7.50591 3.86664 10.2043 3.86664Z" fill="#EB4335"/>
</g>
</g>
<defs>
<clipPath id="clip0_656_1443">
<rect width="20" height="20" fill="white"/>
</clipPath>
</defs>
</svg>
