<svg width="12" height="12" viewBox="0 0 12 12" fill="none" xmlns="http://www.w3.org/2000/svg">
<g clip-path="url(#clip0_369_2641)">
<path d="M8.88047 1.875C8.24062 1.875 7.63828 2.18203 7.26328 2.7L6.45703 3.81563C6.35156 3.96094 6.18281 4.04766 6.00234 4.04766C5.82188 4.04766 5.65312 3.96094 5.54766 3.81563L4.74141 2.7C4.36641 2.18203 3.76406 1.875 3.12422 1.875C2.02266 1.875 1.12969 2.76797 1.12969 3.86953C1.12969 4.59844 1.42031 5.31328 1.84453 6H2.89687C2.96953 6 3.0375 5.95781 3.06797 5.88984L3.80625 4.26797C3.89531 4.07344 4.0875 3.94453 4.30078 3.9375C4.51406 3.93047 4.71562 4.04766 4.81406 4.2375L6.04219 6.55547L7.02656 4.95703C7.12969 4.78828 7.31719 4.68516 7.51406 4.68984C7.71094 4.69453 7.89375 4.8 7.99219 4.97344L8.52188 5.90625C8.55469 5.96484 8.61797 6 8.68359 6H10.1578C10.582 5.31563 10.8727 4.59844 10.8727 3.86953C10.8727 2.76797 9.97969 1.875 8.87812 1.875H8.88047ZM10.3125 7.125H8.68594C8.21484 7.125 7.78125 6.87187 7.54688 6.46406L7.48359 6.35391L6.48047 7.98281C6.375 8.15391 6.18516 8.25703 5.98359 8.25C5.78203 8.24297 5.59922 8.13047 5.50547 7.95L4.35469 5.775L4.08984 6.35625C3.87656 6.825 3.41016 7.125 2.89453 7.125H1.23984C0.585938 6.20859 0 5.09531 0 3.86953C0 2.14688 1.39688 0.75 3.11953 0.75C4.12031 0.75 5.0625 1.23047 5.64844 2.04141L6 2.52656L6.35156 2.04141C6.9375 1.23047 7.87969 0.75 8.88047 0.75C10.6031 0.75 12 2.14688 12 3.86953C12 5.09531 11.4141 6.20859 10.7625 7.125H10.3125ZM2.13281 8.25H3.66797C4.38516 8.97891 5.11875 9.6 5.67422 10.0266C5.74922 10.0828 5.85938 10.125 6.00234 10.125C6.14531 10.125 6.25547 10.0828 6.33047 10.0266C6.88594 9.60234 7.61953 8.97891 8.33672 8.25H9.87188C8.89922 9.36563 7.79297 10.3242 7.01484 10.9195C6.72656 11.1398 6.37031 11.25 6.00469 11.25C5.63906 11.25 5.28281 11.1398 4.99453 10.9195C4.20938 10.3242 3.10547 9.36563 2.13281 8.25Z" fill="#71717B"/>
</g>
<defs>
<clipPath id="clip0_369_2641">
<rect width="12" height="12" fill="white"/>
</clipPath>
</defs>
</svg>
