<svg width="16" height="16" viewBox="0 0 16 16" fill="none" xmlns="http://www.w3.org/2000/svg">
<g clip-path="url(#clip0_369_2544)">
<path d="M8.1627 -0.162109C4.8227 -0.162109 3.8459 -0.158663 3.65614 -0.142908C2.97074 -0.085919 2.54422 0.0220362 2.07958 0.253428C1.7215 0.4313 1.4391 0.63746 1.16038 0.926484C0.652783 1.45354 0.345151 2.10189 0.233791 2.87272C0.179647 3.2468 0.163903 3.32312 0.160703 5.23448C0.159473 5.87159 0.160703 6.71005 0.160703 7.83464C0.160703 11.1727 0.164395 12.1489 0.180391 12.3385C0.235766 13.0056 0.340361 13.4253 0.561863 13.8845C0.985175 14.7633 1.79364 15.4231 2.74602 15.6693C3.07582 15.7542 3.44004 15.801 3.90766 15.8231C4.10577 15.8317 6.12509 15.8379 8.14557 15.8379C10.1661 15.8379 12.1867 15.8354 12.3798 15.8256C12.9213 15.8001 13.2357 15.7579 13.5833 15.668C14.0555 15.5469 14.4957 15.3241 14.8729 15.0152C15.2502 14.7063 15.5554 14.3187 15.7674 13.8796C15.9846 13.4315 16.0948 12.9958 16.1446 12.3635C16.1554 12.2256 16.16 10.0277 16.16 7.83261C16.16 5.63725 16.155 3.44333 16.1442 3.30541C16.0946 2.66301 15.9839 2.23101 15.7598 1.77437C15.5758 1.40049 15.3716 1.12132 15.075 0.835894C14.5457 0.330246 13.8985 0.0225178 13.1271 -0.0887462C12.7535 -0.142781 12.679 -0.158783 10.7668 -0.162106L8.1627 -0.162109Z" fill="url(#paint0_radial_369_2544)"/>
<path d="M8.1627 -0.162109C4.8227 -0.162109 3.8459 -0.158663 3.65614 -0.142908C2.97074 -0.085919 2.54422 0.0220362 2.07958 0.253428C1.7215 0.4313 1.4391 0.63746 1.16038 0.926484C0.652783 1.45354 0.345151 2.10189 0.233791 2.87272C0.179647 3.2468 0.163903 3.32312 0.160703 5.23448C0.159473 5.87159 0.160703 6.71005 0.160703 7.83464C0.160703 11.1727 0.164395 12.1489 0.180391 12.3385C0.235766 13.0056 0.340361 13.4253 0.561863 13.8845C0.985175 14.7633 1.79364 15.4231 2.74602 15.6693C3.07582 15.7542 3.44004 15.801 3.90766 15.8231C4.10577 15.8317 6.12509 15.8379 8.14557 15.8379C10.1661 15.8379 12.1867 15.8354 12.3798 15.8256C12.9213 15.8001 13.2357 15.7579 13.5833 15.668C14.0555 15.5469 14.4957 15.3241 14.8729 15.0152C15.2502 14.7063 15.5554 14.3187 15.7674 13.8796C15.9846 13.4315 16.0948 12.9958 16.1446 12.3635C16.1554 12.2256 16.16 10.0277 16.16 7.83261C16.16 5.63725 16.155 3.44333 16.1442 3.30541C16.0946 2.66301 15.9839 2.23101 15.7598 1.77437C15.5758 1.40049 15.3716 1.12132 15.075 0.835894C14.5457 0.330246 13.8985 0.0225178 13.1271 -0.0887462C12.7535 -0.142781 12.679 -0.158783 10.7668 -0.162106L8.1627 -0.162109Z" fill="url(#paint1_radial_369_2544)"/>
<path d="M8.16012 10.3317C9.56394 10.3317 10.702 9.1937 10.702 7.78989C10.702 6.38607 9.56394 5.24805 8.16012 5.24805C6.75631 5.24805 5.61829 6.38607 5.61829 7.78989C5.61829 9.1937 6.75631 10.3317 8.16012 10.3317Z" stroke="white" stroke-width="1.13732"/>
<path d="M10.6095 2.42578H5.71062C4.06089 2.42578 2.72351 3.76316 2.72351 5.41289V10.2626C2.72351 11.9123 4.06089 13.2497 5.71062 13.2497H10.6095C12.2592 13.2497 13.5966 11.9123 13.5966 10.2626V5.41289C13.5966 3.76316 12.2592 2.42578 10.6095 2.42578Z" stroke="white" stroke-width="1.15235"/>
<path d="M11.3949 5.38963C11.7937 5.38963 12.117 5.06631 12.117 4.66747C12.117 4.26863 11.7937 3.94531 11.3949 3.94531C10.9961 3.94531 10.6727 4.26863 10.6727 4.66747C10.6727 5.06631 10.9961 5.38963 11.3949 5.38963Z" fill="white"/>
</g>
<defs>
<radialGradient id="paint0_radial_369_2544" cx="0" cy="0" r="1" gradientUnits="userSpaceOnUse" gradientTransform="translate(4.40949 17.0703) rotate(-90) scale(15.8569 14.7482)">
<stop stop-color="#FFDD55"/>
<stop offset="0.1" stop-color="#FFDD55"/>
<stop offset="0.5" stop-color="#FF543E"/>
<stop offset="1" stop-color="#C837AB"/>
</radialGradient>
<radialGradient id="paint1_radial_369_2544" cx="0" cy="0" r="1" gradientTransform="matrix(1.39121 6.95032 -28.6489 5.73789 -2.52101 0.98894)" gradientUnits="userSpaceOnUse">
<stop stop-color="#3771C8"/>
<stop offset="0.128" stop-color="#3771C8"/>
<stop offset="1" stop-color="#6600FF" stop-opacity="0"/>
</radialGradient>
<clipPath id="clip0_369_2544">
<rect width="16" height="16" fill="white"/>
</clipPath>
</defs>
</svg>
