<svg width="16" height="16" viewBox="0 0 16 16" fill="none" xmlns="http://www.w3.org/2000/svg">
<g clip-path="url(#clip0_369_2567)">
<path d="M0 0H16V16H0" fill="#0077B5"/>
<path d="M4.4375 5.46875C5.07608 5.46875 5.59375 4.95108 5.59375 4.3125C5.59375 3.67392 5.07608 3.15625 4.4375 3.15625C3.79892 3.15625 3.28125 3.67392 3.28125 4.3125C3.28125 4.95108 3.79892 5.46875 4.4375 5.46875Z" fill="white"/>
<path d="M7.625 6.0625V12.25V6.0625ZM4.4375 6.0625V12.25V6.0625Z" fill="white"/>
<path d="M7.625 6.0625V12.25M4.4375 6.0625V12.25" stroke="white" stroke-width="2.0625"/>
<path d="M8.625 8.8125C8.625 8.1875 9.03125 7.5625 9.75 7.5625C10.5 7.5625 10.7812 8.125 10.7812 8.96875V12.25H12.8438V8.71875C12.8438 6.8125 11.8438 5.9375 10.4688 5.9375C9.40625 5.9375 8.875 6.53125 8.625 6.9375" fill="white"/>
</g>
<defs>
<clipPath id="clip0_369_2567">
<rect width="16" height="16" fill="white"/>
</clipPath>
</defs>
</svg>
