<svg width="16" height="16" viewBox="0 0 16 16" fill="none" xmlns="http://www.w3.org/2000/svg">
<g clip-path="url(#clip0_369_2605)">
<path d="M2.17694 0L7.47 4.18944V4.18848V0.00966696H8.50035V4.20818L13.8171 0V4.77658H16V11.6663H13.8238V15.9197L8.50035 11.9018V15.9658H7.47V11.968L2.18294 15.9684V11.6663H0V4.77658H2.17694V0ZM6.69324 5.6509H1.03035V10.792H2.18165V9.17032L6.69324 5.6509ZM3.21324 9.55826V14.0174L7.47 10.7966V6.23683L3.21324 9.55826ZM8.53 10.754V6.23253L12.788 9.55417V11.6663H12.7935V13.9719L8.53 10.754ZM13.8238 10.792H14.9696V5.6509H9.34894L13.8238 9.13388V10.792ZM12.7868 4.77658V2.01113L9.29276 4.77658H12.7868ZM6.70124 4.77658H3.20729V2.01113L6.70124 4.77658Z" fill="#3F7E8B"/>
</g>
<defs>
<clipPath id="clip0_369_2605">
<rect width="16" height="16" fill="white"/>
</clipPath>
</defs>
</svg>
