<svg width="20" height="20" viewBox="0 0 20 20" fill="none" xmlns="http://www.w3.org/2000/svg">
<g clip-path="url(#clip0_656_1456)">
<path d="M6.25773 0.977038C5.94914 0.238756 5.14445 -0.151869 4.37883 0.0551627L4.16398 0.113756C1.64055 0.801256 -0.515704 3.24657 0.113202 6.22313C1.56242 13.0591 6.94133 18.438 13.7773 19.8872C16.7577 20.52 19.1991 18.3598 19.8866 15.8364L19.9452 15.6216C20.1562 14.852 19.7616 14.0473 19.0273 13.7427L15.2265 12.1606C14.582 11.8911 13.8359 12.0786 13.3905 12.6216L11.8827 14.4653C9.13664 13.102 6.9257 10.8208 5.65617 8.02001L7.38273 6.61376C7.9257 6.17235 8.1093 5.42626 7.84367 4.77782L6.25773 0.977038Z" fill="#717178"/>
</g>
<defs>
<clipPath id="clip0_656_1456">
<rect width="20" height="20" fill="white"/>
</clipPath>
</defs>
</svg>
