<svg width="16" height="16" viewBox="0 0 16 16" fill="none" xmlns="http://www.w3.org/2000/svg">
<path d="M1.5 1.85902V14.1403C1.50008 14.1669 1.50803 14.1929 1.52284 14.2151C1.53766 14.2372 1.55868 14.2545 1.58328 14.2648C1.60788 14.275 1.63495 14.2778 1.66111 14.2727C1.68726 14.2676 1.71134 14.2549 1.73031 14.2362L8.125 7.99995L1.73031 1.76308C1.71134 1.74437 1.68726 1.73168 1.66111 1.7266C1.63495 1.72152 1.60788 1.72428 1.58328 1.73452C1.55868 1.74477 1.53766 1.76205 1.52284 1.7842C1.50803 1.80634 1.50008 1.83237 1.5 1.85902Z" fill="white"/>
<path d="M10.8082 5.43759L2.79006 1.02009L2.78506 1.01728C2.64693 0.942281 2.51568 1.12916 2.62881 1.23791L8.91412 7.24791L10.8082 5.43759Z" fill="white"/>
<path d="M2.62917 14.7621C2.51542 14.8708 2.64667 15.0577 2.78542 14.9827L2.79042 14.9799L10.8079 10.5624L8.91386 8.75146L2.62917 14.7621Z" fill="white"/>
<path d="M14.0436 7.21897L11.8045 5.98584L9.69922 8.00022L11.8045 10.0137L14.0436 8.78147C14.6527 8.4449 14.6527 7.55553 14.0436 7.21897Z" fill="white"/>
</svg>
