<svg width="18" height="24" viewBox="0 0 18 24" fill="none" xmlns="http://www.w3.org/2000/svg">
<g clip-path="url(#clip0_1544_23494)">
<path d="M3 0C1.34531 0 0 1.34531 0 3V21C0 22.6547 1.34531 24 3 24H15C16.6547 24 18 22.6547 18 21V3C18 1.34531 16.6547 0 15 0H3ZM5.625 6H12.375C12.9984 6 13.5 6.50156 13.5 7.125C13.5 7.74844 12.9984 8.25 12.375 8.25H5.625C5.00156 8.25 4.5 7.74844 4.5 7.125C4.5 6.50156 5.00156 6 5.625 6ZM5.625 10.5H12.375C12.9984 10.5 13.5 11.0016 13.5 11.625C13.5 12.2484 12.9984 12.75 12.375 12.75H5.625C5.00156 12.75 4.5 12.2484 4.5 11.625C4.5 11.0016 5.00156 10.5 5.625 10.5ZM5.625 15H9.375C9.99844 15 10.5 15.5016 10.5 16.125C10.5 16.7484 9.99844 17.25 9.375 17.25H5.625C5.00156 17.25 4.5 16.7484 4.5 16.125C4.5 15.5016 5.00156 15 5.625 15Z" fill="black"/>
</g>
<defs>
<clipPath id="clip0_1544_23494">
<rect width="18" height="24" fill="white"/>
</clipPath>
</defs>
</svg>
