<svg width="14" height="14" viewBox="0 0 14 14" fill="none" xmlns="http://www.w3.org/2000/svg">
<g clip-path="url(#clip0_1544_24133)">
<path d="M10.0625 5.6875C10.0625 4.52718 9.60156 3.41438 8.78109 2.59391C7.96062 1.77344 6.84782 1.3125 5.6875 1.3125C4.52718 1.3125 3.41438 1.77344 2.59391 2.59391C1.77344 3.41438 1.3125 4.52718 1.3125 5.6875C1.3125 6.84782 1.77344 7.96062 2.59391 8.78109C3.41438 9.60156 4.52718 10.0625 5.6875 10.0625C6.84782 10.0625 7.96062 9.60156 8.78109 8.78109C9.60156 7.96062 10.0625 6.84782 10.0625 5.6875ZM9.21758 10.1473C8.24961 10.9156 7.02187 11.375 5.6875 11.375C2.5457 11.375 0 8.8293 0 5.6875C0 2.5457 2.5457 0 5.6875 0C8.8293 0 11.375 2.5457 11.375 5.6875C11.375 7.02187 10.9156 8.24961 10.1473 9.21758L13.8086 12.8789C14.0656 13.1359 14.0656 13.5516 13.8086 13.8059C13.5516 14.0602 13.1359 14.0629 12.8816 13.8059L9.21758 10.1473Z" fill="#717178"/>
</g>
<defs>
<clipPath id="clip0_1544_24133">
<rect width="14" height="14" fill="white"/>
</clipPath>
</defs>
</svg>
