<svg width="16" height="16" viewBox="0 0 16 16" fill="none" xmlns="http://www.w3.org/2000/svg">
<g clip-path="url(#clip0_2163_2027)">
<path d="M8.00392 0C8.14767 0 8.29142 0.03125 8.41955 0.090625L14.307 2.5875C14.9945 2.87813 15.507 3.55625 15.5039 4.375C15.4883 7.475 14.2133 13.1469 8.8258 15.725C8.30392 15.975 7.69767 15.975 7.17892 15.725C1.79142 13.1469 0.519545 7.47813 0.50392 4.375C0.500795 3.55625 1.0133 2.87813 1.7008 2.5875L7.58517 0.090625C7.7133 0.03125 7.85705 0 8.00392 0ZM10.8445 5.14375C10.5102 4.9 10.0414 4.975 9.79767 5.30937L7.12267 8.9875L6.29455 8.13125C6.00705 7.83438 5.53205 7.825 5.23517 8.1125C4.9383 8.4 4.92892 8.875 5.21642 9.17188L6.66642 10.6719C6.81955 10.8313 7.03517 10.9156 7.25705 10.9C7.47892 10.8844 7.68205 10.7719 7.8133 10.5938L11.0102 6.19063C11.2539 5.85625 11.1789 5.3875 10.8445 5.14375Z" fill="#717178"/>
</g>
<defs>
<clipPath id="clip0_2163_2027">
<rect width="16" height="16" fill="white"/>
</clipPath>
</defs>
</svg>
