<svg width="20" height="20" viewBox="0 0 20 20" fill="none" xmlns="http://www.w3.org/2000/svg">
<path d="M0 5C0 3.62109 1.12109 2.5 2.5 2.5H17.5C18.8789 2.5 20 3.62109 20 5V15C20 16.3789 18.8789 17.5 17.5 17.5H2.5C1.12109 17.5 0 16.3789 0 15V5ZM6.875 9.375C6.875 8.85547 6.45703 8.4375 5.9375 8.4375H2.8125C2.29297 8.4375 1.875 8.85547 1.875 9.375C1.875 9.89453 2.29297 10.3125 2.8125 10.3125H5.9375C6.45703 10.3125 6.875 9.89453 6.875 9.375ZM6.875 12.8125C6.875 12.293 6.45703 11.875 5.9375 11.875H2.8125C2.29297 11.875 1.875 12.293 1.875 12.8125C1.875 13.332 2.29297 13.75 2.8125 13.75H5.9375C6.45703 13.75 6.875 13.332 6.875 12.8125ZM8.75 15.625H17.5C17.8438 15.625 18.125 15.3438 18.125 15V5C18.125 4.65625 17.8438 4.375 17.5 4.375H8.75V15.625ZM6.875 5.9375C6.875 5.41797 6.45703 5 5.9375 5H2.8125C2.29297 5 1.875 5.41797 1.875 5.9375C1.875 6.45703 2.29297 6.875 2.8125 6.875H5.9375C6.45703 6.875 6.875 6.45703 6.875 5.9375Z" fill="#717178"/>
</svg>
