<svg width="24" height="24" viewBox="0 0 24 24" fill="none" xmlns="http://www.w3.org/2000/svg">
<g clip-path="url(#clip0_453_16539)">
<path d="M1.43796 3.38906C1.76139 2.26875 2.78796 1.5 3.95514 1.5H20.0801C21.2473 1.5 22.2739 2.26875 22.602 3.38906L23.6989 7.14844C24.2989 9.19688 22.7567 11.25 20.6239 11.25C19.3911 11.25 18.3083 10.5516 17.7739 9.51094C17.2301 10.5375 16.152 11.25 14.8958 11.25C13.6489 11.25 12.5661 10.5469 12.0223 9.51562C11.4786 10.5469 10.3958 11.25 9.14889 11.25C7.89264 11.25 6.81452 10.5422 6.27077 9.51094C5.73639 10.5469 4.65358 11.25 3.42077 11.25C1.28327 11.25 -0.254231 9.20156 0.345769 7.14844L1.43796 3.38906ZM4.51764 16.5H19.5176V13.3875C19.8739 13.4625 20.2442 13.5 20.6192 13.5C21.2895 13.5 21.9317 13.3781 22.5176 13.1625V20.25C22.5176 21.4922 21.5098 22.5 20.2676 22.5H3.76764C2.52546 22.5 1.51764 21.4922 1.51764 20.25V13.1625C2.10358 13.3781 2.74108 13.5 3.41608 13.5C3.79577 13.5 4.16139 13.4625 4.51764 13.3875V16.5Z" fill="black"/>
</g>
<defs>
<clipPath id="clip0_453_16539">
<rect width="24" height="24" fill="white"/>
</clipPath>
</defs>
</svg>
