<svg width="15" height="16" viewBox="0 0 15 16" fill="none" xmlns="http://www.w3.org/2000/svg">
<g clip-path="url(#clip0_369_2536)">
<path d="M10.4673 5.76147C11.4978 6.49774 12.7603 6.93094 14.1237 6.93094V4.30855C13.8657 4.30861 13.6083 4.28171 13.3559 4.22825V6.29245C11.9925 6.29245 10.7302 5.85924 9.69945 5.12303V10.4746C9.69945 13.1517 7.52812 15.3217 4.84981 15.3217C3.85047 15.3217 2.92162 15.0198 2.15002 14.5019C3.03067 15.4019 4.2588 15.9602 5.61751 15.9602C8.29599 15.9602 10.4674 13.7901 10.4674 11.1129V5.76147H10.4673ZM11.4146 3.1158C10.8879 2.54074 10.5421 1.79757 10.4673 0.975967V0.638672H9.73966C9.92282 1.68293 10.5476 2.57508 11.4146 3.1158ZM3.84406 12.4476C3.54982 12.062 3.39081 11.5902 3.39152 11.1052C3.39152 9.88082 4.38467 8.88805 5.60996 8.88805C5.83831 8.888 6.06529 8.92294 6.2829 8.99196V6.31096C6.02859 6.27612 5.77192 6.26133 5.51536 6.26676V8.35352C5.29758 8.2845 5.07049 8.24945 4.84209 8.24967C3.6168 8.24967 2.62371 9.24233 2.62371 10.4669C2.62371 11.3328 3.12012 12.0824 3.84406 12.4476Z" fill="#FF004F"/>
<path d="M9.69946 5.12298C10.7302 5.85919 11.9925 6.29239 13.3559 6.29239V4.2282C12.5948 4.06618 11.9211 3.66869 11.4146 3.1158C10.5475 2.57502 9.92283 1.68287 9.73966 0.638672H7.82829V11.1128C7.82396 12.3339 6.83251 13.3226 5.60985 13.3226C4.88936 13.3226 4.24928 12.9793 3.8439 12.4476C3.12001 12.0824 2.6236 11.3327 2.6236 10.467C2.6236 9.24249 3.6167 8.24972 4.84198 8.24972C5.07674 8.24972 5.30301 8.28626 5.51526 8.35357V6.26681C2.884 6.32115 0.767822 8.47002 0.767822 11.1128C0.767822 12.4321 1.2948 13.6281 2.15009 14.502C2.92168 15.0198 3.85053 15.3218 4.84987 15.3218C7.52824 15.3218 9.69952 13.1516 9.69952 10.4746L9.69946 5.12298Z" fill="black"/>
<path d="M13.3559 4.22791V3.66977C12.6696 3.67081 11.9968 3.47872 11.4146 3.11546C11.93 3.67946 12.6087 4.06836 13.3559 4.22791ZM9.73966 0.638385C9.72218 0.538588 9.70877 0.438133 9.69945 0.337295V0H7.06036V10.4742C7.05614 11.6951 6.06474 12.6838 4.84198 12.6838C4.48299 12.6838 4.14405 12.5987 3.84389 12.4473C4.24927 12.979 4.88936 13.3222 5.60985 13.3222C6.83239 13.3222 7.82401 12.3336 7.82828 11.1126V0.638385H9.73966ZM5.51536 6.26652V5.67234C5.29484 5.64222 5.07252 5.6271 4.84992 5.62721C2.17133 5.62721 0 7.79733 0 10.4742C0 12.1525 0.853371 13.6315 2.15013 14.5016C1.29485 13.6278 0.76787 12.4317 0.76787 11.1125C0.76787 8.46973 2.88399 6.32086 5.51536 6.26652Z" fill="#00F2EA"/>
</g>
<defs>
<clipPath id="clip0_369_2536">
<rect width="14.1241" height="16" fill="white"/>
</clipPath>
</defs>
</svg>
