<svg width="18" height="16" viewBox="0 0 18 16" fill="none" xmlns="http://www.w3.org/2000/svg">
<path d="M18 3C18 1.89688 17.1031 1 16 1H7C5.89688 1 5 1.89688 5 3V4H3.41562C2.88437 4 2.375 4.20937 2 4.58437L0.584375 6C0.209375 6.375 0 6.88438 0 7.41563V12C0 13.1031 0.896875 14 2 14H2.10312C2.42812 15.1531 3.49063 16 4.75 16C6.00937 16 7.06875 15.1531 7.39688 14H10.6031C10.9281 15.1531 11.9906 16 13.25 16C14.5094 16 15.5687 15.1531 15.8969 14H16C17.1031 14 18 13.1031 18 12V3ZM2 9V7.41563L3.41562 6H5V9H2ZM12 13.25C12 12.9185 12.1317 12.6005 12.3661 12.3661C12.6005 12.1317 12.9185 12 13.25 12C13.5815 12 13.8995 12.1317 14.1339 12.3661C14.3683 12.6005 14.5 12.9185 14.5 13.25C14.5 13.5815 14.3683 13.8995 14.1339 14.1339C13.8995 14.3683 13.5815 14.5 13.25 14.5C12.9185 14.5 12.6005 14.3683 12.3661 14.1339C12.1317 13.8995 12 13.5815 12 13.25ZM4.75 14.5C4.41848 14.5 4.10054 14.3683 3.86612 14.1339C3.6317 13.8995 3.5 13.5815 3.5 13.25C3.5 12.9185 3.6317 12.6005 3.86612 12.3661C4.10054 12.1317 4.41848 12 4.75 12C5.08152 12 5.39946 12.1317 5.63388 12.3661C5.8683 12.6005 6 12.9185 6 13.25C6 13.5815 5.8683 13.8995 5.63388 14.1339C5.39946 14.3683 5.08152 14.5 4.75 14.5Z" fill="#717178"/>
</svg>
