<svg width="12" height="12" viewBox="0 0 12 12" fill="none" xmlns="http://www.w3.org/2000/svg">
<g clip-path="url(#clip0_369_2631)">
<path d="M4.125 4.875C4.62228 4.875 5.09919 4.67746 5.45083 4.32583C5.80246 3.97419 6 3.49728 6 3C6 2.50272 5.80246 2.02581 5.45083 1.67417C5.09919 1.32254 4.62228 1.125 4.125 1.125C3.62772 1.125 3.15081 1.32254 2.79917 1.67417C2.44754 2.02581 2.25 2.50272 2.25 3C2.25 3.49728 2.44754 3.97419 2.79917 4.32583C3.15081 4.67746 3.62772 4.875 4.125 4.875ZM4.125 0C4.92065 0 5.68371 0.316071 6.24632 0.87868C6.80893 1.44129 7.125 2.20435 7.125 3C7.125 3.79565 6.80893 4.55871 6.24632 5.12132C5.68371 5.68393 4.92065 6 4.125 6C3.32935 6 2.56629 5.68393 2.00368 5.12132C1.44107 4.55871 1.125 3.79565 1.125 3C1.125 2.20435 1.44107 1.44129 2.00368 0.87868C2.56629 0.316071 3.32935 0 4.125 0ZM3.375 8.25C1.71797 8.25 0.375 9.59297 0.375 11.25V11.4375C0.375 11.7492 0.124219 12 -0.1875 12C-0.499219 12 -0.75 11.7492 -0.75 11.4375V11.25C-0.75 8.97188 1.09688 7.125 3.375 7.125H4.875C7.15312 7.125 9 8.97188 9 11.25V11.4375C9 11.7492 8.74922 12 8.4375 12C8.12578 12 7.875 11.7492 7.875 11.4375V11.25C7.875 9.59297 6.53203 8.25 4.875 8.25H3.375ZM7.29609 5.63906C7.53516 5.35078 7.73672 5.02969 7.89141 4.68516C8.10703 4.80703 8.35781 4.87734 8.625 4.87734C9.45234 4.87734 10.125 4.20469 10.125 3.37734C10.125 2.55 9.45234 1.87734 8.625 1.87734C8.44687 1.87734 8.27578 1.90781 8.11875 1.96406C8.02266 1.59375 7.87734 1.24453 7.68984 0.923438C7.98047 0.813281 8.29688 0.752344 8.625 0.752344C10.0758 0.752344 11.25 1.92656 11.25 3.37734C11.25 4.82812 10.0758 6 8.625 6C8.13984 6 7.68516 5.86875 7.29609 5.63906ZM9.46641 8.70234C9.22031 8.25937 8.91094 7.85391 8.55 7.5H8.8125C10.9875 7.5 12.75 9.2625 12.75 11.4375C12.75 11.7492 12.4992 12 12.1875 12C11.8758 12 11.625 11.7492 11.625 11.4375C11.625 10.1086 10.7039 8.99531 9.46641 8.70234Z" fill="#71717B"/>
</g>
<defs>
<clipPath id="clip0_369_2631">
<rect width="12" height="12" fill="white"/>
</clipPath>
</defs>
</svg>
