<svg width="11" height="12" viewBox="0 0 11 12" fill="none" xmlns="http://www.w3.org/2000/svg">
<g clip-path="url(#clip0_369_2626)">
<path d="M3.375 3C3.375 2.50272 3.57254 2.02581 3.92417 1.67417C4.27581 1.32254 4.75272 1.125 5.25 1.125C5.74728 1.125 6.22419 1.32254 6.57583 1.67417C6.92746 2.02581 7.125 2.50272 7.125 3C7.125 3.49728 6.92746 3.97419 6.57583 4.32583C6.22419 4.67746 5.74728 4.875 5.25 4.875C4.75272 4.875 4.27581 4.67746 3.92417 4.32583C3.57254 3.97419 3.375 3.49728 3.375 3ZM8.25 3C8.25 2.20435 7.93393 1.44129 7.37132 0.87868C6.80871 0.316071 6.04565 0 5.25 0C4.45435 0 3.69129 0.316071 3.12868 0.87868C2.56607 1.44129 2.25 2.20435 2.25 3C2.25 3.79565 2.56607 4.55871 3.12868 5.12132C3.69129 5.68393 4.45435 6 5.25 6C6.04565 6 6.80871 5.68393 7.37132 5.12132C7.93393 4.55871 8.25 3.79565 8.25 3ZM1.125 11.25C1.125 9.59297 2.46797 8.25 4.125 8.25H6.375C8.03203 8.25 9.375 9.59297 9.375 11.25V11.4375C9.375 11.7492 9.62578 12 9.9375 12C10.2492 12 10.5 11.7492 10.5 11.4375V11.25C10.5 8.97188 8.65312 7.125 6.375 7.125H4.125C1.84688 7.125 0 8.97188 0 11.25V11.4375C0 11.7492 0.250781 12 0.5625 12C0.874219 12 1.125 11.7492 1.125 11.4375V11.25Z" fill="#71717B"/>
</g>
<defs>
<clipPath id="clip0_369_2626">
<rect width="10.5" height="12" fill="white"/>
</clipPath>
</defs>
</svg>
