<svg width="16" height="16" viewBox="0 0 16 16" fill="none" xmlns="http://www.w3.org/2000/svg">
<g clip-path="url(#clip0_369_2561)">
<path d="M0 0H16V16H0" fill="white"/>
<path d="M9.78128 8.00015L6.87503 6.3439V9.6564L9.78128 8.00015ZM13.3438 5.2814C13.625 6.43765 13.625 9.5939 13.3438 10.7189C13.2188 11.1877 12.8125 11.5627 12.3438 11.6877C11.1875 12.0002 4.78128 12.0002 3.65628 11.6877C3.18753 11.5627 2.78128 11.1877 2.65628 10.7189C2.34378 9.50015 2.37503 6.4689 2.65628 5.2814C2.78128 4.81265 3.18753 4.43765 3.65628 4.31265C4.87503 4.00015 11.2813 4.0314 12.3438 4.31265C12.8125 4.43765 13.2188 4.81265 13.3438 5.2814Z" fill="#ED1D24"/>
</g>
<defs>
<clipPath id="clip0_369_2561">
<rect width="16" height="16" fill="white"/>
</clipPath>
</defs>
</svg>
