<svg width="93" height="24" viewBox="0 0 93 24" fill="none" xmlns="http://www.w3.org/2000/svg">
<g clip-path="url(#clip0_2176_89592)">
<path d="M55.064 4.28911C54.8715 3.87231 54.583 3.55186 54.0703 3.42351V3.19922C54.3907 3.19922 55.4166 3.2312 55.6731 3.2312C55.8976 3.2312 56.8274 3.19922 57.1479 3.19922V3.45549C56.8594 3.51966 56.5389 3.68 56.5389 3.96846C56.5389 4.19296 56.6671 4.44944 56.9235 4.99439L59.2315 10.2196L61.4113 4.99439C61.5716 4.57758 61.6998 4.25713 61.6998 4.00065C61.6998 3.71219 61.4435 3.51967 61.0908 3.4557V3.19942C61.3793 3.19942 62.0844 3.23141 62.3089 3.23141C62.5014 3.23141 63.3348 3.19942 63.6552 3.19942V3.4557C63.1103 3.61603 62.7897 3.9045 62.469 4.60977L59.2635 12.1431H58.5904L55.064 4.28911Z" fill="#6F6F6F"/>
<path d="M24.0979 11.8219C24.5147 11.7257 24.8032 11.5334 24.8032 11.0524V4.19223C24.8032 3.74344 24.5147 3.55113 24.0979 3.42278V3.16651C24.3224 3.16651 25.2519 3.19849 25.4765 3.19849C25.733 3.19849 26.7266 3.16651 26.951 3.16651V3.42278C26.5342 3.51894 26.2137 3.71125 26.2137 4.19223V7.07729H31.343V4.19223C31.343 3.71145 31.0865 3.51894 30.6377 3.42278V3.16651C30.8621 3.16651 31.8237 3.19849 32.1124 3.19849C32.3367 3.19849 33.2984 3.16651 33.5229 3.16651V3.42278C33.1061 3.51894 32.7857 3.71125 32.7857 4.19223V11.0845C32.7857 11.5332 33.0741 11.7257 33.5229 11.8539V12.0784C33.2987 12.0784 32.3369 12.0464 32.1124 12.0464C31.8559 12.0464 30.8621 12.0784 30.6377 12.0784V11.8539C31.0543 11.7577 31.343 11.5654 31.343 11.0845V7.81455H26.2135V11.0845C26.2135 11.5652 26.5019 11.7257 26.9507 11.8539V12.0784C26.7263 12.0784 25.7325 12.0464 25.4762 12.0464C25.2518 12.0464 24.2902 12.0784 24.0977 12.0784L24.0979 11.8219ZM34.9331 11.8219C35.478 11.6935 35.7986 11.3409 36.023 10.8282L38.876 3.99992C39.0042 3.71146 39.1325 3.13432 39.1325 3.13432H39.934C39.934 3.13432 40.0623 3.71125 40.1904 3.99992L43.2038 10.8601C43.4283 11.3409 43.6526 11.6616 44.2618 11.8219V12.0462C43.9411 12.0462 42.9154 12.0142 42.6909 12.0142C42.4664 12.0142 41.5049 12.0462 41.1842 12.0462V11.8219C41.633 11.7257 41.7613 11.5012 41.7613 11.2769C41.7613 11.0846 41.6972 10.8923 41.601 10.6678L40.9599 9.2253H37.6258L37.0489 10.6998C36.9847 10.8601 36.8885 11.1166 36.8885 11.2768C36.8885 11.5332 37.0169 11.7257 37.5299 11.8539V12.0784C37.2412 12.0784 36.472 12.0464 36.2797 12.0464L34.9974 12.0784L34.9331 11.8219ZM40.6073 8.52L39.1967 5.21815L37.8823 8.52H40.6073ZM34.9331 11.8219C35.478 11.6935 35.7986 11.3409 36.023 10.8282L38.876 3.99992C39.0042 3.71146 39.1325 3.13432 39.1325 3.13432H39.934C39.934 3.13432 40.0623 3.71125 40.1904 3.99992L43.2038 10.8601C43.4283 11.3409 43.6526 11.6616 44.2618 11.8219V12.0462C43.9411 12.0462 42.9154 12.0142 42.6909 12.0142C42.4664 12.0142 41.5049 12.0462 41.1842 12.0462V11.8219C41.633 11.7257 41.7613 11.5012 41.7613 11.2769C41.7613 11.0846 41.6972 10.8923 41.601 10.6678L40.9599 9.2253H37.6258L37.0489 10.6998C36.9847 10.8601 36.8885 11.1166 36.8885 11.2768C36.8885 11.5332 37.0169 11.7257 37.5299 11.8539V12.0784C37.2412 12.0784 36.472 12.0464 36.2797 12.0464L34.9974 12.0784L34.9331 11.8219ZM40.6073 8.52L39.1967 5.21815L37.8823 8.52H40.6073ZM63.111 11.8219C63.656 11.6935 63.9767 11.3409 64.169 10.8282L67.022 3.99992C67.1504 3.71146 67.2783 3.13432 67.2783 3.13432H68.0799C68.0799 3.13432 68.2083 3.71125 68.3362 3.99992L71.3496 10.8601C71.5739 11.3409 71.7984 11.6616 72.4075 11.8219V12.0462C72.0869 12.0462 71.0612 12.0142 70.8367 12.0142C70.6124 12.0142 69.6506 12.0462 69.3302 12.0462V11.8219C69.779 11.7257 69.9071 11.5012 69.9071 11.2769C69.9071 11.0846 69.8431 10.8923 69.7469 10.6678L69.1057 9.2253H65.7718L65.1947 10.6998C65.1307 10.8601 65.0345 11.1166 65.0345 11.2768C65.0345 11.5332 65.1629 11.7257 65.6437 11.8539V12.0784C65.355 12.0784 64.5857 12.0464 64.4254 12.0464L63.111 12.0784V11.8219ZM68.7532 8.52L67.3427 5.21815L66.0285 8.52H68.7532ZM83.6278 11.8219C84.1723 11.7257 84.4611 11.5012 84.4611 11.0205V4.19243C84.4611 3.71166 84.1724 3.51915 83.6594 3.42299V3.16672C83.9481 3.16672 84.9419 3.19869 85.1984 3.19869C85.6469 3.19869 86.8648 3.10254 87.7948 3.10254C90.9688 3.10254 92.8596 4.86573 92.8596 7.5585C92.8596 10.1551 90.8721 12.1105 87.6029 12.1105C86.6729 12.1105 85.5186 12.0464 85.1016 12.0464C84.8459 12.0464 83.9159 12.0784 83.6271 12.0784L83.6278 11.8219ZM85.9034 11.3731C86.2244 11.437 86.8334 11.4693 87.2819 11.4693C89.9429 11.4693 91.3214 9.8664 91.3214 7.65442C91.3214 5.34629 89.8791 3.71145 87.3786 3.71145C86.8656 3.71145 86.2243 3.74344 85.9041 3.80761L85.9034 11.3731Z" fill="#6F6F6F"/>
<path d="M47.7894 11.0207C47.7894 11.4697 48.0781 11.726 48.623 11.8543V12.1108C48.3344 12.1108 47.3725 12.0788 47.0841 12.0788C46.8598 12.0788 45.8981 12.1108 45.6094 12.1108V11.8543C46.0904 11.7582 46.4108 11.5017 46.4108 11.0207V4.19268C46.4108 3.77587 46.1863 3.51939 45.6094 3.42324V3.16696C45.8981 3.16696 46.8276 3.19894 47.116 3.19894C47.5648 3.19894 48.7829 3.13477 49.2639 3.13477C51.3797 3.13477 52.5658 4.00037 52.5658 5.50687C52.5658 6.69292 51.6684 7.49434 50.3218 7.81498C50.3218 7.81498 50.6425 8.00728 50.9309 8.35993C51.3155 8.80873 52.3735 10.2832 52.7902 10.7962C53.2071 11.3092 53.752 11.8864 54.3289 11.9183V12.1108C54.0405 12.1748 53.6237 12.207 53.2712 12.207C52.534 12.207 51.9568 11.9505 51.4119 11.2772C50.9309 10.7003 50.0655 9.45005 49.5526 8.80895C49.2321 8.42435 48.8794 8.10365 48.174 8.0075C48.0458 7.97555 47.9177 7.97555 47.7574 7.94353V11.0209L47.7894 11.0207ZM47.7894 7.3984C48.078 7.43038 48.4946 7.46236 48.9115 7.46236C50.5785 7.46236 51.0912 6.50061 51.0912 5.66719C51.0912 4.48114 50.2898 3.7117 48.8473 3.7117C48.5588 3.7117 48.11 3.74368 47.8216 3.80785V7.39819L47.7894 7.3984Z" fill="#6F6F6F"/>
<path d="M75.8053 11.0207C75.8053 11.4697 76.0933 11.726 76.6386 11.8543V12.1108C76.3498 12.1108 75.3883 12.0788 75.0996 12.0788C74.8752 12.0788 73.9135 12.1108 73.625 12.1108V11.8543C74.106 11.7582 74.4264 11.5017 74.4264 11.0207V4.19268C74.4264 3.77587 74.2021 3.51939 73.6572 3.42324V3.16696C73.9456 3.16696 74.8752 3.19894 75.1633 3.19894C75.6126 3.19894 76.8306 3.13477 77.3113 3.13477C79.4271 3.13477 80.6136 4.00037 80.6136 5.50687C80.6136 6.69292 79.7158 7.49434 78.3696 7.81498C78.3696 7.81498 78.6898 8.00728 78.9786 8.35993C79.3633 8.80873 80.3893 10.2832 80.8056 10.7962C81.2226 11.3092 81.7678 11.8864 82.3446 11.9183V12.1108C82.0558 12.1748 81.6396 12.207 81.2871 12.207C80.5498 12.207 79.9723 11.9505 79.4278 11.2772C78.9471 10.7003 78.1131 9.45005 77.6323 8.80895C77.3121 8.42435 76.9596 8.10365 76.2538 8.0075C76.1256 7.97555 75.9973 7.97555 75.8368 7.94353V11.0209L75.8053 11.0207ZM75.8053 7.3984C76.0933 7.43038 76.5103 7.46236 76.9266 7.46236C78.5938 7.46236 79.1068 6.50061 79.1068 5.66719C79.1068 4.48114 78.3051 3.7117 76.8628 3.7117C76.5741 3.7117 76.1256 3.74368 75.8368 3.80785V7.39819L75.8053 7.3984Z" fill="#6F6F6F"/>
<path d="M61.8281 19.7069H61.9565C62.0207 19.9634 62.1808 20.1879 62.3733 20.348C62.5976 20.5084 62.9183 20.5723 63.2067 20.5723C63.8159 20.5723 64.2005 20.2839 64.2005 19.8029C64.2005 19.3221 63.7197 19.0976 63.1425 18.8092C62.6938 18.5848 61.8281 18.2642 61.8281 17.3986C61.8281 16.6291 62.4373 16.1162 63.3671 16.1162C63.976 16.1162 64.2966 16.2765 64.7132 16.2443V17.1739H64.5531C64.3928 16.6289 63.88 16.4366 63.335 16.4366C62.726 16.4366 62.4692 16.7893 62.4692 17.1419C62.4692 17.6547 63.0464 17.9434 63.5594 18.1999C64.2007 18.4883 64.8737 18.8089 64.8737 19.6104C64.8737 20.3796 64.2966 20.8926 63.2067 20.8926C62.5654 20.8926 62.1808 20.7322 61.8281 20.6681V19.7069Z" fill="#6F6F6F"/>
<path d="M71.5117 20.6688C71.736 20.6048 71.8644 20.5085 71.8644 20.2842V16.7258C71.8644 16.5013 71.736 16.4054 71.5117 16.3412V16.2129C71.6079 16.2129 72.1209 16.2448 72.249 16.2448C72.3774 16.2448 72.8903 16.2129 73.0182 16.2129V16.3412C72.7939 16.4054 72.6336 16.5016 72.6336 16.7258V18.2005H75.2621V16.7258C75.2621 16.4693 75.1338 16.3732 74.9096 16.3412V16.2129C75.0378 16.2129 75.5186 16.2448 75.6791 16.2448C75.8073 16.2448 76.2873 16.2129 76.4163 16.2129V16.3412C76.1921 16.4054 76.0316 16.5016 76.0316 16.7258V20.2842C76.0316 20.5087 76.1921 20.6048 76.4163 20.6688V20.797C76.3203 20.797 75.8073 20.797 75.6791 20.797C75.5508 20.797 75.0378 20.797 74.9096 20.797V20.6688C75.1338 20.6048 75.2621 20.5085 75.2621 20.2842V18.5851H72.6336V20.252C72.6336 20.5085 72.7939 20.5726 73.0182 20.6366V20.7649C72.9223 20.7649 72.3771 20.7649 72.249 20.7649C72.1209 20.7649 71.6401 20.7649 71.5117 20.7649V20.6688Z" fill="#6F6F6F"/>
<path d="M70.2261 19.6426L70.1619 20.6683C69.809 20.6363 69.3285 20.8928 68.5271 20.8928C66.828 20.8928 66.0586 19.867 66.0586 18.5205C66.0586 17.11 67.0523 16.1162 68.4951 16.1162C69.2003 16.1162 69.6491 16.3726 70.0979 16.3405L70.13 17.3662H70.0016C69.7453 16.7571 69.136 16.4686 68.4951 16.4686C67.4372 16.4686 66.86 17.3984 66.86 18.5203C66.86 19.45 67.3091 20.572 68.5913 20.572C69.2965 20.572 69.8414 20.3155 70.0658 19.6423L70.2261 19.6426Z" fill="#6F6F6F"/>
<path d="M77.5391 18.5205C77.5391 17.2061 78.4691 16.1162 79.9113 16.1162C81.3536 16.1162 82.2836 17.2061 82.2836 18.5205C82.2836 19.8349 81.3536 20.8928 79.9113 20.8928C78.4368 20.8928 77.5391 19.8349 77.5391 18.5205ZM81.4496 18.5205C81.4496 17.4625 80.9688 16.4368 79.9113 16.4368C78.8208 16.4368 78.3401 17.4306 78.3401 18.5205C78.3401 19.5784 78.8208 20.5721 79.9113 20.5721C80.9688 20.5721 81.4496 19.5784 81.4496 18.5205Z" fill="#6F6F6F"/>
<path d="M83.3086 18.5205C83.3086 17.2061 84.2378 16.1162 85.6801 16.1162C87.1231 16.1162 88.0523 17.2061 88.0523 18.5205C88.0523 19.8349 87.1231 20.8928 85.6801 20.8928C84.2056 20.8928 83.3086 19.8349 83.3086 18.5205ZM87.2191 18.5205C87.2191 17.4625 86.7383 16.4368 85.6801 16.4368C84.5903 16.4368 84.1096 17.4306 84.1096 18.5205C84.1096 19.5784 84.5903 20.5721 85.6801 20.5721C86.7383 20.5721 87.2191 19.5784 87.2191 18.5205Z" fill="#6F6F6F"/>
<path d="M31.2792 16.2124H34.1643C34.2604 16.2124 34.4208 16.2124 34.4848 16.1484H34.6129L34.5809 17.0782H34.4527C34.3566 16.7898 34.1962 16.5653 33.6193 16.5653H32.4011V18.2321C32.4011 18.2321 33.3307 18.2321 33.3949 18.2321C33.523 18.2321 33.7153 18.2321 33.7795 18.2001C34.0039 18.1681 34.0999 18.0398 34.1321 17.8475H34.2602C34.2602 17.9756 34.2602 18.2963 34.2602 18.3924C34.2602 18.4886 34.2602 18.8092 34.2602 18.9696H34.1321C34.0679 18.777 33.9718 18.6489 33.7795 18.585C33.7153 18.5529 33.523 18.5529 33.3949 18.5529C33.3307 18.5529 32.4011 18.5529 32.4011 18.5529V20.4123H33.7795C34.3564 20.4123 34.5489 20.1558 34.6771 19.8034L34.8052 19.8354L34.6771 20.7969C34.2283 20.7649 33.9718 20.7649 33.491 20.7649H32.0163C31.8881 20.7649 31.3752 20.7969 31.2148 20.7969V20.6688C31.4713 20.6048 31.6316 20.5084 31.6316 20.252V16.7256C31.6316 16.5011 31.5035 16.373 31.2148 16.3088V16.2126L31.2792 16.2124Z" fill="#6F6F6F"/>
<path d="M42.3074 16.7581C42.3074 16.5335 42.1793 16.4054 41.8906 16.3412V16.2129C42.051 16.2129 42.5637 16.2448 42.6921 16.2448C42.8204 16.2448 43.3332 16.2129 43.4935 16.2129V16.3412C43.2048 16.4054 43.0767 16.5016 43.0767 16.7581V20.2522C43.0767 20.4767 43.2048 20.6049 43.4935 20.669V20.7972C43.3332 20.7972 42.8523 20.7652 42.6921 20.7652C42.5639 20.7652 42.051 20.7972 41.8906 20.7972V20.669C42.1791 20.605 42.3074 20.5087 42.3074 20.2522V16.7581Z" fill="#6F6F6F"/>
<path d="M49.3906 20.6688C49.6791 20.6048 49.8394 20.4123 49.9353 20.1558L51.4101 16.6295C51.4743 16.4691 51.5384 16.1807 51.5384 16.1807H51.9552C51.9552 16.1807 52.0194 16.4691 52.0833 16.6295L53.6223 20.1558C53.7184 20.4123 53.8466 20.5727 54.1672 20.6688V20.7969C54.0069 20.7969 53.4619 20.7969 53.3656 20.7969C53.2374 20.7969 52.7567 20.7969 52.5963 20.7969V20.6688C52.8208 20.6048 52.885 20.5085 52.885 20.3803C52.885 20.2841 52.853 20.188 52.7889 20.0599L52.4684 19.3226H50.7694L50.4807 20.0918C50.4489 20.188 50.4165 20.3164 50.4165 20.3803C50.4165 20.5087 50.4807 20.6048 50.7372 20.6688V20.7969C50.5769 20.7969 50.1923 20.7969 50.0959 20.7969H49.4228L49.3906 20.6688ZM52.3398 18.9378L51.6026 17.2388L50.9293 18.9378H52.3398Z" fill="#6F6F6F"/>
<path d="M48.7807 19.6426L48.7165 20.6683C48.364 20.6363 47.8831 20.8928 47.0818 20.8928C45.3827 20.8928 44.6133 19.867 44.6133 18.5205C44.6133 17.11 45.607 16.1162 47.0495 16.1162C47.755 16.1162 48.2038 16.3726 48.6524 16.3405L48.6846 17.3662H48.5563C48.3 16.7571 47.6906 16.4686 47.0495 16.4686C45.9916 16.4686 45.4147 17.3984 45.4147 18.5203C45.4147 19.45 45.8635 20.572 47.1457 20.572C47.851 20.572 48.3959 20.3155 48.6204 19.6423L48.7807 19.6426Z" fill="#6F6F6F"/>
<path d="M58.5254 19.8356C58.3651 20.1883 58.2049 20.4448 57.6278 20.4448H56.2173V16.7581C56.2173 16.5016 56.3456 16.4054 56.6341 16.3412V16.2129C56.4738 16.2129 55.961 16.2448 55.8327 16.2448C55.7044 16.2448 55.1914 16.2129 55.0312 16.2129V16.3412C55.3197 16.4054 55.4481 16.5335 55.4481 16.7581V20.2522C55.4481 20.5087 55.3197 20.6368 55.0312 20.669V20.7972C55.1914 20.7972 55.7044 20.7652 55.8327 20.7652H57.3074C57.7882 20.7652 58.0766 20.7652 58.4935 20.7972L58.6218 19.8356H58.5254Z" fill="#6F6F6F"/>
<path d="M92.5714 19.8356C92.4116 20.1883 92.2511 20.4448 91.6744 20.4448H90.2959V16.7581C90.2959 16.5016 90.4241 16.4054 90.7129 16.3412V16.2129C90.5524 16.2129 90.0394 16.2448 89.9111 16.2448C89.7829 16.2448 89.2699 16.2129 89.1094 16.2129V16.3412C89.3981 16.4054 89.5264 16.5335 89.5264 16.7581V20.2522C89.5264 20.5087 89.3981 20.6368 89.1094 20.669V20.7972C89.2699 20.7972 89.7829 20.7652 89.9111 20.7652H91.3856C91.8664 20.7652 92.1551 20.7652 92.5714 20.7972L92.7004 19.8356H92.5714Z" fill="#6F6F6F"/>
<path d="M36.0859 20.6688C36.3745 20.6048 36.5028 20.5085 36.5028 20.252V16.7256C36.5028 16.4691 36.3424 16.373 36.0859 16.341V16.2126C36.2463 16.2126 36.7591 16.2446 36.8874 16.2446C37.1119 16.2446 37.7208 16.1807 38.2018 16.1807C39.8366 16.1807 40.8304 17.0783 40.8304 18.4888C40.8304 19.8352 39.8044 20.8291 38.1376 20.8291C37.6568 20.8291 37.1119 20.7969 36.8874 20.7969C36.7593 20.7969 36.2785 20.8291 36.118 20.8291V20.6688H36.0859ZM37.24 20.4445C37.4004 20.4765 37.6888 20.4765 37.9133 20.4765C39.2917 20.4765 39.997 19.7072 39.997 18.489C39.997 17.303 39.2597 16.4693 37.9773 16.4693C37.7208 16.4693 37.4323 16.5013 37.24 16.5335V20.4445Z" fill="#6F6F6F"/>
<path d="M29.579 20.1561L29.3545 16.7581C29.3225 16.5335 29.4507 16.4054 29.7071 16.3412V16.2129C29.5148 16.2129 29.2264 16.2129 29.098 16.2129C29.0019 16.2129 28.7773 16.2129 28.6171 16.2129L27.1103 19.7392L25.6036 16.2129C25.4433 16.2129 25.219 16.2129 25.0906 16.2129C24.9945 16.2129 24.6418 16.2129 24.4495 16.2129V16.3412C24.706 16.3732 24.8342 16.5335 24.8342 16.7581L24.5777 20.1561C24.5457 20.4126 24.4174 20.6049 24.1289 20.701V20.8294H24.77C24.8662 20.8294 25.2508 20.8294 25.4111 20.8294V20.701C25.0905 20.6049 25.0265 20.4448 25.0265 20.2202L25.2188 17.2069L26.7897 20.8294H27.0462L28.6168 17.2069L28.8091 20.2522C28.8091 20.4448 28.7449 20.6368 28.4245 20.733V20.8612C28.5848 20.8612 29.1298 20.8612 29.2259 20.8612H30.0274V20.733C29.7393 20.605 29.611 20.4448 29.579 20.1561Z" fill="#6F6F6F"/>
<path d="M10.1865 0.47168H0.633547L0.601562 8.10116C0.601562 17.4618 9.99424 23.4243 10.0904 23.4885L10.1223 23.5204C10.1544 23.5204 10.2185 23.4885 10.2185 23.4885C11.8214 22.4305 19.7715 16.7886 19.7715 8.16528V0.503664C19.7395 0.471681 10.1865 0.47168 10.1865 0.47168ZM19.7075 7.23575H0.794079V6.14586H19.7075V7.23575Z" fill="#6F6F6F"/>
<path d="M3.83683 1.40168C4.47794 1.1452 5.18322 1.33751 5.88849 1.27334C6.0808 1.30532 6.33728 1.17719 6.46563 1.36949C6.46563 1.5618 6.46563 1.75412 6.46563 1.97861C6.5298 2.13894 6.75408 2.04278 6.85024 2.10696C6.91441 2.13894 6.97838 2.17093 7.01057 2.26729C7.04256 2.36345 7.01057 2.4596 6.97858 2.55575C6.85044 2.68389 6.69012 2.6519 6.49781 2.68389L6.43364 2.74806C6.46563 3.13268 6.36947 3.45333 6.43364 3.80597C6.43364 3.86993 6.40145 3.99828 6.49781 4.03047C6.69012 4.03047 6.85044 4.03047 6.97858 4.15861C7.04276 4.25477 7.04276 4.35092 7.01057 4.47926C6.9464 4.86389 6.33728 4.41509 6.40145 4.86388C6.40145 5.02421 6.43364 5.24851 6.36946 5.40884C5.66419 5.40884 4.95891 5.34466 4.31781 5.40884C4.18968 5.50499 4.06134 5.56916 3.86902 5.60114C3.74088 5.56916 3.61254 5.50499 3.51639 5.40884C2.87529 5.37685 2.26617 5.37685 1.65705 5.37685C1.46474 5.21652 1.59288 4.92806 1.52891 4.70356C1.43275 4.57542 1.27242 4.67158 1.14429 4.6074C1.04813 4.6074 1.01615 4.51124 0.98396 4.44707C0.98396 4.31873 0.98396 4.1906 1.08012 4.09444C1.17627 4.03047 1.33659 4.03047 1.46473 4.03047L1.52891 3.9663C1.49692 3.54949 1.59308 3.13289 1.49692 2.68409C1.43275 2.58794 1.30461 2.68409 1.24044 2.61992C1.14429 2.58794 1.01595 2.52377 0.98396 2.39563C0.95198 2.29947 0.95198 2.20332 1.04813 2.10716C1.17627 1.94684 1.43275 2.13914 1.56109 1.97882L1.62527 1.3697C1.72143 1.17739 1.94592 1.27355 2.13823 1.27355C2.45888 1.20958 2.84351 1.27355 3.16396 1.27355C3.42003 1.27355 3.64453 1.33772 3.83683 1.40168Z" fill="#6F6F6F"/>
<path d="M4.70133 8.10352L4.66934 8.23169C4.66934 8.29582 4.60517 8.36002 4.54121 8.32784L4.28472 8.29581C4.18857 8.26386 4.09241 8.23169 3.99626 8.26387C3.96428 8.29582 3.90011 8.32799 3.83594 8.39197C3.86792 8.39197 3.86792 8.42414 3.86792 8.42414C3.93209 8.45617 4.06023 8.48812 4.09241 8.64847C4.09241 8.77664 4.15659 8.87294 4.22055 8.93692L4.25254 9.00112C4.28453 9.03307 4.28452 9.06524 4.28452 9.09727C4.28452 9.12922 4.28453 9.12922 4.25254 9.16147L4.1244 9.32174L4.06022 9.38572C4.06022 9.38572 3.99605 9.54607 3.96407 9.61004C3.99605 9.67417 4.02824 9.70619 4.06022 9.70619C4.18836 9.67417 4.28472 9.70619 4.38088 9.70619L4.57319 9.73814H4.60518H4.66934C4.73352 9.73814 4.86166 9.70619 4.95782 9.77017C4.95782 9.77017 5.05397 9.93044 5.05397 9.96269C5.08595 10.0266 5.08595 10.0588 5.08595 10.123C5.08595 10.1872 5.08595 10.2511 5.05397 10.3153L5.02199 10.4114C5.02199 10.4434 5.02198 10.4756 4.99 10.4756C4.82967 10.7321 4.60538 10.9244 4.31671 11.0525C4.34869 11.0525 4.3487 11.0525 4.3487 11.0525C4.3487 11.0525 4.3487 11.0525 4.3487 11.0845C4.38068 11.1165 4.47683 11.1165 4.57298 11.0845H4.63715C4.76529 11.0845 4.86165 11.0525 4.98979 10.9884L5.34243 10.8922C5.4066 10.8602 5.43859 10.9242 5.47057 10.9564C5.53474 11.0845 5.6309 11.1807 5.69486 11.2449C5.69486 11.2449 5.69486 11.2449 5.75903 11.1807C5.82321 11.1167 5.95135 11.0203 6.11168 11.0845C6.11168 11.0845 6.14366 11.0845 6.14366 11.1165C6.27179 11.2126 6.30399 11.341 6.33597 11.437C6.36795 11.5012 6.36795 11.5973 6.43212 11.6295C6.4641 11.6614 6.4641 11.6935 6.4641 11.6935V11.7256C6.4641 11.8537 6.33597 11.9179 6.30378 11.9179H6.27179L6.23981 11.95L5.95134 12.0141C5.85519 12.0141 5.75903 12.0461 5.69486 12.0783C5.69486 12.0783 5.69486 12.1102 5.72684 12.1102C5.85498 12.1742 6.0475 12.2064 6.23981 12.2384L6.33597 12.2704H6.56047H6.94508C7.00926 12.2704 7.00926 12.3024 7.04124 12.3346C7.07343 12.3665 7.04124 12.4307 7.00925 12.4627L6.94508 12.5588L6.91311 12.5911L6.30398 13.0078C6.272 13.0078 5.95134 13.136 5.95134 13.136L5.47057 13.3283H5.43839C5.14992 13.3924 4.98959 13.2322 4.82927 13.136C4.73311 13.0398 4.63695 12.9757 4.50861 12.9757C4.41245 12.9757 4.3163 13.0076 4.25213 13.0718C4.22015 13.1038 4.22014 13.1359 4.22014 13.1999C4.22014 13.2322 4.22014 13.2322 4.22014 13.2641H4.25213C4.3163 13.2961 4.44443 13.3283 4.44443 13.4886C4.44443 13.7129 4.34828 13.8733 4.25213 14.0335C4.18796 14.1617 4.0918 14.3221 4.0918 14.4504V14.4823C4.0918 14.5145 4.0918 14.5465 4.12378 14.5465H4.15597H4.18796L4.21994 14.4823C4.25192 14.4184 4.31609 14.3221 4.44423 14.29H4.47642C4.7329 14.3221 4.86104 14.29 4.95719 14.1939C4.98918 14.1619 5.02137 14.1619 5.02137 14.1619C5.08534 14.1619 5.1817 14.1619 5.24567 14.2259C5.30984 14.29 5.34182 14.3542 5.34182 14.4184C5.34182 14.4184 5.34182 14.4504 5.34182 14.4823C5.50214 14.4504 5.5983 14.3221 5.72644 14.1299L5.79061 14.0338C5.82259 14.0018 5.85478 13.9696 5.88676 13.9696L5.98292 13.9376C6.11106 13.9057 6.2394 13.8415 6.39952 13.9376C6.43171 13.9696 6.46369 14.0018 6.46369 14.0338C6.46369 14.0658 6.46369 14.0977 6.46369 14.1299C6.46369 14.2581 6.39952 14.3542 6.36754 14.4504C6.36754 14.4504 6.33555 14.5145 6.33555 14.5785C6.56005 14.5145 6.75236 14.3221 6.91269 14.0977L7.00885 13.9696C7.04084 13.9054 7.105 13.7451 7.29731 13.7451H7.3293C7.42545 13.7771 7.45743 13.7451 7.55356 13.5847L7.74594 13.3924C7.77789 13.3605 7.77788 13.3605 7.84208 13.3605H7.90621C7.93823 13.3605 7.97041 13.3605 8.00236 13.3924C8.03439 13.4245 8.03438 13.4245 8.03438 13.4564V13.6489C8.06656 13.6489 8.16249 13.5847 8.22669 13.5847L8.48318 13.4245C8.51514 13.3924 8.54731 13.3924 8.61128 13.4245L9.57308 13.6809C9.76538 13.7451 9.79756 13.8734 9.79756 14.0016C9.79756 14.0335 9.79756 14.0977 9.79756 14.0977C9.79756 14.1299 9.79756 14.1619 9.79756 14.1939C9.79756 14.2258 9.79756 14.2258 9.82951 14.2581C9.86153 14.29 9.86154 14.3221 9.86154 14.3542C9.86154 14.3862 9.86154 14.3862 9.86154 14.4184C9.82951 14.5145 9.73336 14.6109 9.47693 14.6109L8.99611 14.6429C8.61151 14.6429 8.22691 14.6429 7.93823 14.8993L7.68173 15.1558C7.64971 15.1879 7.61753 15.1879 7.58558 15.1879C7.39326 15.1879 7.26491 15.284 7.10459 15.3803C6.97645 15.4765 6.81613 15.5727 6.62381 15.6046C6.49568 15.6688 6.33535 15.6688 6.20701 15.6688C6.07866 15.6688 6.0147 15.6688 5.98272 15.7008C6.11085 15.8611 6.33535 15.9251 6.55964 15.9892C6.59163 15.9892 6.68778 16.0215 6.68778 16.0215C6.78394 16.0215 6.94427 16.0215 7.00844 16.1818C7.00844 16.1818 7.00844 16.2138 7.00844 16.2457C7.00844 16.3741 7.04042 16.4383 7.10459 16.4383H7.13657C7.16856 16.4063 7.2969 16.3421 7.45723 16.4383C7.48921 16.4703 7.68151 16.6626 7.68151 16.6626L7.93801 16.919C7.96996 16.951 7.96996 17.015 7.93801 17.0472C7.84186 17.2395 7.61738 17.2075 7.48922 17.2075H7.39306H7.26492C7.07261 17.2395 6.78415 17.3037 6.59163 17.0472L6.62361 17.0791L6.33515 16.983C6.17482 16.8549 6.04668 16.7265 5.85437 16.7265C5.66206 16.7907 5.5659 16.8549 5.5659 16.9508L5.59789 17.0148L5.69404 17.1109C5.72603 17.1431 5.72603 17.1751 5.72603 17.1751C5.72603 17.1751 5.72603 17.1751 5.72603 17.2071C5.72603 17.2391 5.69405 17.2713 5.66186 17.3032C5.50153 17.3994 5.30922 17.5597 5.30922 17.752C5.30922 17.7842 5.30922 17.8162 5.30922 17.8162C5.30922 17.8162 5.30922 17.8162 5.30922 17.8482C5.3412 17.8482 5.37339 17.8162 5.37339 17.8162C5.43756 17.7842 5.5657 17.752 5.69404 17.8162C5.72603 17.8482 5.75822 17.8804 5.75822 17.9124V18.0727C5.75822 18.233 5.79041 18.2972 5.82239 18.3612C5.85437 18.3612 5.88656 18.3292 5.88656 18.3292C5.98271 18.265 6.17503 18.2011 6.36734 18.3292C6.39933 18.3292 6.4635 18.3292 6.55964 18.265L6.75195 18.1688C6.78394 18.1688 6.78394 18.1688 6.78394 18.1688C7.10459 18.1688 7.26471 18.4573 7.32888 18.6496C7.48921 18.7777 7.61738 18.8422 7.71353 18.81V18.7777C7.71353 18.7458 7.71353 18.7138 7.71353 18.6496C7.71353 18.6176 7.68151 18.5535 7.68151 18.4893C7.68151 18.3612 7.71354 18.2328 7.90598 18.1688C7.93801 18.1688 8.22669 18.1366 8.22669 18.1366H8.41899H8.45093C8.73946 18.1689 8.96393 18.1688 9.06008 17.9764C9.06008 17.9764 9.28456 17.6237 9.31658 17.5597C9.31658 17.5277 9.34876 17.3353 9.34876 17.3353C9.34876 17.2713 9.38071 17.239 9.44491 17.239C9.54106 17.2071 9.66938 17.239 9.73336 17.2711C9.73336 17.2711 9.76538 17.2711 9.79756 17.303C9.73336 17.1427 9.70141 16.9824 9.70141 16.822C9.70141 16.7259 9.70141 16.6618 9.73336 16.5656C9.79756 16.3411 9.89371 16.1488 10.0218 15.9884C10.0538 15.9565 10.118 15.9245 10.1822 15.9565L10.2464 15.9884C10.2783 16.0207 10.3105 16.0526 10.3425 16.0846L10.4067 16.4053C10.4387 16.5976 10.4708 16.7899 10.567 16.9822C10.567 17.0142 10.599 17.0142 10.567 17.0464L10.4389 17.4952L10.3427 17.8478C10.2466 18.2005 10.022 18.4569 9.70163 18.617V18.649C9.70163 18.649 9.76576 18.649 9.82973 18.649C9.82973 18.649 9.92589 18.649 9.95791 18.649C10.3105 18.617 10.631 18.4247 10.8875 18.1682C10.9194 18.136 10.9836 18.1041 11.0156 18.136C11.0798 18.1682 11.1437 18.136 11.2401 18.0721C11.3363 18.0079 11.5286 17.9118 11.7209 18.0401C11.7851 18.1041 11.9132 18.1041 12.0415 18.0721C12.2339 18.0721 12.5545 18.0401 12.6187 18.3925V18.4567V18.617C12.6506 18.7774 12.6828 19.0978 12.3302 19.1941C12.2982 19.1941 12.2982 19.1941 12.266 19.1941L11.9134 19.066C11.6249 18.9377 11.4968 18.9057 11.3684 19.066C11.3364 19.098 11.3042 19.1622 11.3042 19.1941C11.3363 19.2903 11.4646 19.4827 11.3042 19.6429C11.2081 19.8033 11.144 19.8992 11.2081 20.0275C11.2081 20.0275 11.2401 20.0596 11.3363 20.0275C11.4644 19.9636 11.6247 20.0275 11.753 20.0596L11.9134 20.1238C11.9456 20.1238 11.9775 20.1557 11.9775 20.1557L12.0417 20.1879C12.1699 20.284 12.2662 20.3482 12.3944 20.3802V20.3482L12.4586 20.1879C12.4905 20.1557 12.683 20.0596 12.683 20.0596C12.8111 19.9954 12.8434 19.9954 12.8434 19.9314C12.8753 19.7069 13.0357 19.4826 13.2602 19.3543C13.2921 19.3543 13.3244 19.3223 13.3563 19.3223C13.4205 19.3223 13.5808 19.2581 13.6448 19.194V19.162L13.5806 19.0978C13.5484 19.0658 13.5485 19.0336 13.5164 19.0336C13.5164 19.0017 13.5164 18.9697 13.5164 18.9375C13.5164 18.7771 13.6126 18.649 13.6768 18.5206C13.7409 18.4245 13.7729 18.3283 13.7729 18.2642C13.7729 18.2322 13.7729 18.2002 13.7409 18.1358C13.7409 18.1039 13.709 18.1039 13.709 18.1039L13.6769 17.8795C13.645 17.7193 13.645 17.6231 13.5488 17.527L13.2923 17.3988L13.1962 17.3026C13.1321 17.2706 13.1321 17.2384 13.1321 17.1743C13.1321 17.0461 13.1962 16.982 13.3563 16.9498H13.3883C13.5486 16.8856 13.709 16.9498 13.8371 17.0137C13.9652 17.0459 13.9974 17.0459 14.0294 17.0459C13.9974 16.9498 13.9013 16.8536 13.8371 16.7575C13.6768 16.6613 13.4845 16.5971 13.2921 16.5652C12.9715 16.501 12.651 16.4048 12.4587 16.1164C12.4268 16.0844 12.4268 16.0524 12.4268 16.0202C12.4268 15.988 12.4268 15.956 12.4587 15.9241L12.4907 15.8921C12.5227 15.8601 12.5869 15.8601 12.6191 15.8601C13.0037 15.9562 13.3883 15.8601 13.6448 15.6358C13.8051 15.4433 13.9974 15.1868 14.2859 15.0909C14.5102 14.9305 14.5424 14.6421 14.5424 14.2894C14.5424 14.0969 14.6385 13.9688 14.7667 13.8404L15.0551 13.7123C15.1513 13.6803 15.1832 13.6803 15.1832 13.6483C15.023 13.5841 14.8307 13.488 14.6703 13.52C14.6383 13.52 14.6061 13.52 14.5742 13.488C14.478 13.4558 14.478 13.3918 14.446 13.3276V13.2957C14.446 13.1995 14.5102 13.1353 14.5742 13.1034L14.6061 13.0714L14.6381 13.0394L14.9266 12.8791C15.3112 12.6546 15.5677 12.5264 15.5677 12.206V12.1738C15.5357 12.206 15.4715 12.206 15.4395 12.27L15.1831 12.3981C14.9908 12.4942 14.7662 12.5584 14.5739 12.5906C14.3495 12.6226 14.1572 12.6868 13.9968 12.7829C13.9648 12.7829 13.9649 12.8149 13.9326 12.8149C13.8685 12.8149 13.7723 12.7829 13.7723 12.6868C13.7723 12.6548 13.7723 12.6226 13.7723 12.5906C13.7723 12.5264 13.8043 12.4623 13.8365 12.4303C13.9007 12.3341 13.9968 12.27 14.093 12.238C14.2211 12.1738 14.2853 12.1418 14.3173 12.0457L14.3492 11.9495C14.4134 11.7892 14.4774 11.5649 14.7019 11.4688C14.7338 11.4688 14.8942 11.3726 14.8942 11.3726C14.9261 11.3726 14.9584 11.3406 14.9584 11.3406C14.9584 11.3406 14.9584 11.3406 14.9264 11.3086C14.6057 11.2125 14.2853 11.4689 14.093 11.6293L14.061 11.6613L13.9007 11.6932C13.6762 11.7894 13.4519 11.8858 13.3235 12.0459C13.3235 12.0778 13.2915 12.0778 13.2593 12.0778C13.1952 12.1099 13.1312 12.0778 13.067 12.0459C13.0028 12.0139 12.9709 11.9497 12.9709 11.8855C12.9067 11.3726 13.3235 10.9879 13.6442 10.6993L13.7084 10.6351L13.7725 10.6031L13.9648 10.507C14.1251 10.4108 14.3174 10.2825 14.5739 10.4108C14.7662 10.507 14.9266 10.5712 15.0869 10.539C15.1831 10.507 15.2472 10.4108 15.3434 10.2827C15.4076 10.1866 15.5037 10.0584 15.6319 9.96224C15.76 9.89804 15.8883 9.96224 15.9845 9.96224C16.0165 9.96224 16.1126 9.99427 16.1126 9.99427L16.1446 9.96224V9.93029C16.1446 9.83414 16.0805 9.73777 15.9843 9.60959L15.8561 9.44932C15.824 9.41707 15.824 9.41707 15.824 9.38512C15.824 9.35309 15.824 9.35317 15.824 9.32114C15.8561 9.22499 15.8882 9.12862 15.8882 9.00051C15.8882 8.74401 15.7919 8.51969 15.5996 8.35942C15.5355 8.32739 15.4073 8.26327 15.279 8.26327C15.279 8.29522 15.311 8.32739 15.311 8.32739L15.4391 8.58389C15.4391 8.61584 15.4391 8.64787 15.4391 8.68004C15.4391 9.25694 14.9584 9.51344 14.5415 9.70574L14.1889 9.89804C13.3875 10.3149 12.3296 10.956 12.2656 12.0139C12.2656 12.5588 12.4899 13.0718 12.9389 13.5206C12.9389 13.5206 12.9389 13.5526 12.9709 13.5526L13.1312 13.7771C13.2915 14.0335 13.4838 14.29 13.4838 14.6427C13.4838 14.7067 13.4838 14.803 13.4519 14.8992C13.3237 15.2196 12.9389 15.2196 12.8108 15.2196C12.0093 15.1556 11.5925 14.354 11.2721 13.7771L11.2079 13.6809L11.1437 13.5528C11.0476 13.3605 10.9514 13.1682 10.9514 12.9436C10.9514 12.9117 10.9514 12.8477 10.9836 12.8477C11.0156 12.8155 11.1117 12.7194 11.2721 12.8155C11.3042 12.8155 11.4324 13.04 11.4324 13.04C11.4644 13.072 11.4644 13.1042 11.4644 13.1362C11.4644 13.1042 11.4964 13.072 11.4964 13.0081C11.4964 12.8797 11.4322 12.7196 11.3682 12.559L11.3363 12.5271C11.3042 12.4629 11.2081 12.3667 11.1117 12.3025C10.9836 12.2066 10.8553 12.0783 10.7911 11.9179V11.886C10.7911 11.886 10.7911 11.886 10.7911 11.854C10.7911 11.6617 10.9514 11.6295 11.0154 11.5975H11.0474C10.9832 11.4052 10.9512 11.1807 10.9512 10.9564C10.9512 10.8602 10.9512 10.7319 10.9834 10.6357L11.1757 10.4434C11.2399 10.4114 11.2399 10.4114 11.2399 10.3792C11.1757 10.1548 11.1757 9.89849 11.1757 9.67402C11.1757 9.57787 11.1757 9.48164 11.1757 9.38549C11.1757 9.35354 11.2399 9.16102 11.2399 9.16102C11.2718 9.06487 11.3041 9.00066 11.3041 8.93676C11.3041 8.90474 11.3041 8.90474 11.3041 8.87257C11.1759 8.80859 11.1437 8.64809 11.1437 8.58412V8.51992C11.1757 8.51992 11.1757 8.51992 11.1757 8.51992C10.8551 8.51992 10.5666 8.39159 10.3101 8.26342L10.0536 8.13509C9.98948 8.10314 9.92551 8.13509 9.82913 8.19929L9.66879 8.26327L9.50843 8.29522C9.34816 8.32717 9.18781 8.35942 9.09166 8.45557C9.02746 8.51969 9.02746 8.61584 9.02746 8.74401V8.84017V8.87212C8.99528 8.96834 8.93131 9.00051 8.89936 9.00051C8.80321 9.03246 8.73901 9.00052 8.67488 8.96849H8.64286C8.38636 8.84039 8.29021 8.58389 8.35441 8.32739C8.35441 8.29544 8.32238 8.23124 8.32238 8.23124C8.25826 8.19929 8.13008 8.16727 8.03394 8.19929C7.96981 8.23124 7.90583 8.29544 7.87366 8.45557C7.87366 8.45557 7.84163 8.48752 7.84163 8.51969V8.55172C7.84163 8.64787 7.87366 8.74402 7.90584 8.77597C8.00199 8.87212 8.16233 8.96849 8.35464 9.06464L8.77141 9.28897C8.80343 9.32114 8.80344 9.32114 8.80344 9.35309C8.80344 9.38512 8.83538 9.44932 8.83538 9.48149C8.83538 9.64177 8.77118 9.73777 8.70728 9.83414C8.73923 9.86609 8.83538 9.93029 8.83538 10.0586C8.83538 10.0906 8.83538 10.0906 8.83538 10.1228C8.83538 10.1869 8.77119 10.219 8.73923 10.219C8.48274 10.2831 8.25849 10.219 8.06611 10.0908L7.93801 9.93044C7.90598 9.86632 7.87381 9.83429 7.84186 9.83429C7.84186 9.83429 7.80983 9.89827 7.80983 9.93044L7.74571 10.0586C7.74571 10.0266 7.74571 10.1548 7.74571 10.1548C7.74571 10.2509 7.71368 10.3792 7.61753 10.4754C7.58558 10.5074 7.55341 10.5074 7.52138 10.5074H7.39327C6.8803 10.3471 6.43171 10.0906 5.91875 9.70597C5.69445 9.54562 5.53413 9.32137 5.3738 9.09682L5.24567 8.93654L5.21368 8.90452L5.18169 8.74424C5.08554 8.42377 5.02136 8.23124 4.79707 8.16726C4.73331 8.10351 4.70133 8.10352 4.70133 8.10352ZM8.64429 9.93089C8.67631 9.89872 8.67631 9.89872 8.67631 9.86669C8.67631 9.86669 8.64429 9.89872 8.64429 9.93089ZM11.1125 11.6299C11.1448 11.6299 11.1448 11.6299 11.1125 11.6299V11.6299ZM8.09934 13.7777C8.09934 13.7457 8.09934 13.7457 8.09934 13.7777V13.7777Z" fill="white"/>
<path d="M0.726562 8.10138C0.726562 5.85739 0.726562 3.38893 0.726562 0.47168H19.8006C19.8006 0.47168 19.8006 1.59377 19.8006 8.13311C19.8006 17.7825 10.1834 23.4564 10.1834 23.4564C10.1834 23.4564 0.726562 17.5262 0.726562 8.10138Z" stroke="#6F6F6F" stroke-width="0.258364"/>
<path d="M14.032 19.2267C13.9678 19.1625 13.9039 19.0664 13.8716 19.0342C13.8075 18.6818 14.3204 18.4573 14.064 18.1047C13.9998 17.8803 14.064 17.6239 13.8394 17.4636C13.6792 17.3352 13.4868 17.3032 13.3265 17.2071C13.3265 17.1109 13.4546 17.1431 13.4868 17.1109C13.7753 17.0469 13.9998 17.3674 14.2241 17.1109C14.2561 16.9186 14.0638 16.7583 13.9356 16.6299C13.5188 16.3415 12.9097 16.4696 12.5893 16.021L12.6212 15.9888C13.0058 16.085 13.4546 15.9888 13.7433 15.7326C13.9036 15.5081 14.0959 15.2838 14.3524 15.2196C14.6409 14.9953 14.6731 14.6427 14.6731 14.322C14.6731 14.1939 14.7373 14.0655 14.8334 13.9694C14.9938 13.8411 15.3784 13.8732 15.2822 13.5846C15.0577 13.4564 14.8334 13.3602 14.6089 13.3923C14.4808 13.3281 14.6409 13.2319 14.6731 13.1997C15.0577 12.9432 15.699 12.7829 15.6668 12.174C15.6349 12.1101 15.6349 12.0137 15.5387 12.0137C15.3784 12.0456 15.2502 12.2062 15.0899 12.2702C14.7052 12.4944 14.2564 12.4305 13.8716 12.6548C13.8075 12.6548 13.8075 12.5586 13.8397 12.5266C13.9678 12.3343 14.2564 12.3343 14.3527 12.0778C14.4168 11.8855 14.4488 11.6291 14.6733 11.5649C14.8014 11.4687 14.9939 11.4687 15.0579 11.3084C15.0579 11.2122 14.9298 11.1801 14.8656 11.148C14.5129 11.0519 14.1603 11.2443 13.9039 11.5007C13.6474 11.6291 13.3267 11.7252 13.1344 11.9175C13.1024 11.9175 13.0382 11.9175 13.0382 11.8536C12.9741 11.3406 13.4229 10.9879 13.7755 10.6995C13.9998 10.6353 14.2243 10.3468 14.4808 10.475C14.6731 10.5711 14.8654 10.6673 15.0899 10.6031C15.3784 10.5069 15.4105 10.1865 15.667 10.0262C15.8593 9.96221 16.1158 10.2507 16.2442 9.96221C16.3083 9.67376 16.0838 9.51326 15.9557 9.32111C16.116 8.93628 15.9877 8.48748 15.6672 8.19903C15.5069 8.10288 15.3146 8.03868 15.1543 8.10288C15.0261 8.26323 15.2826 8.39133 15.2826 8.55168C15.3468 9.25698 14.5774 9.41726 14.0965 9.73773C13.231 10.1868 12.173 10.8598 12.1091 11.9817C12.1091 12.5908 12.3976 13.1677 12.8143 13.5846C13.0387 13.9694 13.3915 14.3218 13.2631 14.8347C13.167 15.0271 12.9425 15.0591 12.7502 15.0591C12.0129 14.9951 11.5961 14.1615 11.2755 13.5843C11.1793 13.3601 11.0512 13.1355 11.019 12.879C11.0509 12.8471 11.0831 12.8471 11.1471 12.879C11.2753 13.0074 11.2753 13.2959 11.4997 13.2637C11.692 13.0074 11.5639 12.6867 11.4356 12.4303C11.3074 12.206 11.0188 12.0777 10.8907 11.8212C10.8907 11.6289 11.1471 11.757 11.1791 11.5647C11.083 11.244 11.0509 10.8914 11.1149 10.6029C11.1791 10.4748 11.3714 10.4748 11.3714 10.3145C11.2753 9.99378 11.2753 9.70533 11.3072 9.35268C11.3392 9.16038 11.4995 8.93591 11.4034 8.74361C11.1791 8.67963 11.3714 8.39096 11.1469 8.35893C10.7301 8.35893 10.4097 8.13446 10.057 8.00628C9.86474 7.94238 9.73634 8.07048 9.57607 8.10251C9.35174 8.16663 9.09524 8.16663 8.93497 8.32698C8.80679 8.45508 8.83874 8.61543 8.83874 8.80773C8.80679 8.90388 8.71064 8.80773 8.64644 8.80773C8.48617 8.71158 8.42197 8.51928 8.45414 8.32698C8.48617 8.23083 8.45414 8.16663 8.35799 8.10251C8.22989 8.03853 8.06954 7.97411 7.94137 8.03853C7.78109 8.10243 7.71689 8.29481 7.65292 8.45508C7.65292 8.58348 7.65292 8.74361 7.71712 8.83991C7.97362 9.09618 8.32619 9.19256 8.58269 9.41688C8.64689 9.57716 8.51857 9.70533 8.42242 9.83366C8.42242 9.96198 8.61472 9.96198 8.58269 10.0902C8.39039 10.1541 8.19809 10.0902 8.03774 9.96198C7.94159 9.86583 7.90964 9.67353 7.74929 9.67353C7.58894 9.67353 7.58894 9.86583 7.52482 9.96198C7.46063 10.0902 7.52482 10.2505 7.39666 10.3467H7.30051C6.78754 10.1863 6.33875 9.89786 5.88995 9.54521C5.63348 9.35268 5.44117 9.03221 5.24885 8.77578C5.1527 8.45531 5.08853 8.03853 4.7039 7.94238C4.60775 7.94238 4.5116 7.97433 4.47962 8.07048L4.44743 8.19881C4.25512 8.19881 4.0628 8.07048 3.83852 8.13468C3.74236 8.19881 3.6462 8.26301 3.58203 8.35916C3.58203 8.58348 3.83851 8.48733 3.87049 8.67978C3.87049 8.84013 3.99863 8.96831 4.0628 9.09641C3.99863 9.19256 3.90248 9.22473 3.87049 9.32088L3.74235 9.64136C3.80653 9.73751 3.87049 9.86583 3.96686 9.86583C4.12718 9.80193 4.28751 9.93003 4.47982 9.89786C4.60796 9.89786 4.76828 9.80193 4.80047 9.99401C4.86464 10.1544 4.80047 10.2825 4.80047 10.4108C4.64015 10.6353 4.41585 10.8276 4.19135 10.9238C4.12718 10.9879 4.12718 11.0841 4.12718 11.1483C4.22333 11.2764 4.41565 11.2125 4.54399 11.2125C4.80047 11.2125 4.99278 11.0521 5.24927 11.0199C5.31344 11.1483 5.40959 11.3084 5.53773 11.3726C5.73004 11.4366 5.79422 11.148 5.98652 11.2122C6.14685 11.3404 6.11466 11.5649 6.24301 11.7252C6.24301 11.8214 6.17883 11.8214 6.11487 11.8533C5.89037 11.9173 5.6019 11.8533 5.44158 12.0137C5.40959 12.1098 5.50575 12.2062 5.56972 12.2382C5.76203 12.3343 5.98652 12.3665 6.21082 12.3985C6.40313 12.4305 6.62762 12.3345 6.81994 12.3985L6.75576 12.4947L6.14665 12.9114C5.85818 13.0396 5.56951 13.0718 5.31323 13.2321C4.92861 13.3283 4.76828 12.8475 4.41564 12.8795C4.25531 12.8795 4.15917 12.9435 4.06301 13.0078C3.96686 13.104 3.96686 13.2321 3.99884 13.3605C4.06301 13.4888 4.22313 13.4244 4.22313 13.5528C4.22313 13.9054 3.90248 14.1619 3.87049 14.5146C3.87049 14.6107 3.87049 14.7069 3.99863 14.739C4.0628 14.771 4.15896 14.739 4.22293 14.7069C4.2871 14.6429 4.2871 14.5146 4.41524 14.4825C4.63973 14.5146 4.86403 14.5145 4.99238 14.3544C5.05655 14.3544 5.1527 14.4184 5.1527 14.4825C5.1527 14.5787 5.1527 14.6748 5.24885 14.7069C5.56951 14.7069 5.69765 14.3864 5.85797 14.1619C5.98611 14.1299 6.14644 14.0337 6.27479 14.1299C6.33896 14.3542 6.14664 14.4825 6.11445 14.7069C6.11445 14.771 6.17863 14.803 6.2426 14.803C6.62721 14.739 6.81973 14.4183 7.04402 14.1299C7.07621 14.0658 7.1082 13.9696 7.23634 13.9696C7.52482 14.0658 7.58894 13.7131 7.78124 13.5848H7.84544C7.87747 13.6809 7.81349 13.7451 7.84544 13.8093C7.97362 13.9374 8.10194 13.8093 8.23004 13.7772L8.48654 13.617C8.80724 13.7131 9.12764 13.7772 9.44834 13.8735C9.70477 13.9696 9.44834 14.2581 9.60862 14.4183C9.57667 14.5146 9.44834 14.5465 9.35212 14.5465C8.80724 14.6107 8.16592 14.4825 7.71734 14.8671L7.46084 15.1236C7.04402 15.1236 6.85172 15.4763 6.46709 15.5405C6.21061 15.7008 5.82599 15.4763 5.66567 15.765C5.7938 16.0215 6.11446 16.1176 6.37094 16.1817C6.49907 16.2457 6.6594 16.1817 6.72358 16.3099C6.72358 16.4382 6.75576 16.5984 6.91589 16.6305C7.01204 16.6626 7.07621 16.5022 7.20435 16.5986C7.33249 16.7909 7.55699 16.887 7.65314 17.0474C7.55699 17.2077 7.36468 17.1114 7.20435 17.1114H7.17236C6.94808 17.1435 6.65941 17.2397 6.49928 17.0474C6.27499 16.887 6.08247 16.5986 5.72984 16.5986C5.53752 16.6627 5.34521 16.7267 5.31302 16.9192C5.28104 17.0474 5.40918 17.0796 5.47336 17.1755C5.24885 17.3358 5.02456 17.5603 5.08874 17.8488C5.12072 17.913 5.15291 17.9769 5.21687 17.9769C5.34501 17.9769 5.40918 17.8808 5.53753 17.945C5.56951 18.1373 5.50554 18.4257 5.72984 18.5219C5.89016 18.4899 6.0183 18.2974 6.21061 18.4577C6.40292 18.5538 6.53126 18.3615 6.72358 18.3296C6.98006 18.3296 7.07621 18.5861 7.17236 18.7784C7.33269 18.9067 7.55699 19.099 7.78147 18.9708C7.94182 18.7466 7.65337 18.4901 7.94182 18.3618C8.10217 18.2976 8.26244 18.3618 8.45474 18.3297C8.74327 18.3618 9.06389 18.3937 9.22424 18.0733L9.48067 17.6565L9.54487 17.4002C9.70522 17.3361 9.92947 17.6245 10.0256 17.368C9.92947 17.1115 9.89752 16.8552 9.96149 16.5987C10.0256 16.4064 10.0896 16.2462 10.218 16.118L10.2821 16.15C10.3463 16.4704 10.3783 16.7591 10.5067 17.0475C10.4746 17.3361 10.3463 17.5925 10.2821 17.881C10.218 18.1695 9.99367 18.426 9.70499 18.5543C9.64079 18.6183 9.57689 18.6826 9.64079 18.7785C9.70499 18.9069 9.89729 18.8427 10.0255 18.8747C10.4101 18.8108 10.7627 18.6502 11.0514 18.362C11.3398 18.4261 11.4682 18.1055 11.7244 18.2336C11.9809 18.4261 12.4617 18.0733 12.5578 18.5221C12.5259 18.7144 12.7182 19.0671 12.3976 19.1634C12.0769 19.0992 11.6923 18.6824 11.3718 19.0672C11.3077 19.1312 11.2437 19.2276 11.3077 19.3557C11.3718 19.4519 11.4358 19.5482 11.3396 19.6442C11.2435 19.8045 11.1151 19.9968 11.2115 20.157C11.2756 20.2531 11.4038 20.2531 11.5 20.2531C11.6923 20.1891 11.8526 20.3493 12.0449 20.3493C12.2053 20.4774 12.3655 20.6377 12.5899 20.6057C12.686 20.5416 12.654 20.4454 12.718 20.3812C12.8461 20.2531 13.1348 20.2851 13.1348 20.0286C13.1668 19.8363 13.3271 19.6759 13.4875 19.5798C13.5512 19.4832 13.9358 19.3871 14.032 19.2267Z" fill="#6F6F6F"/>
<path d="M14.032 19.2267C13.9678 19.1625 13.9039 19.0664 13.8716 19.0342C13.8075 18.6818 14.3204 18.4893 14.064 18.1047C13.9998 17.8803 14.064 17.6239 13.8394 17.4636C13.6792 17.3352 13.4868 17.3032 13.3265 17.2071C13.3265 17.1109 13.4546 17.1431 13.4868 17.1109C13.7753 17.0469 13.9998 17.3674 14.2241 17.1109C14.2561 16.9186 14.0638 16.7583 13.9356 16.6299C13.5188 16.3415 12.9097 16.4696 12.5893 16.021L12.6212 15.9888C13.0058 16.085 13.4546 15.9888 13.7433 15.7326C13.9036 15.5081 14.0959 15.2838 14.3524 15.2196C14.6409 14.9953 14.6731 14.6427 14.6731 14.322C14.6731 14.1939 14.7373 14.0655 14.8334 13.9694C14.9938 13.8411 15.3784 13.8732 15.2822 13.5846C15.0577 13.4564 14.8334 13.3602 14.6089 13.3923C14.5127 13.3281 14.6409 13.2319 14.6731 13.1997C15.0577 12.9432 15.699 12.7829 15.6668 12.174C15.6349 12.1101 15.6349 12.0137 15.5387 12.0137C15.3784 12.0456 15.2502 12.2062 15.0899 12.2702C14.7052 12.4944 14.2564 12.4305 13.8716 12.6548C13.8075 12.6548 13.8075 12.5586 13.8397 12.5266C13.9678 12.3343 14.2564 12.3343 14.3527 12.0778C14.4168 11.8855 14.4488 11.6291 14.6733 11.5649C14.8014 11.4687 14.9939 11.4687 15.0579 11.3084C15.0579 11.2122 14.9298 11.1801 14.8656 11.148C14.5129 11.0519 14.1603 11.2443 13.9039 11.5007C13.6474 11.6291 13.3267 11.7252 13.1344 11.9175C13.1024 11.9175 13.0382 11.9175 13.0382 11.8536C12.9741 11.3406 13.4229 10.9879 13.7755 10.6995C13.9998 10.6353 14.2243 10.3468 14.4808 10.475C14.6731 10.5711 14.8654 10.6673 15.0899 10.6031C15.3784 10.5069 15.4425 10.1865 15.667 10.0262C15.8593 9.96221 16.1158 10.2507 16.2442 9.96221C16.3083 9.67376 16.0838 9.51326 15.9557 9.32111C16.116 8.93628 15.9877 8.48748 15.6672 8.19903C15.5069 8.10288 15.3146 8.03868 15.1543 8.10288C15.0261 8.26323 15.2826 8.39133 15.2826 8.55168C15.3468 9.25698 14.5774 9.41726 14.0965 9.73773C13.231 10.1868 12.173 10.8598 12.1091 11.9817C12.1091 12.5908 12.3976 13.1677 12.8143 13.5846C13.0387 13.9694 13.3915 14.3218 13.2631 14.8347C13.167 15.0271 12.9425 15.0591 12.7502 15.0591C12.0129 14.9951 11.5961 14.1615 11.2755 13.5843C11.1793 13.3601 11.0512 13.1355 11.019 12.879C11.0509 12.8471 11.0831 12.8471 11.1471 12.879C11.2753 13.0074 11.2753 13.2959 11.4997 13.2637C11.692 13.0074 11.5639 12.6867 11.4356 12.4303C11.3074 12.206 11.0188 12.0777 10.8907 11.8212C10.8907 11.6289 11.1471 11.757 11.1791 11.5647C11.083 11.244 11.0509 10.8914 11.1149 10.6029C11.1791 10.4748 11.3714 10.4748 11.3714 10.3145C11.2753 9.99378 11.2753 9.70533 11.3072 9.35268C11.3392 9.16038 11.4995 8.93591 11.4034 8.74361C11.1791 8.67963 11.3714 8.39096 11.1469 8.35893C10.7301 8.35893 10.4097 8.13446 10.057 8.00628C9.86474 7.94238 9.73634 8.07048 9.57607 8.10251C9.35174 8.16663 9.09524 8.16663 8.93497 8.32698C8.80679 8.45508 8.83874 8.61543 8.83874 8.80773C8.80679 8.90388 8.71064 8.80773 8.64644 8.80773C8.48617 8.71158 8.42197 8.51928 8.45414 8.32698C8.48617 8.23083 8.45414 8.16663 8.35799 8.10251C8.22989 8.03853 8.06954 8.00628 7.94137 8.03853C7.78109 8.10243 7.71689 8.29481 7.65292 8.45508C7.65292 8.58348 7.65292 8.74361 7.71712 8.83991C7.97362 9.09618 8.32619 9.19256 8.58269 9.41688C8.64689 9.57716 8.51857 9.70533 8.42242 9.83366C8.42242 9.96198 8.61472 9.96198 8.58269 10.0902C8.39039 10.1541 8.19809 10.0902 8.03774 9.96198C7.94159 9.86583 7.90964 9.67353 7.74929 9.67353C7.58894 9.67353 7.58894 9.86583 7.52482 9.96198C7.46063 10.0902 7.52482 10.2505 7.39666 10.3467H7.30051C6.78754 10.1863 6.33875 9.89786 5.88995 9.54521C5.63348 9.35268 5.44117 9.03221 5.24885 8.77578C5.1527 8.45531 5.08853 8.03853 4.7039 7.94238C4.60775 7.94238 4.5116 7.97433 4.47962 8.07048L4.44743 8.19881C4.25512 8.19881 4.0628 8.07048 3.83852 8.13468C3.74236 8.19881 3.6462 8.26301 3.58203 8.35916C3.58203 8.58348 3.83851 8.48733 3.87049 8.67978C3.87049 8.84013 3.99863 8.96831 4.0628 9.09641C3.99863 9.19256 3.90248 9.22473 3.87049 9.32088L3.74235 9.64136C3.80653 9.73751 3.87049 9.86583 3.96686 9.86583C4.12718 9.80193 4.28751 9.93003 4.47982 9.89786C4.60796 9.89786 4.76828 9.80193 4.80047 9.99401C4.86464 10.1544 4.80047 10.2825 4.80047 10.4108C4.64015 10.6353 4.41585 10.8276 4.19135 10.9238C4.12718 10.9879 4.12718 11.0841 4.12718 11.1483C4.22333 11.2764 4.41565 11.2125 4.54399 11.2125C4.80047 11.2125 4.99278 11.0521 5.24927 11.0199C5.31344 11.1483 5.40959 11.3084 5.53773 11.3726C5.73004 11.4366 5.79422 11.148 5.98652 11.2122C6.14685 11.3404 6.08268 11.5649 6.24301 11.7252C6.24301 11.8214 6.17883 11.8214 6.11487 11.8533C5.89037 11.9173 5.6019 11.8533 5.44158 12.0137C5.40959 12.1098 5.50575 12.2062 5.56972 12.2382C5.76203 12.3343 5.98652 12.3665 6.21082 12.3985C6.40313 12.4305 6.62762 12.3345 6.81994 12.3985L6.75576 12.4947L6.14665 12.9114C5.85818 13.0396 5.56951 13.0718 5.31323 13.2321C4.92861 13.3283 4.76828 12.8475 4.41564 12.8795C4.25531 12.8795 4.15917 12.9435 4.06301 13.0078C3.96686 13.104 3.96686 13.2321 3.99884 13.3605C4.06301 13.4888 4.22313 13.4244 4.22313 13.5528C4.22313 13.9054 3.90248 14.1619 3.87049 14.5146C3.87049 14.6107 3.8705 14.7069 3.96665 14.739C4.03082 14.771 4.12698 14.739 4.19115 14.7069C4.25532 14.6429 4.25532 14.5146 4.38346 14.4825C4.60796 14.5146 4.83225 14.5145 4.9606 14.3544C5.02477 14.3544 5.12092 14.4184 5.12092 14.4825C5.12092 14.5787 5.12093 14.6748 5.21708 14.7069C5.53773 14.7069 5.66587 14.3864 5.8262 14.1619C5.95433 14.1299 6.11466 14.0337 6.24301 14.1299C6.30718 14.3542 6.11486 14.4825 6.08267 14.7069C6.08267 14.771 6.14685 14.803 6.21082 14.803C6.59543 14.739 6.78795 14.4183 7.01225 14.1299C7.04423 14.0658 7.07642 13.9696 7.20456 13.9696C7.49303 14.0658 7.55722 13.7131 7.74952 13.5848H7.81364C7.84567 13.6809 7.78169 13.7451 7.81364 13.8093C7.94182 13.9374 8.07014 13.8093 8.19832 13.7772L8.45474 13.617C8.77544 13.7131 9.09592 13.7772 9.41654 13.8735C9.67304 13.9696 9.41654 14.2581 9.57689 14.4183C9.54487 14.5146 9.41654 14.5465 9.32039 14.5465C8.77544 14.6107 8.13434 14.4825 7.68554 14.8671L7.42906 15.1236C7.01225 15.1236 6.81993 15.4763 6.43532 15.5405C6.17883 15.7008 5.79421 15.4763 5.63389 15.765C5.76203 16.0215 6.08268 16.1176 6.33916 16.1817C6.4673 16.2457 6.62762 16.1817 6.6918 16.3099C6.6918 16.4382 6.72378 16.5984 6.88411 16.6305C6.98026 16.6626 7.04444 16.5022 7.17257 16.5986C7.30091 16.7909 7.52519 16.887 7.62134 17.0474C7.52519 17.2077 7.3329 17.1114 7.17257 17.1114H7.14059C6.91609 17.1435 6.62762 17.2397 6.4673 17.0474C6.2428 16.887 6.05049 16.5986 5.69786 16.5986C5.50554 16.6627 5.31323 16.7267 5.28104 16.9512C5.24906 17.0796 5.3772 17.1115 5.44137 17.2077C5.21708 17.368 4.99258 17.5923 5.05675 17.881C5.08874 17.9451 5.12092 18.0091 5.18489 18.0091C5.31302 18.0091 5.37719 17.913 5.50554 17.9772C5.53752 18.1697 5.47356 18.4579 5.69786 18.5543C5.85818 18.5223 5.98632 18.33 6.17863 18.4901C6.37094 18.5862 6.53126 18.3939 6.69159 18.362C6.94808 18.362 7.04423 18.6183 7.14038 18.8108C7.30071 18.9389 7.52497 19.1312 7.74952 19.0031C7.90979 18.7785 7.62134 18.5223 7.90987 18.3939C8.07014 18.33 8.23049 18.3939 8.42279 18.362C8.71124 18.3939 9.03194 18.4261 9.19222 18.1055L9.44872 17.6886L9.51292 17.4322C9.67319 17.368 9.89752 17.6567 9.99367 17.4002C9.89752 17.1437 9.86549 16.8873 9.92947 16.6308C9.99367 16.4385 10.0576 16.2781 10.186 16.1498L10.2502 16.1817C10.3143 16.5022 10.3463 16.7909 10.4746 17.0793C10.4427 17.3678 10.3143 17.6243 10.2502 17.9127C10.186 18.2012 9.96172 18.4577 9.67319 18.586C9.60907 18.65 9.54509 18.7142 9.60907 18.8103C9.67319 18.9385 9.86549 18.8743 9.99367 18.9065C10.3783 18.8425 10.7309 18.6822 11.0196 18.3936C11.308 18.4577 11.4364 18.1371 11.6929 18.2654C11.9494 18.4577 12.4301 18.105 12.5263 18.5538C12.4943 18.7461 12.6866 19.0988 12.366 19.1949C12.0453 19.1308 11.6607 18.7142 11.3402 19.0988C11.2761 19.163 11.2121 19.2591 11.2761 19.3872C11.3402 19.4835 11.4042 19.5796 11.3083 19.6758C11.2121 19.836 11.0838 20.0283 11.1801 20.1887C11.2443 20.2848 11.3725 20.2848 11.4686 20.2848C11.6609 20.2207 11.8213 20.381 12.0136 20.381C12.1738 20.5094 12.3342 20.6695 12.5585 20.6375C12.6547 20.5735 12.6226 20.4771 12.6866 20.413C12.8149 20.2848 13.1035 20.3169 13.1035 20.0604C13.1354 19.8681 13.2958 19.7077 13.456 19.6116C13.5512 19.4832 13.9358 19.3871 14.032 19.2267Z" stroke="#6F6F6F" stroke-width="0.052787"/>
<path d="M8.32672 8.2944C8.29469 8.45468 8.29469 8.6148 8.39084 8.74313C8.64734 9.03165 9.06397 9.1278 9.22432 9.44843H9.12817C8.80747 9.2559 8.51902 8.99963 8.19854 8.8713C8.07044 8.77515 7.97407 8.64683 8.00624 8.4867C8.03827 8.39055 8.07044 8.26215 8.19854 8.2302C8.26274 8.1984 8.32672 8.23043 8.32672 8.2944Z" fill="white"/>
<path d="M10.988 8.58472C11.0522 8.64869 10.988 8.80919 11.1484 8.84122C11.1803 8.84122 11.2126 8.87317 11.2126 8.90519C11.2126 9.03329 11.1806 9.16162 11.1484 9.28979C11.1164 9.38594 10.988 9.41789 10.988 9.57824C10.988 9.64244 11.0842 9.67439 11.1162 9.77054V10.2835C10.7955 10.3797 10.9559 10.7643 10.9239 10.9568C10.8919 11.1172 10.9239 11.2773 10.9239 11.4376C10.8597 11.4697 10.6994 11.4697 10.6674 11.566C10.6674 11.7583 10.7636 11.9185 10.8278 12.0467C10.9559 12.2071 11.1803 12.239 11.1803 12.4635C11.0201 12.4635 10.8597 12.3673 10.7315 12.3032C10.5071 12.175 10.3469 11.9185 10.1867 11.6941C10.1546 11.6621 10.0904 11.6621 10.0585 11.6941C10.0265 11.8544 10.0265 12.0467 9.89814 12.1429C9.73787 12.0467 9.73787 11.6301 9.48137 11.7583C9.38522 12.3032 9.03257 12.72 8.71209 13.1688C8.64797 13.2007 8.61594 13.2969 8.51979 13.2969C8.68014 12.8801 8.80824 12.3994 8.64797 11.9184C8.61594 11.8222 8.51979 11.8544 8.45567 11.8864C8.39147 11.9503 8.32749 12.0467 8.23112 12.0145C8.13497 11.8864 8.32727 11.6619 8.10302 11.5657C7.94267 11.5977 7.81449 11.758 7.68617 11.8222C7.30157 12.0465 6.85278 12.1426 6.40398 12.1426C6.30783 12.1426 6.24365 12.1107 6.17969 12.0787C6.27584 11.9503 6.46815 11.9503 6.59649 11.8542C7.10946 11.5336 7.4621 10.9566 7.87869 10.5398C7.84674 10.3475 7.68639 10.1232 7.84674 9.96284C7.97484 9.96284 8.03904 10.1232 8.13519 10.1551C8.32749 10.2513 8.55197 10.3155 8.74427 10.2193C8.90462 10.1874 9.03279 10.027 9.06497 9.86669C9.06497 9.80272 9.03294 9.73837 8.96882 9.73837C8.90462 9.73837 8.87267 9.73837 8.84064 9.67439C8.84064 9.57824 8.90484 9.51404 8.96882 9.51404C9.19329 9.51404 9.38559 9.96307 9.54594 9.61019C9.64209 9.32174 9.35364 9.09727 9.16134 8.90497C9.09714 8.84099 9.06519 8.77664 9.09714 8.68064C9.25749 8.58449 9.06519 8.45617 9.19329 8.32799C9.41777 8.16772 9.73824 8.26387 9.96257 8.10352C10.3469 8.23207 10.6354 8.52052 10.988 8.58472Z" fill="white"/>
<path d="M5.05727 8.48628C5.05727 8.55048 5.08925 8.61445 5.05727 8.64663C4.99309 8.71083 4.92912 8.64663 4.89693 8.61468C4.83276 8.5507 4.80078 8.45433 4.80078 8.39013C4.83276 8.13348 5.05727 8.38998 5.05727 8.48628Z" fill="white"/>
<path d="M4.86293 8.84215C5.21556 9.0025 5.43986 9.35492 5.69634 9.6436C6.24129 10.0924 6.81843 10.477 7.45953 10.6693C7.49151 10.7654 7.39536 10.8616 7.33139 10.9258C7.10689 11.1503 6.94677 11.4065 6.72227 11.5991C6.6581 11.5991 6.62612 11.5991 6.59413 11.5991C6.36963 11.3747 6.40182 10.958 6.017 10.9258C5.88885 10.9258 5.7927 11.0861 5.66436 10.99C5.53622 10.8938 5.69634 10.6693 5.50404 10.6052C5.27954 10.7013 5.11941 10.9258 4.86293 10.8936C5.02326 10.6052 5.31172 10.3166 5.1514 9.96407C5.11921 9.80372 5.02305 9.61142 4.86293 9.57917C4.7026 9.57917 4.63844 9.73952 4.47831 9.6754C4.41414 9.54722 4.12568 9.6112 4.25382 9.4189C4.34997 9.25855 4.70261 9.25855 4.57447 9.00227C4.47831 8.87395 4.22183 8.93807 4.22183 8.74577C4.25382 8.64962 4.15766 8.48935 4.22183 8.42537C4.51029 8.36117 4.7026 8.6818 4.86293 8.84215Z" fill="white"/>
<path d="M15.8253 9.00153C15.8575 9.19383 15.6649 9.32223 15.7291 9.51431C15.7933 9.61046 15.9534 9.64263 15.9214 9.73863C15.4407 9.73863 15.3443 10.3797 14.8955 10.3477C14.7032 10.3158 14.5429 10.0913 14.3184 10.1874C13.7092 10.4759 13.0362 10.8927 12.8758 11.6299C12.8116 11.9184 12.8116 12.207 13.0362 12.4314C13.1003 12.4633 13.1643 12.4633 13.1965 12.4314C13.3246 12.207 13.421 11.9184 13.7095 11.8545C13.8698 11.7903 14.0621 11.7263 14.2224 11.6299C14.2544 11.6299 14.2866 11.598 14.2866 11.6619C14.2224 11.8864 14.1262 12.1427 13.8698 12.2069C13.7095 12.3672 13.5172 12.5273 13.5172 12.7518C13.5172 12.848 13.4851 13.0083 13.5813 13.1045C13.6774 13.1686 13.7736 13.0725 13.8378 13.0403C14.1585 12.6557 14.6392 12.5915 15.12 12.5595C15.152 12.5917 15.088 12.6879 15.0238 12.6879C14.6071 12.816 14.2224 13.1686 14.0943 13.5855C14.0943 13.6496 14.1585 13.7138 14.1904 13.7138C14.3827 13.6818 14.5431 13.5534 14.7673 13.5855C14.8315 13.7138 14.6071 13.7138 14.5431 13.8419C14.1585 14.1945 14.5431 14.932 13.902 15.0602C13.7097 15.1243 13.7416 15.3486 13.6135 15.4448C13.389 15.7332 13.0363 15.7974 12.7159 15.7654C12.4594 15.7974 12.2671 15.4448 12.0427 15.6693C12.0746 15.9258 12.2671 16.0541 12.3952 16.2784C12.7159 16.5669 13.1326 16.5988 13.5493 16.7272C13.6135 16.7272 13.6455 16.7913 13.6774 16.8234C13.6774 16.9195 13.5493 16.8875 13.4851 16.8875C13.2287 16.9195 12.9402 16.9515 12.6838 16.8555C12.6517 16.8555 12.6196 16.8875 12.5876 16.9197C12.6196 17.2082 12.9402 17.3043 13.1325 17.4324C13.3249 17.5286 13.5813 17.4964 13.6455 17.7209V18.0094C13.7416 18.1375 13.7737 18.33 13.7416 18.4902C13.5813 18.6827 13.4532 18.939 13.5813 19.2274C13.5172 19.2914 13.389 19.2274 13.3249 19.2914C13.2287 19.4839 13.0042 19.5159 12.9402 19.6762C12.9402 19.8366 12.844 19.9647 12.6838 19.9967C12.5556 19.9967 12.4594 20.0608 12.3631 20.0286C12.2989 19.9325 12.3951 19.8043 12.2669 19.7402C12.1066 19.7082 12.0424 19.9647 11.8501 19.8685C11.754 19.8045 11.6898 19.7724 11.6258 19.7082C11.6258 19.5798 11.722 19.5479 11.7862 19.5157C12.2029 19.4517 12.7479 19.3875 12.8761 18.9387C12.908 18.7145 12.8119 18.5541 12.844 18.3618C12.7799 18.1374 12.5556 17.977 12.2991 17.945C12.0746 17.8809 11.8183 17.977 11.658 17.8167C11.5939 17.7525 11.5299 17.7205 11.4335 17.7525C11.3693 17.7525 11.3374 17.8487 11.2732 17.8167C11.209 17.7525 11.1129 17.6563 11.0489 17.7525C10.8886 18.0411 10.6642 18.3616 10.3117 18.4258C10.2475 18.3297 10.3758 18.2333 10.4078 18.1371C10.504 17.9128 10.6001 17.6244 10.6642 17.3679C10.7604 17.2398 10.8886 17.0475 10.7924 16.8551C10.6321 16.4383 10.4718 15.9576 10.6001 15.4766C10.6963 14.8996 10.5359 14.3547 10.1191 13.9698C9.89459 13.8415 9.67034 13.585 9.38189 13.5531C9.18959 13.4891 8.93309 13.5531 8.80469 13.3927C8.83671 13.2002 9.02924 13.0721 9.12539 12.9117L9.44601 12.3987C9.57419 12.3668 9.54216 12.5591 9.67056 12.5591C9.92699 12.5591 9.92699 12.1103 10.1835 12.2706C10.3117 12.431 10.5041 12.4949 10.6323 12.6552C10.7926 13.3605 11.0811 14.0658 11.5621 14.6107C11.9467 15.0915 12.5238 15.4442 13.1008 15.2838C13.261 15.1557 13.4854 14.9954 13.5175 14.7711C13.6779 13.649 12.2351 13.0721 12.3315 11.95C12.4276 10.8921 13.5175 10.3149 14.3832 9.89808C14.8639 9.64181 15.4411 9.32118 15.505 8.71203C15.505 8.64791 15.505 8.61588 15.5372 8.55176C15.8253 8.61671 15.7933 8.84126 15.8253 9.00153Z" fill="white"/>
<path d="M8.06982 12.3675C8.198 12.3994 8.35827 12.2071 8.42247 12.3994C8.39052 12.6559 8.39052 12.9765 8.26212 13.2009C8.13402 13.3292 7.9415 13.233 7.81332 13.297C7.62102 13.3612 7.58907 13.81 7.36456 13.5215C7.26841 13.4895 7.20424 13.5855 7.14027 13.6499C7.04412 13.8744 6.94796 14.1309 6.75565 14.3229C6.72346 14.3549 6.65949 14.3871 6.62751 14.3229C6.59553 14.1626 6.72366 13.8741 6.49937 13.8102C6.40322 13.8102 6.30706 13.8744 6.2109 13.9063C6.0186 13.9063 5.76211 13.9063 5.66596 14.0667C5.63397 14.1628 5.63397 14.2911 5.50563 14.2911C5.37749 14.227 5.24915 14.195 5.18498 14.0667C5.1208 14.0347 5.05684 13.9705 4.99267 14.0347C4.89651 14.1309 4.86453 14.3232 4.7042 14.3232C4.57606 14.3232 4.4799 14.2911 4.35156 14.227C4.38354 13.9386 4.70421 13.9065 4.89651 13.7782C5.28114 13.6821 5.60178 13.4256 5.98641 13.3614C6.59553 13.1371 7.10829 12.6561 7.5893 12.1753C7.65342 12.1434 7.74957 12.1113 7.81355 12.1113C7.9415 12.2073 7.9415 12.3354 8.06982 12.3675Z" fill="white"/>
<path d="M5.02395 13.5188C4.89581 13.5828 4.73549 13.6472 4.60715 13.5828C4.54298 13.5188 4.57516 13.3585 4.54297 13.2623C4.57496 13.1662 4.7033 13.1982 4.76727 13.2304C4.86383 13.3265 5.02395 13.3585 5.02395 13.5188Z" fill="white"/>
<path d="M10.3763 15.1231C10.3763 15.3154 10.3443 15.4435 10.2482 15.6038C10.0238 15.7963 9.83139 16.0529 9.76741 16.3733C9.76741 16.5978 9.73539 16.7901 9.73539 16.9824C9.67126 17.0466 9.60729 16.9504 9.57511 16.9184C9.47896 16.7581 9.51091 16.4377 9.25441 16.4695C9.12631 16.6297 8.96596 16.8543 9.06211 17.0466C9.19029 17.2069 9.41476 17.3351 9.28659 17.5595C9.09429 17.6558 9.15849 17.9442 8.90199 17.9762C8.51739 18.0404 8.13256 17.848 7.84411 18.1365C7.74796 18.2326 7.68376 18.361 7.61956 18.4892C7.45926 18.5211 7.49145 18.2646 7.39509 18.1687C7.33092 18.0725 7.20278 18.1365 7.10662 18.0725C6.97849 18.0083 6.81816 17.8802 6.65783 17.9764C6.52969 18.0405 6.36936 18.2329 6.20904 18.1047L5.98475 18.0407C5.98475 17.9766 6.04892 17.8804 5.98475 17.7842L5.56794 17.5598C5.53595 17.5278 5.56794 17.4636 5.59992 17.4314C5.95256 17.2069 6.36936 17.4634 6.78597 17.3994C7.07443 17.3032 7.33092 17.3353 7.61941 17.3672C7.77969 17.3672 7.97199 17.4314 8.06814 17.2711C8.13234 17.1749 8.16436 17.0466 8.10016 16.9504C7.97199 16.662 7.58716 16.6298 7.52304 16.2773C7.49104 16.2132 7.45885 16.149 7.39488 16.1171C7.29873 16.085 7.23456 16.1812 7.1384 16.149C7.10642 16.0528 7.07423 15.9567 6.97808 15.9245C6.78576 15.9245 6.56127 16.0207 6.40114 15.8925C6.43333 15.7964 6.56147 15.8284 6.62564 15.7644C6.88212 15.7002 7.10642 15.5399 7.3629 15.4117L7.71556 15.3475C8.06814 14.7706 8.80546 14.8026 9.44656 14.7707L10.0556 14.5781C10.2802 14.7063 10.3443 14.9627 10.3763 15.1231Z" fill="white"/>
<path d="M6.40266 17.1439C6.27452 17.2079 6.14617 17.1759 6.01803 17.1439C5.95386 17.0797 5.92188 16.9514 5.92188 16.8555C6.11419 16.7913 6.3065 16.9836 6.40266 17.1439Z" fill="white"/>
<path d="M11.9806 19.164C11.9806 19.2282 11.9165 19.2282 11.8844 19.2282C11.8203 19.2282 11.8203 19.1962 11.8203 19.164C11.8203 19.0679 11.9486 19.1321 11.9806 19.164Z" fill="white"/>
<path d="M10.3433 8.80798C10.3753 8.90413 10.3111 8.96833 10.2152 8.96833C10.0549 8.96833 9.92677 8.96833 9.83062 8.84015C9.70245 8.744 9.76642 8.61568 9.7986 8.48758C9.8628 8.4236 9.92677 8.4236 9.9909 8.45555C10.1188 8.55148 10.2472 8.67988 10.3433 8.80798Z" fill="#6F6F6F"/>
<path d="M11.05 9.00049C11.05 9.09672 10.9858 9.19287 10.9218 9.28902C10.8577 9.32119 10.7937 9.28902 10.7937 9.22504C10.7617 9.12889 10.8256 9.00049 10.8898 8.93659C10.9538 8.90419 11.05 8.93637 11.05 9.00049Z" fill="#6F6F6F"/>
<path d="M10.2508 9.89894V10.1234C10.0264 10.3477 10.0264 10.7326 9.7058 10.8607C9.60965 10.8607 9.54545 10.8287 9.54545 10.7326C9.54545 10.6042 9.5135 10.4119 9.54545 10.2838C9.67363 10.2196 9.7058 10.4761 9.8339 10.3479C9.8981 10.1554 10.0584 9.99531 10.1546 9.83496C10.1865 9.83496 10.2508 9.86691 10.2508 9.89894Z" fill="#6F6F6F"/>
<path d="M0.726562 6.02051H19.7684V7.3349H0.726562V6.02051Z" fill="#6F6F6F"/>
<path d="M0.726562 6.02051H19.7684V7.3349H0.726562V6.02051Z" stroke="#6F6F6F" stroke-width="0.052787"/>
<path d="M14.8984 6.24316H17.0463V7.10876H14.8984V6.24316Z" fill="white"/>
<path d="M10.1875 6.24316H12.3353V7.10876H10.1875V6.24316Z" fill="white"/>
<path d="M5.44141 6.24316H7.62118V7.10876H5.44141V6.24316Z" fill="white"/>
<path d="M0.953125 6.24316H2.90862V7.10876H0.953125V6.24316Z" fill="white"/>
<path d="M18.9055 1.30656C19.0658 1.49888 18.9696 1.78734 19.0017 2.01184C19.162 2.13998 19.5466 2.01184 19.5788 2.33249C19.6107 2.46063 19.5146 2.55699 19.4506 2.62096C19.3225 2.7493 19.13 2.62095 19.0338 2.7493C19.0019 3.13392 19.0338 3.55073 19.0338 3.99953C19.162 4.06349 19.2903 4.06349 19.4184 4.12766C19.4826 4.19183 19.5466 4.28798 19.5466 4.38414C19.5466 4.48029 19.4824 4.57645 19.3543 4.60864C19.2582 4.67281 19.0658 4.60864 19.0336 4.73698C18.9695 4.92929 19.0336 5.18577 19.0017 5.41028C18.8735 5.47424 18.681 5.47424 18.5208 5.47424H16.9822C16.854 5.53841 16.6937 5.69854 16.5014 5.60238C16.1808 5.41007 15.732 5.47424 15.3793 5.44205H14.2572C14.0649 5.24974 14.193 4.96107 14.1291 4.73677C14.0649 4.60843 13.8406 4.6726 13.7123 4.60843C13.5842 4.54427 13.5842 4.41612 13.5842 4.31997C13.5842 4.19183 13.7123 4.12766 13.8406 4.09547C13.9368 4.03151 14.0971 4.12745 14.1291 3.99932C14.1291 3.61449 14.0971 3.19789 14.1291 2.84525C14.0971 2.62075 13.8084 2.74909 13.6803 2.65294C13.5522 2.58877 13.5522 2.42844 13.5842 2.30029C13.6803 2.0758 13.9368 2.13998 14.1291 2.0758L14.1611 2.01163L14.193 1.33834L14.2253 1.27417L15.9885 1.30615C16.1808 1.30615 16.3731 1.40231 16.5656 1.46648C16.9502 1.17801 17.4951 1.33834 17.9439 1.24219C18.2644 1.30656 18.5848 1.24259 18.9055 1.30656Z" fill="#6F6F6F"/>
<path d="M18.9055 1.30656C19.0658 1.49888 18.9696 1.78734 19.0017 2.01184C19.162 2.13998 19.5466 2.01184 19.5788 2.33249C19.6107 2.46063 19.5146 2.55699 19.4506 2.62096C19.3225 2.7493 19.13 2.62095 19.0338 2.7493C19.0019 3.13392 19.0338 3.55073 19.0338 3.99953C19.162 4.06349 19.2903 4.06349 19.4184 4.12766C19.4826 4.19183 19.5466 4.28798 19.5466 4.38414C19.5466 4.48029 19.4824 4.57645 19.3543 4.60864C19.2582 4.67281 19.0658 4.60864 19.0336 4.73698C18.9695 4.92929 19.0336 5.18577 19.0017 5.41028C18.8735 5.47424 18.681 5.47424 18.5208 5.47424H16.9822C16.854 5.53841 16.6937 5.69854 16.5014 5.60238C16.1808 5.41007 15.732 5.47424 15.3793 5.44205H14.2572C14.0649 5.24974 14.193 4.96107 14.1291 4.73677C14.0649 4.60843 13.8406 4.6726 13.7123 4.60843C13.5842 4.54426 13.5842 4.41612 13.5842 4.31997C13.5842 4.19183 13.7123 4.12766 13.8406 4.09547C13.9368 4.03151 14.0971 4.12745 14.1291 3.99932C14.1291 3.61449 14.0971 3.19789 14.1291 2.84525C14.0971 2.62075 13.8084 2.74909 13.6803 2.65294C13.5522 2.58877 13.5522 2.42844 13.5842 2.30029C13.6803 2.0758 13.9368 2.13997 14.1291 2.0758L14.1611 2.01163L14.193 1.33834L14.2253 1.27417L15.9885 1.30615C16.1808 1.30615 16.3731 1.40231 16.5656 1.46648C16.9502 1.17801 17.4951 1.33834 17.9439 1.24219C18.2644 1.30656 18.5848 1.24259 18.9055 1.30656Z" stroke="#6F6F6F" stroke-width="0.0537997"/>
<path d="M12.5593 1.27419C12.6235 1.27419 12.7196 1.33836 12.7837 1.37034C12.8479 1.62683 12.7838 1.81913 12.8479 2.04363C13.0083 2.1078 13.2648 2.04363 13.3609 2.26813C13.3929 2.36429 13.3929 2.52462 13.3289 2.58858C13.2008 2.74891 12.9121 2.58858 12.816 2.78089C12.784 3.22968 12.784 3.58232 12.816 3.99914C12.9443 4.12727 13.1686 4.03112 13.2967 4.19144C13.3609 4.25561 13.3929 4.35177 13.3609 4.44793C13.2648 4.60825 13.0402 4.60825 12.8479 4.64024C12.7838 4.7042 12.8479 4.83254 12.816 4.89671C12.7518 5.05704 12.9121 5.28134 12.7198 5.37749C12.1749 5.44146 11.6941 5.3453 11.1491 5.37749H10.6362C10.508 5.47364 10.3155 5.60179 10.1554 5.50563L9.83473 5.37749C9.45013 5.37749 9.09748 5.37749 8.71288 5.37749C8.45638 5.37749 8.10373 5.47364 7.91143 5.24915C7.91143 5.05684 7.94338 4.83233 7.91143 4.64003C7.71913 4.57586 7.39847 4.67201 7.30231 4.41553C7.27032 4.35136 7.30231 4.22322 7.33429 4.15905C7.46244 3.96674 7.81506 4.12706 7.94338 3.96674V3.38981C7.97541 3.13332 7.94338 2.90903 7.94338 2.65255C7.75108 2.58838 7.39847 2.68454 7.36628 2.39607C7.3343 2.23574 7.43045 2.1076 7.55856 2.07562C7.68673 2.04363 7.87926 2.1076 7.94323 1.97946L7.97518 1.37034C8.13553 1.11386 8.52013 1.27419 8.74461 1.2422H9.93066C10.123 1.27419 10.2833 1.43451 10.4756 1.33836C11.0528 1.11386 11.8542 1.33836 12.5593 1.27419Z" fill="#6F6F6F"/>
<path d="M12.5562 1.27419C12.6204 1.27419 12.7166 1.33836 12.7807 1.37034C12.8449 1.62683 12.7807 1.81913 12.8449 2.04363C13.0052 2.1078 13.2617 2.04363 13.3578 2.26813C13.3898 2.36429 13.3898 2.52462 13.3259 2.58858C13.1977 2.74891 12.909 2.58858 12.8129 2.78089C12.7809 3.22968 12.7809 3.58232 12.8129 3.99914C12.9413 4.12727 13.1655 4.03112 13.2937 4.19144C13.3578 4.25561 13.3898 4.35177 13.3578 4.44793C13.2617 4.60825 13.0372 4.60825 12.8449 4.64024C12.7807 4.7042 12.8449 4.83254 12.8129 4.89671C12.7487 5.05704 12.909 5.28134 12.7167 5.37749C12.1718 5.44146 11.691 5.3453 11.1461 5.37749H10.6331C10.505 5.47364 10.3124 5.60179 10.1523 5.50563L9.83168 5.37749C9.44708 5.37749 9.09443 5.37749 8.70975 5.37749C8.45333 5.37749 8.10068 5.47364 7.90838 5.24915C7.90838 5.05684 7.94033 4.83233 7.90838 4.64003C7.71608 4.57586 7.39539 4.67201 7.29924 4.41553C7.26726 4.35136 7.29924 4.22322 7.33122 4.15905C7.45936 3.96674 7.812 4.12706 7.94033 3.96674V3.38981C7.97235 3.13332 7.94033 2.90903 7.94033 2.65255C7.74803 2.58838 7.39539 2.68454 7.3632 2.39607C7.33122 2.23574 7.42737 2.1076 7.5555 2.07562C7.68368 2.04363 7.8762 2.1076 7.9401 1.97946L7.97213 1.37034C8.13248 1.11386 8.51708 1.27419 8.74155 1.2422H9.9276C10.1199 1.27419 10.2803 1.43451 10.4726 1.33836C11.0497 1.11386 11.8511 1.33836 12.5562 1.27419ZM3.83683 1.40233C4.47794 1.14584 5.18322 1.33815 5.88849 1.27398C6.0808 1.30597 6.33728 1.17782 6.46563 1.37014C6.46563 1.56245 6.46563 1.75476 6.46563 1.97926C6.5298 2.13959 6.75408 2.04343 6.85024 2.1076C6.91441 2.13959 6.97838 2.17157 7.01057 2.26793C7.04255 2.36408 7.01057 2.46024 6.97858 2.55639C6.85044 2.68453 6.69012 2.65255 6.5298 2.68453L6.46563 2.74871C6.49761 3.13333 6.40145 3.45398 6.46563 3.80661C6.46563 3.87058 6.43364 3.99893 6.5298 4.03111C6.72211 4.03111 6.88243 4.03111 7.01078 4.15925C7.07495 4.2554 7.07494 4.35157 7.04275 4.47991C6.97858 4.86453 6.36967 4.41573 6.43385 4.86452C6.43385 5.02485 6.46583 5.24915 6.40165 5.40947C5.69638 5.40947 4.99111 5.3453 4.35001 5.40947C4.22187 5.50563 4.09352 5.5698 3.90121 5.60178C3.77307 5.5698 3.64473 5.50563 3.54857 5.40947C2.90747 5.37749 2.29835 5.37749 1.68923 5.37749C1.49692 5.21717 1.62506 4.9287 1.56109 4.7042C1.46493 4.57607 1.30461 4.67222 1.17648 4.60805C1.08032 4.60805 1.04834 4.51189 1.01615 4.44772C1.01615 4.31938 1.01615 4.19123 1.1123 4.09508C1.20846 4.03112 1.36878 4.03111 1.49692 4.03111L1.56109 3.96695C1.5289 3.55013 1.62527 3.13353 1.52891 2.68474C1.46474 2.58858 1.33659 2.68474 1.27242 2.62057C1.14429 2.58859 1.01595 2.52441 0.98396 2.39627C0.95198 2.30012 0.95198 2.20397 1.04813 2.10781C1.17627 1.94748 1.43275 2.13979 1.56109 1.97946L1.62527 1.37034C1.72143 1.17803 1.94592 1.27419 2.13823 1.27419C2.45888 1.21022 2.84351 1.27419 3.16396 1.27419C3.42003 1.27419 3.64453 1.33836 3.83683 1.40233Z" stroke="#6F6F6F" stroke-width="0.0537997"/>
<path d="M3.74322 1.56294L3.80739 1.69128C3.83957 2.55688 3.83958 3.42229 3.83958 4.35185L3.80739 4.67251C3.5831 4.67251 3.3586 4.57635 3.1343 4.60834C2.87782 4.57635 2.62134 4.64032 2.39705 4.57635C2.26891 4.28788 2.36507 3.96723 2.33288 3.64678C2.33288 3.00568 2.36486 2.20425 2.36486 1.53096C2.36486 1.46679 2.42903 1.46679 2.46101 1.4348C2.90981 1.46679 3.39058 1.33865 3.74322 1.56294Z" fill="white"/>
<path d="M2.04232 1.49951C1.91418 1.59566 1.75385 1.756 1.81782 1.91633C1.88199 3.00642 1.81782 3.96797 1.88199 4.9939L1.97815 5.09006C2.49111 5.09006 3.03606 5.02589 3.51683 5.12204C3.54882 5.12204 3.54882 5.18601 3.51683 5.18601C3.3887 5.25018 3.22837 5.21798 3.10003 5.21798L1.78563 5.18601C1.68947 5.12204 1.72146 4.96151 1.72146 4.83337C1.72146 4.70503 1.75345 4.5449 1.62531 4.48073C1.433 4.44875 1.27267 4.48073 1.14453 4.35239C1.24069 4.09591 1.65749 4.28843 1.72166 4.03194C1.75364 3.55096 1.68968 3.07019 1.72166 2.62139C1.65749 2.36512 1.40102 2.42909 1.2087 2.3971C1.17672 2.36512 1.14453 2.33313 1.14453 2.26896C1.30486 2.10863 1.6253 2.30094 1.72166 2.07665C1.78583 1.88434 1.72166 1.69202 1.75365 1.46753C1.81782 1.43555 1.94596 1.43555 2.04212 1.43555L2.04232 1.49951Z" fill="white"/>
<path d="M5.66561 1.49968C5.66561 2.55759 5.66561 3.55134 5.66561 4.54507C5.15265 4.60924 4.57572 4.51309 4.06276 4.64123C3.93462 4.54507 4.03078 4.38474 3.99859 4.22442C3.96661 3.90377 3.99859 3.51915 3.99859 3.1665C3.99859 2.65354 3.96661 2.1086 3.99859 1.59564C4.06276 1.43531 4.25507 1.40332 4.41539 1.40332H5.63363L5.66561 1.49968Z" fill="white"/>
<path d="M6.27142 1.49951C6.30341 1.69202 6.20726 1.98049 6.3356 2.1728C6.46374 2.23697 6.65626 2.20479 6.78439 2.23697C6.84856 2.30115 6.81637 2.36532 6.78439 2.42928C6.65626 2.55763 6.3356 2.39731 6.27142 2.6216C6.27142 3.13457 6.23944 3.61534 6.27142 4.1283L6.3356 4.19247C6.49593 4.22445 6.72022 4.16048 6.81638 4.28863C6.81638 4.35259 6.81637 4.44896 6.7522 4.48094C6.59188 4.51292 6.3354 4.41677 6.23924 4.60908C6.20726 4.80139 6.27122 5.02588 6.20725 5.21819L6.1111 5.25017L4.28374 5.21819C4.25176 5.18621 4.28374 5.15423 4.28374 5.15423L4.47605 5.09006H5.95057C6.11089 5.05807 6.11089 4.86556 6.11089 4.73741C6.11089 4.00016 6.11089 3.39104 6.11089 2.68577C6.11089 2.33313 6.17506 2.01248 6.0787 1.65984C6.0787 1.59587 5.95057 1.5317 5.95057 1.43555C6.07912 1.43555 6.20746 1.43555 6.27142 1.49951Z" fill="white"/>
<path d="M14.5764 1.49741C14.5444 1.59357 14.4161 1.68993 14.3841 1.78588C14.3841 2.84379 14.3841 3.99785 14.4161 5.08774L14.5122 5.15192C15.0893 5.15192 15.6983 5.02358 16.1792 5.28006C16.2113 5.28006 16.1792 5.28006 16.1792 5.31205C15.5702 5.31205 14.9291 5.34403 14.3199 5.31205L14.2557 5.24787C14.2238 5.02337 14.2877 4.79908 14.1916 4.57458C14.0634 4.44644 13.6466 4.60656 13.7428 4.31809C13.9031 4.18996 14.1274 4.35008 14.2238 4.15777C14.2238 3.61282 14.2557 3.13205 14.2238 2.61908C14.0956 2.45876 13.9031 2.55512 13.7428 2.52293C13.6786 2.45876 13.6466 2.39458 13.7108 2.33062C13.8711 2.20228 14.3841 2.3626 14.288 1.97798C14.3521 1.81765 14.2238 1.497 14.4482 1.46502C14.4803 1.43344 14.5444 1.43344 14.5764 1.49741Z" fill="white"/>
<path d="M18.8072 1.49912C18.8714 1.7556 18.743 1.98009 18.9033 2.20439C19.0315 2.26856 19.2879 2.17241 19.3521 2.33274C19.3521 2.65318 18.9033 2.3967 18.8072 2.65318C18.8391 3.13416 18.7751 3.55077 18.8072 4.06373C18.743 4.09572 18.743 4.15989 18.7751 4.19208C18.9033 4.32021 19.0958 4.1279 19.256 4.25625C19.3521 4.28823 19.2879 4.3524 19.2879 4.41657C19.1598 4.5769 18.9033 4.38459 18.8069 4.60888L18.775 5.24999L18.6788 5.28198H16.9478C16.9158 5.24999 16.9478 5.24999 16.9478 5.2178L17.1401 5.15383H18.4545C18.5187 5.15383 18.6149 5.08966 18.6149 4.9935C18.6149 3.96758 18.5828 2.90967 18.5828 1.81977L18.4226 1.49912C18.5827 1.43515 18.775 1.40296 18.8072 1.49912Z" fill="white"/>
<path d="M14.7675 1.91441C14.7675 2.8122 14.7675 3.77375 14.7675 4.70332C14.7355 4.76749 14.6393 4.83166 14.6072 4.86365L14.543 4.83166C14.543 4.54319 14.543 4.19056 14.543 3.90189V3.67739C14.543 3.06827 14.543 2.39518 14.543 1.78606C14.6072 1.7221 14.6391 1.62574 14.7033 1.59375C14.7675 1.7221 14.7675 1.78628 14.7675 1.91441Z" fill="white"/>
<path d="M18.5519 1.78665C18.5199 2.52391 18.5519 3.1972 18.5519 3.87028C18.5519 4.19094 18.5519 4.4794 18.5519 4.76808C18.5519 4.80006 18.5519 4.80006 18.5199 4.83204C18.2954 4.73588 18.3918 4.51159 18.3596 4.28709C18.3596 4.03061 18.3276 3.70996 18.3915 3.4215L18.3596 3.32533V1.62632C18.4236 1.53017 18.5197 1.6905 18.5519 1.78665Z" fill="white"/>
<path d="M6.01677 1.72335C6.01677 2.78106 6.01677 3.80699 5.98478 4.73676C5.9528 4.80073 5.92061 4.73676 5.85665 4.70458C5.79248 4.54425 5.85665 4.35193 5.85665 4.19182C5.82467 3.3584 5.85665 2.4928 5.85665 1.65918C5.92061 1.59522 5.98478 1.69137 6.01677 1.72335Z" fill="white"/>
<path d="M16.6588 3.03888C16.6268 3.10305 16.5307 3.10305 16.4665 3.07086L16.4023 3.03888C16.4343 2.91074 16.4023 2.71843 16.5304 2.62207C16.6266 2.71822 16.5946 2.91053 16.6588 3.03888Z" fill="white"/>
<path d="M5.89043 4.89763C5.85845 4.9616 5.73009 4.92961 5.66613 4.96159H5.24932C4.92866 4.96159 4.57603 4.92961 4.28756 4.99379C4.22339 4.99379 4.19141 4.92961 4.19141 4.86544C4.22339 4.7373 4.38372 4.80127 4.47988 4.7373C4.86449 4.7373 5.34527 4.7373 5.7301 4.7373C5.76208 4.76928 5.82626 4.83346 5.89043 4.89763Z" fill="white"/>
<path d="M3.70815 4.83351C3.70815 4.89768 3.64398 4.96165 3.58002 4.99384C3.1632 4.8655 2.71442 4.96166 2.26562 4.89769C2.2976 4.83351 2.36178 4.76955 2.45793 4.76955C2.87474 4.76934 3.32333 4.76934 3.70815 4.83351Z" fill="white"/>
<path d="M16.3724 4.89648C16.4044 4.92846 16.4044 4.99263 16.3724 4.99263C16.212 5.18495 16.0197 4.96045 15.8274 4.99263C15.5068 4.96045 15.1221 4.99263 14.7695 4.96044C14.8657 4.67198 15.2505 4.83231 15.4748 4.80012C15.7955 4.83231 16.1161 4.73616 16.3724 4.89648Z" fill="white"/>
<path d="M18.2958 4.8337C18.36 4.86568 18.424 4.92986 18.424 4.99403C17.879 5.058 17.3661 4.92986 16.8853 5.058C16.8212 5.058 16.7891 4.96184 16.8212 4.89767C16.9173 4.76953 17.0776 4.80151 17.2377 4.76953L18.2958 4.8337Z" fill="white"/>
<path d="M4.12708 5.08831C4.15927 5.18447 4.12708 5.31281 4.06291 5.37677C3.99873 5.44074 3.90258 5.44075 3.83862 5.40876C3.77445 5.40876 3.74246 5.3126 3.74246 5.24843C3.71048 5.1203 3.8706 5.05612 3.93477 4.95996C4.03092 4.95996 4.0951 5.02414 4.12708 5.08831Z" fill="white"/>
<path d="M16.7574 5.15255C16.7574 5.2807 16.7574 5.44102 16.6292 5.44102C16.5331 5.44102 16.4369 5.40904 16.4048 5.31288C16.3728 5.18453 16.469 5.0564 16.5329 5.02441C16.6613 5.02421 16.7252 5.08838 16.7574 5.15255Z" fill="white"/>
<path d="M12.0431 1.53191C12.0431 2.52564 12.0431 3.58355 12.0431 4.5773L11.9789 4.60928C11.4339 4.67345 10.889 4.51313 10.3761 4.70543C10.2799 4.64147 10.3761 4.51312 10.344 4.41697C10.344 3.55136 10.344 2.65378 10.344 1.72421C10.344 1.62806 10.408 1.56389 10.4722 1.5317C10.6003 1.43555 10.7928 1.46753 10.9851 1.43555L12.0109 1.46753L12.0431 1.53191Z" fill="white"/>
<path d="M12.6511 1.49948C12.6511 1.72398 12.6511 1.94827 12.6831 2.17277C12.8434 2.30111 13.2922 2.1088 13.196 2.46123C13.0679 2.55739 12.8754 2.49321 12.715 2.5254L12.6508 2.55739C12.5867 3.07015 12.6829 3.61509 12.6508 4.06389C12.6508 4.12806 12.6829 4.19223 12.779 4.22421C12.9071 4.22421 13.1317 4.12806 13.1958 4.32037C13.1638 4.64103 12.779 4.35236 12.6508 4.57686C12.6189 4.80135 12.715 5.02565 12.6189 5.25015L12.5547 5.28213C11.8816 5.28213 11.2405 5.28213 10.6314 5.25015C10.5994 5.25015 10.6314 5.18598 10.6314 5.18598L10.7596 5.12201C11.2725 5.05783 11.8495 5.12201 12.3944 5.05784C12.4585 5.05784 12.5225 4.99386 12.5225 4.8975C12.5225 3.90377 12.5225 2.91003 12.5225 1.78794C12.4906 1.62762 12.3302 1.53147 12.3302 1.40332C12.4266 1.43551 12.5869 1.40332 12.6511 1.49948Z" fill="white"/>
<path d="M8.3568 1.46638C8.32485 1.59473 8.2287 1.62671 8.1645 1.72287C8.1003 1.91518 8.1645 2.13948 8.13255 2.36397C8.13255 3.26156 8.13255 4.09497 8.13255 4.96056C8.13255 5.02474 8.19667 5.08891 8.26065 5.1209L9.639 5.15288C9.7032 5.15288 9.79935 5.18487 9.86355 5.24904C9.83152 5.31321 9.73537 5.31321 9.67117 5.31321C9.15825 5.31321 8.6133 5.34519 8.1003 5.28123L8.03617 5.24924C8.03617 5.02474 8.03617 4.76847 7.94002 4.57595C7.77967 4.51198 7.58737 4.57595 7.42704 4.51198C7.36286 4.48 7.36286 4.38364 7.42704 4.31947C7.58737 4.22331 7.90785 4.38364 8.00415 4.12716C8.00415 3.61419 8.03617 3.13342 8.00415 2.62046C7.87605 2.42814 7.55535 2.62045 7.42704 2.42814C7.49121 2.13968 7.87582 2.39616 8.00415 2.13968L8.03617 1.53056C8.16427 1.4344 8.26065 1.4344 8.3568 1.46638Z" fill="white"/>
<path d="M8.55077 1.62569C8.58279 2.52328 8.48657 3.32471 8.55077 4.2223C8.48657 4.41461 8.64692 4.73526 8.35847 4.76724C8.29427 3.86945 8.35847 2.9079 8.32652 1.94615C8.29449 1.78582 8.39064 1.65768 8.51882 1.56152L8.55077 1.62569Z" fill="white"/>
<path d="M12.3965 1.78689C12.3965 2.78064 12.4284 3.83855 12.3645 4.76832C12.3003 4.76832 12.2364 4.70415 12.2364 4.67217C12.2364 4.28754 12.1722 3.87073 12.2043 3.45393C12.2364 2.90898 12.1724 2.2359 12.2364 1.65876C12.3003 1.62657 12.3965 1.72272 12.3965 1.78689Z" fill="white"/>
<path d="M10.027 4.83345C10.0912 4.83345 10.1552 4.89763 10.0912 4.96159L9.99503 5.05776C9.54623 4.89743 8.96926 4.99379 8.48828 4.92962C8.52031 4.86544 8.55248 4.80127 8.61646 4.7373C9.09743 4.80127 9.57818 4.7373 10.027 4.83345Z" fill="white"/>
<path d="M12.0749 4.7691C12.1391 4.80108 12.2031 4.86526 12.2031 4.92943L12.1389 4.96141C11.5939 4.96141 11.049 4.89744 10.5361 5.02558C10.4719 5.02558 10.3757 5.02558 10.3438 4.92943C10.4076 4.80108 10.536 4.7691 10.6644 4.7691C11.1773 4.73711 11.6261 4.7691 12.0749 4.7691Z" fill="white"/>
<path d="M10.411 5.21756C10.411 5.31371 10.411 5.44205 10.2829 5.44205C10.1868 5.44205 10.0586 5.44205 10.0586 5.31392C10.0906 5.21776 10.1547 5.15359 10.2509 5.08941C10.347 5.05723 10.3791 5.15359 10.411 5.21756Z" fill="white"/>
<path d="M10.1536 3.5834C10.2178 3.07044 10.1536 2.49351 10.1857 1.98054C10.1857 1.82022 10.1857 1.65989 10.0895 1.53175C9.70491 1.37142 9.22386 1.46758 8.77514 1.4356C8.74311 1.4356 8.71094 1.43559 8.71094 1.46757C8.71094 2.49351 8.71094 3.45506 8.71094 4.449L8.74289 4.57714C9.06359 4.64132 9.35204 4.60913 9.67266 4.60913C9.83301 4.64111 9.99314 4.6733 10.1535 4.70529C10.1535 4.35264 10.1854 4.09616 10.1535 3.74352L10.1536 3.5834Z" fill="white"/>
<path d="M10.0243 3.54917C9.86392 3.42083 9.83197 3.22852 9.70357 3.0684C9.76777 3.00443 9.83174 2.97224 9.89587 2.90807C9.99209 2.81191 10.0882 2.65159 10.0562 2.52345C10.0562 2.3951 9.99209 2.26696 9.86392 2.20279C9.60742 2.10664 9.25477 2.13862 8.96632 2.17081C8.90219 2.20279 8.90219 2.23498 8.93437 2.29915C9.03052 2.29915 9.09472 2.36333 9.09472 2.45948C9.09472 2.81212 9.09472 3.16476 9.03052 3.51739L8.90234 3.67772C9.03052 3.80606 9.22304 3.70971 9.44729 3.74189C9.51149 3.64574 9.35114 3.58156 9.31919 3.48541C9.35137 3.38926 9.31919 3.22893 9.38332 3.16496C9.57569 3.32529 9.63982 3.61375 9.86414 3.77408L10.1526 3.80606V3.64573C10.1526 3.61334 10.0564 3.54917 10.0243 3.54917ZM9.63959 2.90807C9.54344 2.90807 9.41534 2.97224 9.38317 2.8439C9.38317 2.68357 9.31897 2.45927 9.38317 2.29895C9.51127 2.20279 9.67162 2.23478 9.76777 2.36312C9.83197 2.45928 9.83197 2.55543 9.83197 2.68357C9.76777 2.77993 9.73582 2.87608 9.63959 2.90807Z" fill="#6F6F6F"/>
<path d="M18.2312 1.81997C18.2312 1.69183 18.2312 1.56348 18.167 1.46732H17.6863C17.3656 1.5315 16.981 1.40336 16.6925 1.59567C16.5643 1.756 16.6283 1.91612 16.5964 2.10864C16.6283 2.20479 16.6605 2.33313 16.6925 2.42909L16.6283 2.55743L16.468 2.49326L16.4038 2.36512C16.4358 2.30095 16.468 2.23678 16.468 2.14062C16.468 1.91612 16.5322 1.59567 16.2437 1.49951C15.8269 1.46753 15.4423 1.43555 14.9935 1.43555C14.9615 1.43555 14.9293 1.43555 14.9293 1.46753C14.9293 2.46127 14.9293 3.32687 14.9293 4.28863C14.9293 4.41677 14.8973 4.5449 15.0255 4.60908C15.4101 4.5449 15.7307 4.60908 16.0834 4.60908C16.2115 4.60908 16.3078 4.73742 16.468 4.70523C16.5002 4.32061 16.5002 3.83984 16.5002 3.39105C16.5002 3.35906 16.5002 3.2627 16.436 3.2627V3.16655L16.6605 3.19853L16.6925 3.2625C16.6925 3.2625 16.6925 3.2625 16.6605 3.29448L16.6285 4.60888C16.6285 4.64086 16.6285 4.73722 16.7247 4.73722C17.1093 4.51272 17.6223 4.67305 18.0711 4.60888L18.1672 4.57689C18.2314 4.35239 18.1992 3.58315 18.1992 3.58315C18.2312 3.00622 18.2312 2.42909 18.2312 1.81997Z" fill="white"/>
<path d="M16.7256 3.26295C16.7898 3.32713 16.8218 3.42328 16.7898 3.51944L16.6937 3.64778L16.7579 3.71174C16.9182 3.71174 17.1105 3.74372 17.2708 3.67976C17.2389 3.61559 17.1427 3.58361 17.0785 3.51944C16.8862 3.03866 16.7579 2.55767 16.6297 2.04492L16.4694 2.14108C16.3732 2.58987 16.2129 2.9747 16.0848 3.42329C16.0528 3.51944 15.9567 3.51944 15.8925 3.58361C15.7963 3.61559 15.7643 3.51944 15.7321 3.45526C15.7321 3.07064 15.7641 2.74999 15.7321 2.33339C15.7321 2.26922 15.7963 2.20505 15.8603 2.26922C15.9564 2.33339 15.9564 2.46152 15.9884 2.52569C16.0526 2.55767 16.1166 2.55768 16.1166 2.49371L16.1807 2.10909C16.1166 1.98075 16.0204 2.10909 15.9243 2.10909C15.732 2.10909 15.4755 2.14107 15.2832 2.04492C15.1228 2.10909 15.155 2.30141 15.155 2.46173C15.155 2.49371 15.155 2.5259 15.155 2.5259C15.2832 2.42975 15.3473 2.23743 15.5076 2.26942V2.65404V3.48745C15.4434 3.55163 15.3153 3.58361 15.3473 3.67976C15.5718 3.74393 15.8281 3.67976 16.0526 3.71174C16.1807 3.71174 16.3091 3.74373 16.4372 3.71174C16.4692 3.67976 16.4372 3.64778 16.4372 3.61559C16.3731 3.58361 16.2768 3.51944 16.3091 3.42329C16.341 3.35932 16.3732 3.23097 16.4694 3.26295C16.5016 3.26295 16.5016 3.26295 16.5336 3.29494L16.7259 3.32692C16.6937 3.29494 16.6937 3.26295 16.7256 3.26295ZM16.4372 3.10262L16.3731 3.07064C16.405 2.94251 16.3731 2.75019 16.5012 2.65383C16.6293 2.718 16.5973 2.91032 16.6615 3.03845C16.6295 3.10262 16.5014 3.10262 16.4372 3.10262Z" fill="#6F6F6F"/>
<path d="M17.9104 2.20291C17.9104 2.29906 17.9746 2.45938 17.9104 2.52355C17.8143 2.45938 17.8143 2.36323 17.654 2.33125C17.5898 2.33125 17.4936 2.33125 17.4936 2.4274C17.4617 2.71587 17.7501 2.71587 17.9104 2.8762C18.0708 3.03652 18.135 3.26081 18.0708 3.45313C18.0066 3.61345 17.9427 3.67762 17.7823 3.67762C17.6541 3.7096 17.5578 3.61345 17.4618 3.67762C17.4297 3.67762 17.3977 3.7096 17.3657 3.67762V3.16487C17.3657 3.13288 17.3977 3.13288 17.4299 3.13288C17.494 3.29321 17.4621 3.48553 17.6864 3.51751C17.7503 3.51751 17.8145 3.48553 17.8467 3.38937C17.8787 2.94058 17.2695 3.03673 17.2695 2.55595C17.2695 2.4598 17.3016 2.36364 17.3337 2.26749C17.4299 2.10716 17.6864 2.20332 17.8467 2.10716C17.8782 2.07477 17.8782 2.17092 17.9104 2.20291Z" fill="#6F6F6F"/>
<path d="M11.4354 2.17161C11.3073 2.23578 11.1789 2.33194 11.2109 2.52425C11.1789 2.8447 11.1789 3.16535 11.2109 3.4858L11.4032 3.67811V3.71009C11.1789 3.71009 10.9866 3.74208 10.7621 3.71009C10.666 3.61394 10.8903 3.54977 10.9225 3.4856C10.9544 3.13296 10.9866 2.74834 10.9544 2.36372C10.8903 2.23538 10.6979 2.26757 10.7302 2.13922C10.9225 2.10724 11.179 2.10724 11.3713 2.13922L11.4354 2.17161Z" fill="#6F6F6F"/>
<path d="M5.14933 2.42954C5.02099 2.58986 4.989 2.30141 4.86086 2.26922C4.79669 2.26922 4.66856 2.23723 4.60439 2.3012C4.57241 2.46152 4.54022 2.62164 4.60439 2.78197C4.66856 2.81416 4.76472 2.81416 4.82889 2.81416C4.89306 2.74999 4.95702 2.62165 5.05338 2.62165C5.11755 2.68582 5.0214 2.78198 5.05338 2.84615C5.0214 2.9423 5.11755 3.07064 4.98921 3.10262C4.92504 3.07064 4.86107 2.91032 4.76471 2.91032H4.5724C4.50823 3.13481 4.54042 3.35911 4.5724 3.58361C4.66856 3.67976 4.79691 3.58361 4.92504 3.58361C5.08537 3.55163 5.05317 3.32712 5.18152 3.32712C5.2135 3.42328 5.24569 3.55163 5.2135 3.64778L5.14954 3.71174H4.21977C4.18779 3.71174 4.09163 3.71175 4.12362 3.64778C4.41208 3.45527 4.25175 3.10283 4.28394 2.84635C4.25196 2.65403 4.41208 2.33359 4.12362 2.20525C4.12362 2.14108 4.18779 2.14108 4.21977 2.14108C4.44406 2.14108 4.76472 2.23723 4.95702 2.04492C5.14934 2.10888 5.14933 2.3014 5.14933 2.42954Z" fill="#6F6F6F"/>
<path d="M3.7429 2.23639C3.48642 2.4287 3.48642 2.81352 3.35827 3.10198C3.26212 3.26231 3.2941 3.5188 3.13399 3.64694C3.06981 3.67892 3.00585 3.61474 3.00585 3.55078C2.90969 3.16616 2.81353 2.74936 2.65321 2.36473C2.65321 2.26858 2.36474 2.23639 2.52507 2.14024C2.71738 2.10825 2.84572 2.17222 3.03804 2.14024C3.07002 2.26858 2.90989 2.33275 2.94187 2.46089C3.07001 2.62121 3.00605 2.87769 3.16618 3.07L3.23035 3.00604C3.23035 2.71757 3.58298 2.4289 3.29452 2.17242C3.35869 2.04428 3.55099 2.14044 3.67914 2.10846C3.71092 2.14003 3.80707 2.17222 3.7429 2.23639Z" fill="#6F6F6F"/>
<path d="M2.16956 1.62598C2.23374 2.68389 2.16956 3.67763 2.16956 4.67137C2.16956 4.73554 2.10539 4.79951 2.04142 4.79951C1.97725 4.47906 1.97725 4.1584 2.00944 3.83775C1.97745 3.16446 2.00944 2.45919 2.00944 1.7861C2.00944 1.69015 2.1056 1.62598 2.16956 1.62598Z" fill="white"/>
</g>
<defs>
<clipPath id="clip0_2176_89592">
<rect width="93" height="24" fill="white"/>
</clipPath>
</defs>
</svg>
