<svg width="111" height="24" viewBox="0 0 111 24" fill="none" xmlns="http://www.w3.org/2000/svg">
<g clip-path="url(#clip0_2176_89583)">
<path d="M60.6804 2.88557C61.5826 1.35127 63.3569 0.539133 65.1012 0.509133C66.6954 0.419133 68.4697 0.659135 69.5819 1.92342C69.0097 2.67557 68.4697 3.42771 67.9276 4.17985C67.2955 3.45771 66.7854 2.43556 65.7612 2.22556C64.769 1.92556 63.5047 2.43557 63.2347 3.51985C62.8147 5.23414 63.0547 7.00842 62.9947 8.72273H66.2433V10.647H62.9947C62.9947 13.5634 62.9947 16.482 62.9947 19.3984C62.9947 20.2406 63.1147 21.0527 63.2647 21.8649C64.0169 22.1949 64.799 22.377 65.6412 22.407C65.6412 22.617 65.6412 23.0092 65.6412 23.2192C62.9947 23.0392 60.3183 22.9792 57.6719 23.2192C57.6719 23.0392 57.6719 22.707 57.6719 22.527C58.514 22.377 59.5662 21.9849 59.5962 20.9627C59.9262 17.5342 59.7162 14.0756 59.7762 10.617C59.114 10.617 58.4819 10.617 57.8219 10.617C57.8219 10.317 57.8219 10.0449 57.8219 9.74488C58.484 9.44488 59.1162 9.11273 59.7462 8.75273C59.7183 6.82414 59.6283 4.65985 60.6804 2.88557Z" fill="#6F6F6F"/>
<path d="M108.623 0.512695C106.909 0.902694 105.165 1.23484 103.391 1.32484C103.361 1.47484 103.331 1.80698 103.331 1.95698C103.992 2.16698 105.075 2.10698 105.105 3.00912C105.375 4.87341 105.195 6.76769 105.225 8.63413C102.698 8.21413 99.8719 8.21413 97.7051 9.80627C95.3591 11.4606 94.5465 14.5291 94.7591 17.2956C94.8791 19.4298 95.9608 21.6263 97.8876 22.6484C100.174 23.9106 103.121 23.6406 105.287 22.1963C105.317 22.6163 105.317 23.0684 105.317 23.4906C106.971 23.0706 108.685 22.8284 110.399 22.7384V21.9863C107.963 21.5663 108.655 20.452 108.475 18.5277C108.503 12.5427 108.413 6.5277 108.623 0.512695ZM102.308 10.1963C103.331 10.1963 104.382 10.5263 105.225 11.0984C105.225 14.347 105.225 17.5656 105.225 20.812C103.421 21.6541 100.984 21.5941 99.5694 20.0598C98.3676 18.7656 98.1551 16.8713 98.2451 15.187C98.3651 13.6527 98.6976 11.8784 100.019 10.9163C100.744 10.4363 101.526 10.2263 102.308 10.1963Z" fill="#6F6F6F"/>
<path d="M6.33645 2.49325C8.38074 2.37325 10.4272 2.49326 12.4415 2.79326C12.3215 4.23754 12.3215 5.67969 12.4415 7.12397C12.2615 7.12397 11.8693 7.12397 11.6593 7.12397C11.5093 6.22183 11.3293 5.13969 10.3972 4.74754C8.98291 4.1454 7.32859 4.0854 5.85645 4.50754C3.93216 5.07969 3.60002 7.90611 5.04431 9.13826C6.84859 10.7025 9.04505 11.7247 10.8793 13.259C13.7658 15.5454 13.3758 20.8683 9.9772 22.4625C7.12074 23.7868 3.72216 23.4547 0.773594 22.6125C0.803594 21.1983 0.743594 19.7561 0.683594 18.3418C0.893593 18.3418 1.31574 18.3418 1.55574 18.3118C1.70574 19.214 1.85574 20.2961 2.75788 20.7783C4.38216 21.6804 6.48646 21.7704 8.17074 20.9883C10.2751 19.8161 9.88506 16.4775 7.93074 15.3333C6.21646 14.009 4.26216 13.0468 2.66788 11.5747C0.923593 9.9504 0.713594 7.09397 1.82574 5.07754C2.69574 3.4554 4.56216 2.64325 6.33645 2.49325Z" fill="#6F6F6F"/>
<path d="M18.4873 5.53418C18.6373 5.53418 18.9694 5.56418 19.1494 5.56418C19.1494 6.64632 19.1494 7.73061 19.1494 8.81278H24.1123V10.6771H19.1494C19.1794 13.2935 19.1194 15.8799 19.1794 18.4963C19.2394 19.4885 19.2694 20.7228 20.2016 21.3228C21.3737 22.0149 22.758 21.5928 23.9301 21.1428C24.2901 22.0149 23.388 22.5271 22.728 22.8871C21.2237 23.6092 19.4194 23.6992 17.8851 23.0971C16.5608 22.6149 15.9308 21.1728 15.8708 19.8485C15.7208 16.8099 15.8708 13.7435 15.9008 10.7049H13.9766C13.9766 10.4949 13.9766 10.2849 13.9766 10.1028C16.0208 9.26278 17.4351 7.45847 18.4873 5.53418Z" fill="#6F6F6F"/>
<path d="M31.7536 8.33067C29.5271 8.30067 27.2729 9.41284 26.5507 11.6693C26.7307 11.7893 27.1529 11.9993 27.3329 12.1214C28.205 10.6171 30.1893 9.83498 31.7836 10.7071C33.0157 11.2793 33.1379 12.7814 33.1079 13.9857C31.1536 14.6178 29.1371 15.0978 27.3029 16.03C25.1064 17.2021 24.8064 20.5107 26.4007 22.285C28.265 23.9993 31.3636 23.7293 33.2279 22.105C33.8 23.2171 35.1221 23.6393 36.2664 23.3071C37.2886 23.1271 37.9507 22.285 38.6129 21.5628C38.4929 21.4428 38.2529 21.1728 38.1607 21.0207C37.7407 21.1407 37.2886 21.4407 36.8664 21.1407C36.3243 20.7807 36.4143 20.0586 36.3543 19.4864C36.3843 17.08 36.5343 14.6736 36.3843 12.2693C36.3243 11.0371 35.7521 9.74284 34.67 9.0807C33.77 8.57067 32.7757 8.33067 31.7536 8.33067ZM33.0779 15.82C33.0779 17.4443 33.0779 19.0686 33.0779 20.6928C32.0257 21.145 30.7914 21.595 29.7093 21.0528C28.355 20.3307 28.415 18.1964 29.5293 17.3243C30.6114 16.5721 31.8736 16.24 33.0779 15.82Z" fill="#6F6F6F"/>
<path d="M74.488 8.38784C72.8637 8.41784 71.1795 8.80787 69.8873 9.86216C67.993 11.3964 67.1509 13.9529 67.2409 16.3293C67.2409 18.3736 67.873 20.54 69.4673 21.9243C71.3616 23.5786 74.128 23.7586 76.5045 23.2486C79.0009 22.7064 80.8652 20.5122 81.4073 18.0757C81.9795 15.5193 81.7373 12.5729 79.993 10.5264C78.6387 8.93001 76.5023 8.32784 74.488 8.38784ZM74.518 10.1022C75.3902 10.1322 76.2623 10.4922 76.8345 11.1843C77.8566 12.4464 78.1287 14.1007 78.1887 15.695C78.1887 17.4093 77.9787 19.2436 76.8945 20.6579C75.8423 22.0122 73.5559 22.1922 72.3537 20.9579C71.4216 20.0857 71.0594 18.7914 70.8494 17.5893C70.6394 15.995 70.6995 14.3107 71.1795 12.7764C71.5395 11.7543 72.2316 10.7022 73.3137 10.34C73.7059 10.1622 74.098 10.1022 74.518 10.1022Z" fill="#6F6F6F"/>
<path d="M39.7496 9.38267C41.4939 9.35267 43.2382 9.17267 44.8325 8.45051C44.8925 8.87053 44.9225 9.26267 44.9525 9.68267C46.7868 8.48051 49.1632 7.99837 51.2675 8.75053C52.7718 9.26267 53.8239 10.7348 53.9739 12.2991C54.2739 15.2755 53.8239 18.2841 54.2439 21.2605C54.2739 22.1927 55.2961 22.4027 56.0182 22.5548C56.0182 22.7348 56.0182 23.067 56.0182 23.247C53.5518 23.067 48.6189 23.247 48.6189 23.247V22.5548C48.6189 22.5548 50.3932 22.0427 50.5132 21.5327C50.9332 19.3362 50.8132 17.052 50.8132 14.7955C50.7232 13.4412 50.7532 11.787 49.4889 10.977C48.1046 10.1948 46.4204 10.557 45.0382 11.067C45.0382 13.9534 45.0382 16.872 45.0382 19.7884C45.0682 20.5705 45.0082 21.4427 45.5204 22.1048C45.9404 22.4048 46.4825 22.4648 46.9646 22.587C46.9646 22.767 46.9646 23.0991 46.9646 23.2791C44.5282 23.1291 42.0918 23.0091 39.6875 23.2791C39.6875 23.0991 39.6875 22.767 39.6875 22.587C40.4396 22.407 41.4018 22.197 41.5518 21.2927C41.8818 19.1584 41.6418 16.962 41.7018 14.7955C41.6718 13.5634 41.8218 12.3291 41.5818 11.097C41.4018 10.2548 40.4096 10.3148 39.7475 10.1348C39.7496 9.95481 39.7496 9.56267 39.7496 9.38267Z" fill="#6F6F6F"/>
<path d="M83.0589 9.29361C84.8032 9.26361 86.5175 9.02361 88.1718 8.48145L88.2318 9.74361C89.886 8.3893 92.412 8.05929 94.1863 9.38361L92.322 12.21C91.4503 10.8858 89.706 10.5558 88.3218 11.2479C88.3218 11.2479 88.3218 17.1129 88.3218 20.0593C88.3818 20.7215 88.2918 21.5636 88.8935 21.9836C89.496 22.3436 90.2178 22.3136 90.8778 22.4036C90.8778 22.6136 90.8778 23.0058 90.8778 23.2158C88.2018 23.0358 85.5553 23.0058 82.8789 23.2158V22.4036C83.751 22.2536 84.6232 21.9515 84.7732 21.4415C85.1332 20.1793 84.9532 18.855 85.0132 17.5308C84.9832 15.4565 85.0732 13.38 84.9532 11.3358C84.9532 10.3436 83.811 10.2536 83.0589 10.1036C83.0589 9.86576 83.0589 9.56361 83.0589 9.29361Z" fill="#6F6F6F"/>
</g>
<defs>
<clipPath id="clip0_2176_89583">
<rect width="110.571" height="24" fill="white"/>
</clipPath>
</defs>
</svg>
