<svg preserveAspectRatio="none" width="100%" height="100%" overflow="visible" style="display: block;" viewBox="0 0 281 24" fill="none" xmlns="http://www.w3.org/2000/svg">
<g id="Container">
<rect id="Rectangle 3464778" x="3" y="3" width="10" height="18" rx="1" fill="var(--fill-0, #05BC7E)" fill-opacity="0.2"/>
<rect id="Rectangle 3464779" x="15" y="3" width="15" height="18" rx="1" fill="var(--fill-0, #05BC7E)" fill-opacity="0.2"/>
<rect id="Rectangle 3464780" x="18" y="3" width="15" height="18" rx="1" fill="var(--fill-0, #05BC7E)" fill-opacity="0.2"/>
<rect id="Rectangle 3464781" x="18" y="3" width="15" height="18" rx="1" fill="var(--fill-0, #05BC7E)" fill-opacity="0.2"/>
<rect id="Rectangle 3464783" x="18" y="3" width="15" height="18" rx="1" fill="var(--fill-0, #05BC7E)" fill-opacity="0.2"/>
<rect id="Rectangle 3464782" x="18" y="3" width="15" height="18" rx="1" fill="var(--fill-0, #05BC7E)" fill-opacity="0.2"/>
<rect id="Rectangle 3464784" x="23" y="3" width="15" height="18" rx="1" fill="var(--fill-0, #05BC7E)" fill-opacity="0.2"/>
<rect id="Rectangle 3464786" x="25" y="3" width="15" height="18" rx="1" fill="var(--fill-0, #05BC7E)" fill-opacity="0.2"/>
<rect id="Rectangle 3464787" x="26" y="3" width="15" height="18" rx="1" fill="var(--fill-0, #05BC7E)" fill-opacity="0.2"/>
<rect id="Rectangle 3464785" x="28" y="3" width="15" height="18" rx="1" fill="var(--fill-0, #05BC7E)" fill-opacity="0.2"/>
<rect id="Rectangle 3464788" x="31" y="3" width="15" height="18" rx="1" fill="var(--fill-0, #05BC7E)" fill-opacity="0.2"/>
<rect id="Rectangle 3464789" x="31" y="3" width="15" height="18" rx="1" fill="var(--fill-0, #05BC7E)" fill-opacity="0.2"/>
<rect id="Rectangle 3464790" x="31" y="3" width="15" height="18" rx="1" fill="var(--fill-0, #05BC7E)" fill-opacity="0.2"/>
<rect id="Rectangle 3464791" x="31" y="3" width="15" height="18" rx="1" fill="var(--fill-0, #05BC7E)" fill-opacity="0.2"/>
<rect id="Rectangle 3464792" x="31" y="3" width="15" height="18" rx="1" fill="var(--fill-0, #05BC7E)" fill-opacity="0.2"/>
<rect id="Rectangle 3464793" x="31" y="3" width="15" height="18" rx="1" fill="var(--fill-0, #05BC7E)" fill-opacity="0.2"/>
<rect id="Rectangle 3464794" x="42" y="3" width="15" height="18" rx="1" fill="var(--fill-0, #05BC7E)" fill-opacity="0.2"/>
<rect id="Rectangle 3464795" x="51" y="3" width="15" height="18" rx="1" fill="var(--fill-0, #05BC7E)" fill-opacity="0.2"/>
<line id="Line 822" x1="0.25" y1="5.25" x2="0.25" y2="18.75" stroke="var(--stroke-0, white)" stroke-opacity="0.5" stroke-width="0.5" stroke-linecap="round"/>
<line id="Line 828" x1="40.25" y1="5.25" x2="40.25" y2="18.75" stroke="var(--stroke-0, white)" stroke-opacity="0.5" stroke-width="0.5" stroke-linecap="round"/>
<line id="Line 833" x1="80.25" y1="5.25" x2="80.25" y2="18.75" stroke="var(--stroke-0, white)" stroke-opacity="0.5" stroke-width="0.5" stroke-linecap="round"/>
<line id="Line 838" x1="120.25" y1="5.25" x2="120.25" y2="18.75" stroke="var(--stroke-0, white)" stroke-opacity="0.5" stroke-width="0.5" stroke-linecap="round"/>
<line id="Line 843" x1="160.25" y1="5.25" x2="160.25" y2="18.75" stroke="var(--stroke-0, white)" stroke-opacity="0.5" stroke-width="0.5" stroke-linecap="round"/>
<line id="Line 848" x1="200.25" y1="5.25" x2="200.25" y2="18.75" stroke="var(--stroke-0, white)" stroke-opacity="0.5" stroke-width="0.5" stroke-linecap="round"/>
<line id="Line 823" x1="280.25" y1="5.25" x2="280.25" y2="18.75" stroke="var(--stroke-0, white)" stroke-opacity="0.5" stroke-width="0.5" stroke-linecap="round"/>
<line id="Line 824" x1="8.25" y1="9.25" x2="8.25" y2="15.75" stroke="var(--stroke-0, white)" stroke-opacity="0.5" stroke-width="0.5" stroke-linecap="round"/>
<line id="Line 825" x1="16.25" y1="9.25" x2="16.25" y2="15.75" stroke="var(--stroke-0, white)" stroke-opacity="0.5" stroke-width="0.5" stroke-linecap="round"/>
<line id="Line 826" x1="24.25" y1="9.25" x2="24.25" y2="15.75" stroke="var(--stroke-0, white)" stroke-opacity="0.5" stroke-width="0.5" stroke-linecap="round"/>
<line id="Line 827" x1="32.25" y1="9.25" x2="32.25" y2="15.75" stroke="var(--stroke-0, white)" stroke-opacity="0.5" stroke-width="0.5" stroke-linecap="round"/>
<line id="Line 829" x1="48.25" y1="9.25" x2="48.25" y2="15.75" stroke="var(--stroke-0, white)" stroke-opacity="0.5" stroke-width="0.5" stroke-linecap="round"/>
<line id="Line 830" x1="56.25" y1="9.25" x2="56.25" y2="15.75" stroke="var(--stroke-0, white)" stroke-opacity="0.5" stroke-width="0.5" stroke-linecap="round"/>
<line id="Line 831" x1="64.25" y1="9.25" x2="64.25" y2="15.75" stroke="var(--stroke-0, white)" stroke-opacity="0.5" stroke-width="0.5" stroke-linecap="round"/>
<line id="Line 832" x1="72.25" y1="9.25" x2="72.25" y2="15.75" stroke="var(--stroke-0, white)" stroke-opacity="0.5" stroke-width="0.5" stroke-linecap="round"/>
<line id="Line 834" x1="88.25" y1="9.25" x2="88.25" y2="15.75" stroke="var(--stroke-0, white)" stroke-opacity="0.5" stroke-width="0.5" stroke-linecap="round"/>
<line id="Line 835" x1="96.25" y1="9.25" x2="96.25" y2="15.75" stroke="var(--stroke-0, white)" stroke-opacity="0.5" stroke-width="0.5" stroke-linecap="round"/>
<line id="Line 836" x1="104.25" y1="9.25" x2="104.25" y2="15.75" stroke="var(--stroke-0, white)" stroke-opacity="0.5" stroke-width="0.5" stroke-linecap="round"/>
<line id="Line 837" x1="112.25" y1="9.25" x2="112.25" y2="15.75" stroke="var(--stroke-0, white)" stroke-opacity="0.5" stroke-width="0.5" stroke-linecap="round"/>
<line id="Line 839" x1="128.25" y1="9.25" x2="128.25" y2="15.75" stroke="var(--stroke-0, white)" stroke-opacity="0.5" stroke-width="0.5" stroke-linecap="round"/>
<line id="Line 840" x1="136.25" y1="9.25" x2="136.25" y2="15.75" stroke="var(--stroke-0, white)" stroke-opacity="0.5" stroke-width="0.5" stroke-linecap="round"/>
<line id="Line 841" x1="144.25" y1="9.25" x2="144.25" y2="15.75" stroke="var(--stroke-0, white)" stroke-opacity="0.5" stroke-width="0.5" stroke-linecap="round"/>
<line id="Line 842" x1="152.25" y1="9.25" x2="152.25" y2="15.75" stroke="var(--stroke-0, white)" stroke-opacity="0.5" stroke-width="0.5" stroke-linecap="round"/>
<line id="Line 844" x1="168.25" y1="9.25" x2="168.25" y2="15.75" stroke="var(--stroke-0, white)" stroke-opacity="0.5" stroke-width="0.5" stroke-linecap="round"/>
<line id="Line 845" x1="176.25" y1="9.25" x2="176.25" y2="15.75" stroke="var(--stroke-0, white)" stroke-opacity="0.5" stroke-width="0.5" stroke-linecap="round"/>
<line id="Line 846" x1="184.25" y1="9.25" x2="184.25" y2="15.75" stroke="var(--stroke-0, white)" stroke-opacity="0.5" stroke-width="0.5" stroke-linecap="round"/>
<line id="Line 847" x1="192.25" y1="9.25" x2="192.25" y2="15.75" stroke="var(--stroke-0, white)" stroke-opacity="0.5" stroke-width="0.5" stroke-linecap="round"/>
<line id="Line 849" x1="208.25" y1="9.25" x2="208.25" y2="15.75" stroke="var(--stroke-0, white)" stroke-opacity="0.5" stroke-width="0.5" stroke-linecap="round"/>
<line id="Line 850" x1="216.25" y1="9.25" x2="216.25" y2="15.75" stroke="var(--stroke-0, white)" stroke-opacity="0.5" stroke-width="0.5" stroke-linecap="round"/>
<line id="Line 851" x1="224.25" y1="9.25" x2="224.25" y2="15.75" stroke="var(--stroke-0, white)" stroke-opacity="0.5" stroke-width="0.5" stroke-linecap="round"/>
<rect id="Rectangle 3464796" x="25" y="3" width="15" height="18" rx="1" fill="var(--fill-0, #05BC7E)" fill-opacity="0.2"/>
<rect id="Rectangle 3464799" x="30" y="3" width="15" height="18" rx="1" fill="var(--fill-0, #05BC7E)" fill-opacity="0.2"/>
<rect id="Rectangle 3464797" x="31" y="3" width="15" height="18" rx="1" fill="var(--fill-0, #05BC7E)" fill-opacity="0.2"/>
<rect id="Rectangle 3464798" x="32" y="3" width="15" height="18" rx="1" fill="var(--fill-0, #05BC7E)" fill-opacity="0.2"/>
<rect id="Rectangle 3464800" x="49" y="3" width="15" height="18" rx="1" fill="var(--fill-0, #05BC7E)" fill-opacity="0.2"/>
<rect id="Rectangle 3464801" x="49" y="3" width="15" height="18" rx="1" fill="var(--fill-0, #05BC7E)" fill-opacity="0.2"/>
<rect id="Rectangle 3464802" x="49" y="3" width="15" height="18" rx="1" fill="var(--fill-0, #05BC7E)" fill-opacity="0.2"/>
<rect id="Rectangle 3464804" x="49" y="3" width="15" height="18" rx="1" fill="var(--fill-0, #05BC7E)" fill-opacity="0.2"/>
<rect id="Rectangle 3464803" x="49" y="3" width="15" height="18" rx="1" fill="var(--fill-0, #05BC7E)" fill-opacity="0.2"/>
<rect id="Rectangle 3464807" x="55" y="3" width="15" height="18" rx="1" fill="var(--fill-0, #05BC7E)" fill-opacity="0.2"/>
<rect id="Rectangle 3464806" x="56" y="3" width="15" height="18" rx="1" fill="var(--fill-0, #05BC7E)" fill-opacity="0.2"/>
<rect id="Rectangle 3464805" x="57" y="3" width="15" height="18" rx="1" fill="var(--fill-0, #05BC7E)" fill-opacity="0.2"/>
<rect id="Rectangle 3464808" x="58" y="3" width="15" height="18" rx="1" fill="var(--fill-0, #05BC7E)" fill-opacity="0.2"/>
<rect id="Rectangle 3464809" x="58" y="3" width="15" height="18" rx="1" fill="var(--fill-0, #05BC7E)" fill-opacity="0.2"/>
<rect id="Rectangle 3464812" x="64" y="3" width="15" height="18" rx="1" fill="var(--fill-0, #05BC7E)" fill-opacity="0.2"/>
<rect id="Rectangle 3464817" x="64" y="3" width="15" height="18" rx="1" fill="var(--fill-0, #05BC7E)" fill-opacity="0.2"/>
<rect id="Rectangle 3464814" x="64" y="3" width="15" height="18" rx="1" fill="var(--fill-0, #05BC7E)" fill-opacity="0.2"/>
<rect id="Rectangle 3464810" x="64" y="3" width="15" height="18" rx="1" fill="var(--fill-0, #05BC7E)" fill-opacity="0.2"/>
<rect id="Rectangle 3464811" x="64" y="3" width="15" height="18" rx="1" fill="var(--fill-0, #05BC7E)" fill-opacity="0.2"/>
<rect id="Rectangle 3464813" x="64" y="3" width="15" height="18" rx="1" fill="var(--fill-0, #05BC7E)" fill-opacity="0.2"/>
<rect id="Rectangle 3464815" x="64" y="3" width="15" height="18" rx="1" fill="var(--fill-0, #05BC7E)" fill-opacity="0.2"/>
<rect id="Rectangle 3464816" x="72" y="3" width="15" height="18" rx="1" fill="var(--fill-0, #05BC7E)" fill-opacity="0.2"/>
<rect id="Rectangle 3464818" x="72" y="3" width="15" height="18" rx="1" fill="var(--fill-0, #05BC7E)" fill-opacity="0.2"/>
<rect id="Rectangle 3464819" x="72" y="3" width="15" height="18" rx="1" fill="var(--fill-0, #05BC7E)" fill-opacity="0.2"/>
<rect id="Rectangle 3464820" x="72" y="3" width="15" height="18" rx="1" fill="var(--fill-0, #05BC7E)" fill-opacity="0.2"/>
<rect id="Rectangle 3464821" x="72" y="3" width="15" height="18" rx="1" fill="var(--fill-0, #05BC7E)" fill-opacity="0.2"/>
<rect id="Rectangle 3464822" x="72" y="3" width="15" height="18" rx="1" fill="var(--fill-0, #05BC7E)" fill-opacity="0.2"/>
<rect id="Rectangle 3464823" x="72" y="3" width="15" height="18" rx="1" fill="var(--fill-0, #05BC7E)" fill-opacity="0.2"/>
<rect id="Rectangle 3464824" x="72" y="3" width="15" height="18" rx="1" fill="var(--fill-0, #05BC7E)" fill-opacity="0.2"/>
<rect id="Rectangle 3464825" x="72" y="3" width="15" height="18" rx="1" fill="var(--fill-0, #05BC7E)" fill-opacity="0.2"/>
<rect id="Rectangle 3464826" x="72" y="3" width="15" height="18" rx="1" fill="var(--fill-0, #05BC7E)" fill-opacity="0.2"/>
<rect id="Rectangle 3464827" x="87" y="3" width="15" height="18" rx="1" fill="var(--fill-0, #05BC7E)" fill-opacity="0.2"/>
<rect id="Rectangle 3464828" x="87" y="3" width="15" height="18" rx="1" fill="var(--fill-0, #05BC7E)" fill-opacity="0.2"/>
<rect id="Rectangle 3464829" x="87" y="3" width="15" height="18" rx="1" fill="var(--fill-0, #05BC7E)" fill-opacity="0.2"/>
<rect id="Rectangle 3464830" x="87" y="3" width="15" height="18" rx="1" fill="var(--fill-0, #05BC7E)" fill-opacity="0.2"/>
<rect id="Rectangle 3464831" x="87" y="3" width="15" height="18" rx="1" fill="var(--fill-0, #05BC7E)" fill-opacity="0.2"/>
<rect id="Rectangle 3464832" x="87" y="3" width="15" height="18" rx="1" fill="var(--fill-0, #05BC7E)" fill-opacity="0.2"/>
<rect id="Rectangle 3464834" x="96" y="3" width="15" height="18" rx="1" fill="var(--fill-0, #05BC7E)" fill-opacity="0.2"/>
<rect id="Rectangle 3464836" x="96" y="3" width="15" height="18" rx="1" fill="var(--fill-0, #05BC7E)" fill-opacity="0.2"/>
<rect id="Rectangle 3464835" x="96" y="3" width="15" height="18" rx="1" fill="var(--fill-0, #05BC7E)" fill-opacity="0.2"/>
<rect id="Rectangle 3464837" x="100" y="3" width="15" height="18" rx="1" fill="var(--fill-0, #05BC7E)" fill-opacity="0.2"/>
<rect id="Rectangle 3464838" x="100" y="3" width="15" height="18" rx="1" fill="var(--fill-0, #05BC7E)" fill-opacity="0.2"/>
<rect id="Rectangle 3464839" x="100" y="3" width="15" height="18" rx="1" fill="var(--fill-0, #05BC7E)" fill-opacity="0.2"/>
<rect id="Rectangle 3464841" x="102" y="3" width="15" height="18" rx="1" fill="var(--fill-0, #05BC7E)" fill-opacity="0.2"/>
<rect id="Rectangle 3464840" x="102" y="3" width="15" height="18" rx="1" fill="var(--fill-0, #05BC7E)" fill-opacity="0.2"/>
<rect id="Rectangle 3464842" x="102" y="3" width="15" height="18" rx="1" fill="var(--fill-0, #05BC7E)" fill-opacity="0.2"/>
<rect id="Rectangle 3464833" x="106" y="3" width="17" height="18" rx="1" fill="var(--fill-0, #05BC7E)" fill-opacity="0.2"/>
<rect id="Rectangle 3464843" x="122" y="3" width="15" height="18" rx="1" fill="var(--fill-0, #D7D82E)" fill-opacity="0.2"/>
<rect id="Rectangle 3464844" x="127" y="3" width="15" height="18" rx="1" fill="var(--fill-0, #D7D82E)" fill-opacity="0.2"/>
<rect id="Rectangle 3464846" x="146" y="3" width="15" height="18" rx="1" fill="var(--fill-0, #D7D82E)" fill-opacity="0.2"/>
<rect id="Rectangle 3464845" x="146" y="3" width="15" height="18" rx="1" fill="var(--fill-0, #D7D82E)" fill-opacity="0.2"/>
<rect id="Rectangle 3464848" x="150" y="3" width="11" height="18" rx="1" fill="var(--fill-0, #D7D82E)" fill-opacity="0.2"/>
<rect id="Rectangle 3464847" x="150" y="3" width="15" height="18" rx="1" fill="var(--fill-0, #D7D82E)" fill-opacity="0.2"/>
<rect id="Rectangle 3464849" x="150" y="3" width="11" height="18" rx="1" fill="var(--fill-0, #D7D82E)" fill-opacity="0.2"/>
<rect id="Rectangle 3464854" x="167" y="3" width="15" height="18" rx="1" fill="var(--fill-0, #D7D82E)" fill-opacity="0.2"/>
<rect id="Rectangle 3464850" x="172" y="3" width="15" height="18" rx="1" fill="var(--fill-0, #D7D82E)" fill-opacity="0.2"/>
<rect id="Rectangle 3464851" x="172" y="3" width="15" height="18" rx="1" fill="var(--fill-0, #D7D82E)" fill-opacity="0.2"/>
<rect id="Rectangle 3464852" x="172" y="3" width="15" height="18" rx="1" fill="var(--fill-0, #D7D82E)" fill-opacity="0.2"/>
<rect id="Rectangle 3464853" x="172" y="3" width="18" height="18" rx="1" fill="var(--fill-0, #D7D82E)" fill-opacity="0.2"/>
<rect id="Rectangle 3464855" x="188" y="3" width="15" height="18" rx="1" fill="var(--fill-0, #F865DD)" fill-opacity="0.2"/>
<rect id="Rectangle 3464856" x="193" y="3" width="15" height="18" rx="1" fill="var(--fill-0, #F865DD)" fill-opacity="0.2"/>
<rect id="Rectangle 3464857" x="193" y="3" width="15" height="18" rx="1" fill="var(--fill-0, #F865DD)" fill-opacity="0.2"/>
<rect id="Rectangle 3464858" x="193" y="3" width="15" height="18" rx="1" fill="var(--fill-0, #F865DD)" fill-opacity="0.2"/>
<rect id="Rectangle 3464862" x="206" y="3" width="15" height="18" rx="1" fill="var(--fill-0, #F865DD)" fill-opacity="0.2"/>
<rect id="Rectangle 3464863" x="206" y="3" width="15" height="18" rx="1" fill="var(--fill-0, #F865DD)" fill-opacity="0.2"/>
<rect id="Rectangle 3464859" x="206" y="3" width="15" height="18" rx="1" fill="var(--fill-0, #F865DD)" fill-opacity="0.2"/>
<rect id="Rectangle 3464860" x="206" y="3" width="15" height="18" rx="1" fill="var(--fill-0, #F865DD)" fill-opacity="0.2"/>
<rect id="Rectangle 3464861" x="206" y="3" width="15" height="18" rx="1" fill="var(--fill-0, #F865DD)" fill-opacity="0.2"/>
<rect id="Rectangle 3464864" x="214" y="3" width="15" height="18" rx="1" fill="var(--fill-0, #F865DD)" fill-opacity="0.2"/>
<rect id="Rectangle 3464866" x="214" y="3" width="15" height="18" rx="1" fill="var(--fill-0, #F865DD)" fill-opacity="0.2"/>
<rect id="Rectangle 3464865" x="214" y="3" width="15" height="18" rx="1" fill="var(--fill-0, #F865DD)" fill-opacity="0.2"/>
<rect id="Rectangle 3464871" x="226" y="3" width="15" height="18" rx="1" fill="var(--fill-0, #F865DD)" fill-opacity="0.2"/>
<rect id="Rectangle 3464872" x="226" y="3" width="15" height="18" rx="1" fill="var(--fill-0, #F865DD)" fill-opacity="0.2"/>
<rect id="Rectangle 3464868" x="226" y="3" width="15" height="18" rx="1" fill="var(--fill-0, #F865DD)" fill-opacity="0.2"/>
<rect id="Rectangle 3464869" x="226" y="3" width="15" height="18" rx="1" fill="var(--fill-0, #F865DD)" fill-opacity="0.2"/>
<rect id="Rectangle 3464867" x="226" y="3" width="15" height="18" rx="1" fill="var(--fill-0, #F865DD)" fill-opacity="0.2"/>
<rect id="Rectangle 3464870" x="226" y="3" width="15" height="18" rx="1" fill="var(--fill-0, #F865DD)" fill-opacity="0.2"/>
<rect id="Rectangle 3464873" x="239" y="3" width="15" height="18" rx="1" fill="var(--fill-0, #F865DD)" fill-opacity="0.2"/>
<rect id="Rectangle 3464875" x="246" y="3" width="15" height="18" rx="1" fill="var(--fill-0, #F865DD)" fill-opacity="0.2"/>
<rect id="Rectangle 3464874" x="266" y="3" width="15" height="18" rx="1" fill="var(--fill-0, #F865DD)" fill-opacity="0.2"/>
<line id="Line 855" x1="240.25" y1="5.25" x2="240.25" y2="18.75" stroke="var(--stroke-0, white)" stroke-opacity="0.5" stroke-width="0.5" stroke-linecap="round"/>
<line id="Line 852" x1="232.25" y1="9.25" x2="232.25" y2="15.75" stroke="var(--stroke-0, white)" stroke-opacity="0.5" stroke-width="0.5" stroke-linecap="round"/>
<line id="Line 854" x1="248.25" y1="9.25" x2="248.25" y2="15.75" stroke="var(--stroke-0, white)" stroke-opacity="0.5" stroke-width="0.5" stroke-linecap="round"/>
<line id="Line 856" x1="256.25" y1="9.25" x2="256.25" y2="15.75" stroke="var(--stroke-0, white)" stroke-opacity="0.5" stroke-width="0.5" stroke-linecap="round"/>
<line id="Line 857" x1="264.25" y1="9.25" x2="264.25" y2="15.75" stroke="var(--stroke-0, white)" stroke-opacity="0.5" stroke-width="0.5" stroke-linecap="round"/>
<line id="Line 858" x1="272.25" y1="9.25" x2="272.25" y2="15.75" stroke="var(--stroke-0, white)" stroke-opacity="0.5" stroke-width="0.5" stroke-linecap="round"/>
<rect id="Rectangle 3464878" x="111" y="3" width="15" height="18" rx="1" fill="var(--fill-0, #F865DD)" fill-opacity="0.2"/>
<rect id="Rectangle 3464877" x="132" y="3" width="15" height="18" rx="1" fill="var(--fill-0, #F865DD)" fill-opacity="0.2"/>
<rect id="Rectangle 3464879" x="153" y="3" width="15" height="18" rx="1" fill="var(--fill-0, #F865DD)" fill-opacity="0.2"/>
<rect id="Rectangle 3464876" x="153" y="3" width="15" height="18" rx="1" fill="var(--fill-0, #F865DD)" fill-opacity="0.2"/>
</g>
</svg>
