<svg preserveAspectRatio="none" width="100%" height="100%" overflow="visible" style="display: block;" viewBox="0 0 151.171 151.171" fill="none" xmlns="http://www.w3.org/2000/svg">
<g id="Group 1000007699">
<path id="Vector" d="M56.3094 148.106L75.741 75.5864" stroke="var(--stroke-0, black)" stroke-opacity="0.1" stroke-width="1.17065"/>
<path id="Vector_2" d="M7.96692 107.118L75.5853 75.5853" stroke="var(--stroke-0, black)" stroke-opacity="0.1" stroke-width="1.17065"/>
<path id="Vector_3" d="M0.508628 75.5864L75.5864 75.5864" stroke="var(--stroke-0, black)" stroke-opacity="0.1" stroke-width="1.17065"/>
<path id="Vector_4" d="M75.5864 75.741L148.106 56.3094" stroke="var(--stroke-0, black)" stroke-opacity="0.1" stroke-width="1.17065"/>
<path id="Vector_5" d="M26.8873 133.1L75.1464 75.5867" stroke="var(--stroke-0, black)" stroke-opacity="0.1" stroke-width="1.17065"/>
<path id="Vector_6" d="M75.2304 75.4486L7.61058 43.917" stroke="var(--stroke-0, black)" stroke-opacity="0.1" stroke-width="1.17065"/>
<path id="Vector_7" d="M147.654 94.897L75.5864 75.5864" stroke="var(--stroke-0, black)" stroke-opacity="0.1" stroke-width="1.17065"/>
<path id="Vector_8" d="M128.344 128.344L75.5864 75.5864" stroke="var(--stroke-0, black)" stroke-opacity="0.1" stroke-width="1.17065"/>
<path id="Vector_9" d="M94.897 147.654L75.5864 75.5864" stroke="var(--stroke-0, black)" stroke-opacity="0.1" stroke-width="1.17065"/>
<path id="Vector_10" d="M75.8183 75.2686L38.5132 10.6543" stroke="var(--stroke-0, black)" stroke-opacity="0.1" stroke-width="1.17065"/>
<path id="Vector_11" d="M76.0521 75.2686L113.357 10.6543" stroke="var(--stroke-0, black)" stroke-opacity="0.1" stroke-width="1.17065"/>
<path id="Vector_12" d="M75.587 75.7991L136.704 33.0044" stroke="var(--stroke-0, black)" stroke-opacity="0.1" stroke-width="1.17065"/>
<path id="Vector_13" d="M76.0173 74.8349L82.52 0.508628" stroke="var(--stroke-0, black)" stroke-opacity="0.1" stroke-width="1.17065"/>
<path id="Vector_14" d="M75.5853 150.585C117.007 150.585 150.585 117.007 150.585 75.5853C150.585 34.164 117.007 0.585326 75.5853 0.585326C34.164 0.585326 0.585326 34.164 0.585326 75.5853C0.585326 117.007 34.164 150.585 75.5853 150.585Z" stroke="var(--stroke-0, black)" stroke-opacity="0.1" stroke-width="1.17065"/>
<path id="Ellipse 2298" d="M0.509154 75.5091C0.509153 86.2795 2.82884 96.9234 7.31042 106.717L12.9226 104.149C8.80986 95.1612 6.68107 85.3931 6.68107 75.5091L0.509154 75.5091Z" fill="var(--fill-0, #F865DD)"/>
<path id="Ellipse 2299" d="M112.633 10.3416C103.546 5.16485 93.4763 1.94586 83.0713 0.891365L82.449 7.03183C91.9978 7.99955 101.239 10.9536 109.578 15.7044L112.633 10.3416Z" fill="var(--fill-0, #F865DD)"/>
<path id="Ellipse 2303" d="M147.859 55.7493C145.667 47.7221 142.154 40.1157 137.465 33.2417L132.366 36.72C136.67 43.0283 139.894 50.0088 141.905 57.3754L147.859 55.7493Z" fill="var(--fill-0, #F865DD)"/>
<path id="Ellipse 2301" d="M136.661 32.0876C130.606 23.5602 122.835 16.3935 113.846 11.0476L110.691 16.3523C118.94 21.2583 126.072 27.8352 131.629 35.6608L136.661 32.0876Z" fill="var(--fill-0, #05BC7E)"/>
<path id="Ellipse 2304" d="M95.6499 147.754C107.883 144.344 119.05 137.883 128.104 128.976L116.515 117.195C109.456 124.139 100.75 129.176 91.2119 131.835L95.6499 147.754Z" fill="var(--fill-0, #05BC7E)"/>
<path id="Ellipse 2300" d="M109.663 15.555C101.325 10.8048 92.087 7.84623 82.5403 6.86833L81.9617 12.5169C90.7228 13.4144 99.2003 16.1295 106.853 20.4888L109.663 15.555Z" fill="var(--fill-0, #05BC7E)"/>
<path id="Ellipse 2302" d="M131.798 35.6015C126.247 27.7729 119.125 21.1881 110.885 16.2679L107.974 21.143C115.535 25.6583 122.072 31.7012 127.165 38.8856L131.798 35.6015Z" fill="var(--fill-0, #05BC7E)"/>
</g>
</svg>
