<svg width="20" height="20" viewBox="0 0 20 20" fill="none" xmlns="http://www.w3.org/2000/svg">
<path opacity="0.3" d="M0 1.17647C0 0.525735 0.525735 0 1.17647 0H12.9412C13.5919 0 14.1176 0.525735 14.1176 1.17647V2.35294C14.1176 3.00368 13.5919 3.52941 12.9412 3.52941H1.17647C0.525735 3.52941 0 3.00368 0 2.35294V1.17647ZM1.17647 5.29412H12.9412V7.86765C9.89706 8.65074 7.64706 11.4154 7.64706 14.7059C7.64706 16.2426 8.13971 17.6654 8.97059 18.8235H3.52941C2.23162 18.8235 1.17647 17.7684 1.17647 16.4706H3.82353C4.3125 16.4706 4.70588 16.0772 4.70588 15.5882C4.70588 15.0993 4.3125 14.7059 3.82353 14.7059H1.17647V12.9412H3.82353C4.3125 12.9412 4.70588 12.5478 4.70588 12.0588C4.70588 11.5699 4.3125 11.1765 3.82353 11.1765H1.17647V9.41177H3.82353C4.3125 9.41177 4.70588 9.01838 4.70588 8.52941C4.70588 8.04044 4.3125 7.64706 3.82353 7.64706H1.17647V5.29412ZM19.5404 12.5404C19.8382 13.2022 20 13.9338 20 14.7059C20 17.6287 17.6287 20 14.7059 20C13.9338 20 13.2022 19.8346 12.5404 19.5404C12.0441 19.3162 11.989 18.6728 12.375 18.2868L18.2831 12.375C18.6691 11.989 19.3162 12.0441 19.5368 12.5404H19.5404ZM9.87132 16.8713C9.57353 16.2096 9.41177 15.4779 9.41177 14.7059C9.41177 11.7831 11.7831 9.41177 14.7059 9.41177C15.4779 9.41177 16.2096 9.57721 16.8713 9.87132C17.3676 10.0956 17.4228 10.739 17.0368 11.125L11.1287 17.0368C10.7426 17.4228 10.0956 17.3676 9.875 16.8713H9.87132Z" fill="black"/>
</svg>
