<svg width="18" height="20" viewBox="0 0 18 20" fill="none" xmlns="http://www.w3.org/2000/svg">
<g clip-path="url(#clip0_1544_25067)">
<path d="M7.5 3.125C7.5 2.08984 6.66016 1.25 5.625 1.25H1.875C0.839844 1.25 0 2.08984 0 3.125V6.875C0 7.91016 0.839844 8.75 1.875 8.75H5.625C6.66016 8.75 7.5 7.91016 7.5 6.875V3.125ZM7.5 13.125C7.5 12.0898 6.66016 11.25 5.625 11.25H1.875C0.839844 11.25 0 12.0898 0 13.125V16.875C0 17.9102 0.839844 18.75 1.875 18.75H5.625C6.66016 18.75 7.5 17.9102 7.5 16.875V13.125ZM10 3.125V6.875C10 7.91016 10.8398 8.75 11.875 8.75H15.625C16.6602 8.75 17.5 7.91016 17.5 6.875V3.125C17.5 2.08984 16.6602 1.25 15.625 1.25H11.875C10.8398 1.25 10 2.08984 10 3.125ZM17.5 13.125C17.5 12.0898 16.6602 11.25 15.625 11.25H11.875C10.8398 11.25 10 12.0898 10 13.125V16.875C10 17.9102 10.8398 18.75 11.875 18.75H15.625C16.6602 18.75 17.5 17.9102 17.5 16.875V13.125Z" fill="black"/>
</g>
<defs>
<clipPath id="clip0_1544_25067">
<rect width="17.5" height="20" fill="white"/>
</clipPath>
</defs>
</svg>
