<svg width="20" height="20" viewBox="0 0 20 20" fill="none" xmlns="http://www.w3.org/2000/svg">
<g clip-path="url(#clip0_1544_24456)">
<path d="M2.5 4.375C2.5 3.33984 3.33984 2.5 4.375 2.5C5.41016 2.5 6.25 3.33984 6.25 4.375V8.75H2.5V4.375ZM6.875 14.375C6.875 12.4727 7.58203 10.7344 8.75 9.41406V4.375C8.75 1.95703 6.79297 0 4.375 0C1.95703 0 0 1.95703 0 4.375V15.625C0 18.043 1.95703 20 4.375 20C5.83203 20 7.12109 19.2891 7.91797 18.1914C7.25391 17.0742 6.875 15.7695 6.875 14.375ZM9.40234 17.0078C9.58203 17.3477 10.0391 17.3867 10.3125 17.1133L17.1133 10.3125C17.3867 10.0391 17.3477 9.58203 17.0078 9.40234C16.2227 8.98438 15.3281 8.75 14.375 8.75C11.2695 8.75 8.75 11.2695 8.75 14.375C8.75 15.3242 8.98438 16.2227 9.40234 17.0078ZM11.6367 18.4375C11.3633 18.7109 11.4023 19.168 11.7422 19.3477C12.5273 19.7656 13.4219 20 14.375 20C17.4805 20 20 17.4805 20 14.375C20 13.4258 19.7656 12.5273 19.3477 11.7422C19.168 11.4023 18.7109 11.3633 18.4375 11.6367L11.6367 18.4375Z" fill="black"/>
</g>
<defs>
<clipPath id="clip0_1544_24456">
<rect width="20" height="20" fill="white"/>
</clipPath>
</defs>
</svg>
