<svg width="20" height="20" viewBox="0 0 20 20" fill="none" xmlns="http://www.w3.org/2000/svg">
<g clip-path="url(#clip0_1544_24267)">
<path d="M13.3828 0.366211C12.8945 -0.12207 12.1016 -0.12207 11.6133 0.366211C11.125 0.854492 11.125 1.64746 11.6133 2.13574L11.9805 2.49902L1.09766 13.3818C0.394531 14.085 0 15.0381 0 16.0342V16.249C0 18.3193 1.67969 19.999 3.75 19.999H3.96484C4.96094 19.999 5.91406 19.6045 6.61719 18.9014L17.5 8.01855L17.8672 8.38574C18.3555 8.87402 19.1484 8.87402 19.6367 8.38574C20.125 7.89746 20.125 7.10449 19.6367 6.61621L13.3867 0.366211H13.3828ZM8.01953 9.99902L13.75 4.26855L15.7305 6.24902L11.9805 9.99902H8.01562H8.01953Z" fill="black"/>
</g>
<defs>
<clipPath id="clip0_1544_24267">
<rect width="20" height="20" fill="white"/>
</clipPath>
</defs>
</svg>
